<svg xmlns="http://www.w3.org/2000/svg" xmlns:xlink="http://www.w3.org/1999/xlink" contentStyleType="text/css" data-diagram-type="ACTIVITY" height="2112px" preserveAspectRatio="none" style="width:1044px;height:2112px;background:#FAFAFA;" version="1.1" viewBox="0 0 1044 2112" width="1044px" zoomAndPan="magnify"><?plantuml 1.2026.5?><defs/><g><rect fill="#FAFAFA" height="2112" style="stroke:none;stroke-width:1;" width="1044" x="0" y="0"/><g class="title" data-source-line="1"><text fill="#000000" font-family="sans-serif" font-size="14" font-weight="700" lengthAdjust="spacing" textLength="332.124" x="355.0664" y="34.5332">CI/CD pipeline - GitHub Actions -&gt; GHCR -&gt; DOKS</text></g><rect fill="#FFFFCC" height="18.0566" rx="2.5" ry="2.5" style="stroke:#FFDD88;stroke-width:3;" width="1013.2568" x="13" y="51.6094"/><text fill="#000000" font-family="monospace" font-size="10" lengthAdjust="spacing" textLength="534.0869" x="20" y="63.666">This&#160;syntax&#160;is&#160;deprecated,&#160;you&#160;must&#160;add&#160;&lt;&lt;#FF6961&gt;&gt;&#160;at&#160;the&#160;end&#160;of&#160;the&#160;line,&#160;after&#160;the&#160;';'</text><ellipse cx="528.3545" cy="86.666" fill="#222222" rx="10" ry="10" style="stroke:#222222;stroke-width:1;"/><path d="M653.7393,112.2324 L653.7393,137.7598 L633.7393,141.7598 L653.7393,145.7598 L653.7393,171.2871 A0,0 0 0 0 653.7393,171.2871 L927.6426,171.2871 A0,0 0 0 0 927.6426,171.2871 L927.6426,122.2324 L917.6426,112.2324 L653.7393,112.2324 A0,0 0 0 0 653.7393,112.2324" fill="#FFF8DC" style="stroke:#181818;stroke-width:0.5;"/><path d="M917.6426,112.2324 L917.6426,122.2324 L927.6426,122.2324 L917.6426,112.2324" fill="#FFF8DC" style="stroke:#181818;stroke-width:0.5;"/><text fill="#000000" font-family="sans-serif" font-size="13" lengthAdjust="spacing" textLength="249.2661" x="659.7393" y="130.7275">GitHub Actions runs the CI workflow whose</text><text fill="#000000" font-family="sans-serif" font-size="13" lengthAdjust="spacing" textLength="252.9033" x="659.7393" y="147.0791">path filter matches the changed files; cd.yml</text><text fill="#000000" font-family="sans-serif" font-size="13" lengthAdjust="spacing" textLength="117.0762" x="659.7393" y="163.4307">runs only on push to</text><text fill="#000000" font-family="sans-serif" font-size="13" font-weight="700" lengthAdjust="spacing" textLength="30.3418" x="780.4272" y="163.4307">main</text><text fill="#000000" font-family="sans-serif" font-size="13" lengthAdjust="spacing" textLength="11.5591" x="814.3809" y="163.4307">or</text><text fill="#000000" font-family="sans-serif" font-size="13" font-weight="700" lengthAdjust="spacing" textLength="49.1245" x="829.5518" y="163.4307">develop</text><text fill="#000000" font-family="sans-serif" font-size="13" lengthAdjust="spacing" textLength="3.6118" x="878.6763" y="163.4307">.</text><rect fill="#EFF6FF" height="50.1875" rx="12.5" ry="12.5" style="stroke:#1168BD;stroke-width:0.5;" width="210.7695" x="422.9697" y="116.666"/><text fill="#000000" font-family="sans-serif" font-size="12" lengthAdjust="spacing" textLength="172.7344" x="432.9697" y="139.123">Developer pushes commit or PR</text><text fill="#000000" font-family="sans-serif" font-size="12" lengthAdjust="spacing" textLength="190.7695" x="432.9697" y="154.2168">(branches: feature/*, main, develop)</text><rect fill="#555555" height="6" rx="2.5" ry="2.5" style="stroke:#555555;stroke-width:1;" width="993.8047" x="30.4521" y="191.2871"/><rect fill="#FFFFFF" height="1028.6484" style="stroke:#999999;stroke-width:1.5;" width="300.7773" x="44.4521" y="207.2871"/><path d="M309.6787,207.2871 L309.6787,235.5059 L299.6787,245.5059 L44.4521,245.5059" fill="none" style="stroke:#999999;stroke-width:1.5;"/><text fill="#000000" font-family="sans-serif" font-size="14" font-weight="700" lengthAdjust="spacing" textLength="101.1514" x="47.4521" y="222.8203">backend-ci.yml</text><text fill="#000000" font-family="sans-serif" font-size="14" lengthAdjust="spacing" textLength="255.2266" x="47.4521" y="240.4297">(push/PR on backend/**, MyProperty.sln)</text><rect fill="#EFF6FF" height="35.0938" rx="12.5" ry="12.5" style="stroke:#1168BD;stroke-width:0.5;" width="214.6309" x="87.5254" y="262.5059"/><text fill="#000000" font-family="sans-serif" font-size="12" lengthAdjust="spacing" textLength="194.6309" x="97.5254" y="284.9629">actions/checkout + setup-dotnet@v5</text><rect fill="#EFF6FF" height="35.0938" rx="12.5" ry="12.5" style="stroke:#1168BD;stroke-width:0.5;" width="94.0449" x="147.8184" y="332.5996"/><text fill="#000000" font-family="sans-serif" font-size="12" lengthAdjust="spacing" textLength="74.0449" x="157.8184" y="355.0566">dotnet restore</text><rect fill="#EFF6FF" height="35.0938" rx="12.5" ry="12.5" style="stroke:#1168BD;stroke-width:0.5;" width="197.4102" x="96.1357" y="402.6934"/><text fill="#000000" font-family="sans-serif" font-size="12" lengthAdjust="spacing" textLength="177.4102" x="106.1357" y="425.1504">dotnet format --verify-no-changes</text><rect fill="#EFF6FF" height="35.0938" rx="12.5" ry="12.5" style="stroke:#1168BD;stroke-width:0.5;" width="214.0918" x="87.7949" y="472.7871"/><text fill="#000000" font-family="sans-serif" font-size="12" lengthAdjust="spacing" textLength="194.0918" x="97.7949" y="495.2441">dotnet build -c Release -warnaserror</text><rect fill="#EFF6FF" height="65.2813" rx="12.5" ry="12.5" style="stroke:#1168BD;stroke-width:0.5;" width="280.7773" x="54.4521" y="542.8809"/><text fill="#000000" font-family="sans-serif" font-size="12" lengthAdjust="spacing" textLength="56.0391" x="64.4521" y="565.3379">dotnet test</text><text fill="#000000" font-family="sans-serif" font-size="12" lengthAdjust="spacing" textLength="260.7773" x="64.4521" y="580.4316">(xUnit + WebApplicationFactory + Testcontainers</text><text fill="#000000" font-family="sans-serif" font-size="12" lengthAdjust="spacing" textLength="221.8184" x="64.4521" y="595.5254">79 unit + 22 integration = 101 tests, ~30s)</text><rect fill="#EFF6FF" height="35.0938" rx="12.5" ry="12.5" style="stroke:#1168BD;stroke-width:0.5;" width="249.0957" x="70.293" y="643.1621"/><text fill="#000000" font-family="sans-serif" font-size="12" lengthAdjust="spacing" textLength="229.0957" x="80.293" y="665.6191">docker/setup-buildx + docker/login (GHCR)</text><rect fill="#EFF6FF" height="50.1875" rx="12.5" ry="12.5" style="stroke:#1168BD;stroke-width:0.5;" width="222.0957" x="83.793" y="713.2559"/><text fill="#000000" font-family="sans-serif" font-size="12" lengthAdjust="spacing" textLength="202.0957" x="93.793" y="735.7129">docker buildx build (chiseled .NET 10)</text><text fill="#000000" font-family="sans-serif" font-size="12" lengthAdjust="spacing" textLength="172.4414" x="93.793" y="750.8066">myproperty-api:{sha} + :{branch}</text><rect fill="#EFF6FF" height="50.1875" rx="12.5" ry="12.5" style="stroke:#1168BD;stroke-width:0.5;" width="219.4414" x="85.1201" y="798.4434"/><text fill="#000000" font-family="sans-serif" font-size="12" lengthAdjust="spacing" textLength="199.4414" x="95.1201" y="820.9004">docker buildx build (migration bundle)</text><text fill="#000000" font-family="sans-serif" font-size="12" lengthAdjust="spacing" textLength="150.0645" x="95.1201" y="835.9941">myproperty-migrations:{sha}</text><rect fill="#EFF6FF" height="50.1875" rx="12.5" ry="12.5" style="stroke:#1168BD;stroke-width:0.5;" width="262.3848" x="63.6484" y="883.6309"/><text fill="#000000" font-family="sans-serif" font-size="12" lengthAdjust="spacing" textLength="242.3848" x="73.6484" y="906.0879">Trivy SARIF (HIGH+CRITICAL, non-blocking)</text><text fill="#000000" font-family="sans-serif" font-size="12" lengthAdjust="spacing" textLength="118.3828" x="73.6484" y="921.1816">-&gt; GitHub Security tab</text><rect fill="#EFF6FF" height="35.0938" rx="12.5" ry="12.5" style="stroke:#1168BD;stroke-width:0.5;" width="64.0273" x="162.8271" y="1017.7363"/><text fill="#000000" font-family="sans-serif" font-size="12" lengthAdjust="spacing" textLength="44.0273" x="172.8271" y="1040.1934">fail build</text><polygon fill="#EFF6FF" points="153.8862,968.8184,235.7954,968.8184,247.7954,980.8184,235.7954,992.8184,153.8862,992.8184,141.8862,980.8184,153.8862,968.8184" style="stroke:#1168BD;stroke-width:0.5;stroke-linejoin:miter;stroke-miterlimit:10;"/><text fill="#000000" font-family="sans-serif" font-size="11" lengthAdjust="spacing" textLength="17.1177" x="198.8408" y="1004.2373">yes</text><text fill="#000000" font-family="sans-serif" font-size="11" lengthAdjust="spacing" textLength="81.9092" x="153.8862" y="985.3193">CRITICAL CVE?</text><text fill="#000000" font-family="sans-serif" font-size="11" lengthAdjust="spacing" textLength="12.2354" x="247.7954" y="978.4014">no</text><rect fill="#EFF6FF" height="35.0938" rx="12.5" ry="12.5" style="stroke:#1168BD;stroke-width:0.5;" width="200.0762" x="94.8027" y="1118.748"/><text fill="#000000" font-family="sans-serif" font-size="12" lengthAdjust="spacing" textLength="180.0762" x="104.8027" y="1141.2051">CycloneDX SBOM (90d retention)</text><rect fill="#EFF6FF" height="35.0938" rx="12.5" ry="12.5" style="stroke:#1168BD;stroke-width:0.5;" width="132.0313" x="128.8252" y="1188.8418"/><text fill="#000000" font-family="sans-serif" font-size="12" lengthAdjust="spacing" textLength="112.0313" x="138.8252" y="1211.2988">docker push (GHCR)</text><rect fill="#FFFFFF" height="936.3672" style="stroke:#999999;stroke-width:1.5;" width="310.1113" x="373.2295" y="257.4277"/><path d="M535.7598,257.4277 L535.7598,285.6465 L525.7598,295.6465 L373.2295,295.6465" fill="none" style="stroke:#999999;stroke-width:1.5;"/><text fill="#000000" font-family="sans-serif" font-size="14" font-weight="700" lengthAdjust="spacing" textLength="101.1172" x="376.2295" y="272.9609">frontend-ci.yml</text><text fill="#000000" font-family="sans-serif" font-size="14" lengthAdjust="spacing" textLength="152.5303" x="376.2295" y="290.5703">(push/PR on frontend/**)</text><rect fill="#EFF6FF" height="35.0938" rx="12.5" ry="12.5" style="stroke:#1168BD;stroke-width:0.5;" width="166.6074" x="444.9814" y="312.6465"/><text fill="#000000" font-family="sans-serif" font-size="12" lengthAdjust="spacing" textLength="146.6074" x="454.9814" y="335.1035">checkout + setup-node@v6</text><rect fill="#EFF6FF" height="35.0938" rx="12.5" ry="12.5" style="stroke:#1168BD;stroke-width:0.5;" width="55.3438" x="500.6133" y="382.7402"/><text fill="#000000" font-family="sans-serif" font-size="12" lengthAdjust="spacing" textLength="35.3438" x="510.6133" y="405.1973">npm ci</text><rect fill="#EFF6FF" height="35.0938" rx="12.5" ry="12.5" style="stroke:#1168BD;stroke-width:0.5;" width="55.3555" x="500.6074" y="452.834"/><text fill="#000000" font-family="sans-serif" font-size="12" lengthAdjust="spacing" textLength="35.3555" x="510.6074" y="475.291">ESLint</text><rect fill="#EFF6FF" height="35.0938" rx="12.5" ry="12.5" style="stroke:#1168BD;stroke-width:0.5;" width="149.3633" x="453.6035" y="522.9277"/><text fill="#000000" font-family="sans-serif" font-size="12" lengthAdjust="spacing" textLength="129.3633" x="463.6035" y="545.3848">tsc --noEmit (typecheck)</text><rect fill="#EFF6FF" height="35.0938" rx="12.5" ry="12.5" style="stroke:#1168BD;stroke-width:0.5;" width="183.7344" x="436.418" y="593.0215"/><text fill="#000000" font-family="sans-serif" font-size="12" lengthAdjust="spacing" textLength="163.7344" x="446.418" y="615.4785">Jest + jest-axe a11y (RTL unit)</text><rect fill="#EFF6FF" height="50.1875" rx="12.5" ry="12.5" style="stroke:#1168BD;stroke-width:0.5;" width="290.1113" x="383.2295" y="663.1152"/><text fill="#000000" font-family="sans-serif" font-size="12" lengthAdjust="spacing" textLength="270.1113" x="393.2295" y="685.5723">Playwright e2e (chromium, auto-spawn dev server,</text><text fill="#000000" font-family="sans-serif" font-size="12" lengthAdjust="spacing" textLength="135.0527" x="393.2295" y="700.666">MSW + dev-auth bypass)</text><rect fill="#EFF6FF" height="50.1875" rx="12.5" ry="12.5" style="stroke:#1168BD;stroke-width:0.5;" width="196.1035" x="430.2334" y="748.3027"/><text fill="#000000" font-family="sans-serif" font-size="12" lengthAdjust="spacing" textLength="176.1035" x="440.2334" y="770.7598">Bundle build (Next.js standalone)</text><text fill="#000000" font-family="sans-serif" font-size="12" lengthAdjust="spacing" textLength="164.7773" x="440.2334" y="785.8535">upload bundle analyzer reports</text><rect fill="#EFF6FF" height="50.1875" rx="12.5" ry="12.5" style="stroke:#1168BD;stroke-width:0.5;" width="220.4609" x="418.0547" y="833.4902"/><text fill="#000000" font-family="sans-serif" font-size="12" lengthAdjust="spacing" textLength="175.418" x="428.0547" y="855.9473">docker build (distroless Node 20)</text><text fill="#000000" font-family="sans-serif" font-size="12" lengthAdjust="spacing" textLength="200.4609" x="428.0547" y="871.041">myproperty-frontend:{sha} + :{branch}</text><rect fill="#EFF6FF" height="35.0938" rx="12.5" ry="12.5" style="stroke:#1168BD;stroke-width:0.5;" width="197.0352" x="429.7676" y="918.6777"/><text fill="#000000" font-family="sans-serif" font-size="12" lengthAdjust="spacing" textLength="177.0352" x="439.7676" y="941.1348">Trivy SARIF + CycloneDX SBOM</text><rect fill="#EFF6FF" height="35.0938" rx="12.5" ry="12.5" style="stroke:#1168BD;stroke-width:0.5;" width="64.0273" x="496.2715" y="1037.6895"/><text fill="#000000" font-family="sans-serif" font-size="12" lengthAdjust="spacing" textLength="44.0273" x="506.2715" y="1060.1465">fail build</text><polygon fill="#EFF6FF" points="487.3306,988.7715,569.2397,988.7715,581.2397,1000.7715,569.2397,1012.7715,487.3306,1012.7715,475.3306,1000.7715,487.3306,988.7715" style="stroke:#1168BD;stroke-width:0.5;stroke-linejoin:miter;stroke-miterlimit:10;"/><text fill="#000000" font-family="sans-serif" font-size="11" lengthAdjust="spacing" textLength="17.1177" x="532.2852" y="1024.1904">yes</text><text fill="#000000" font-family="sans-serif" font-size="11" lengthAdjust="spacing" textLength="81.9092" x="487.3306" y="1005.2725">CRITICAL CVE?</text><text fill="#000000" font-family="sans-serif" font-size="11" lengthAdjust="spacing" textLength="12.2354" x="581.2397" y="998.3545">no</text><rect fill="#EFF6FF" height="35.0938" rx="12.5" ry="12.5" style="stroke:#1168BD;stroke-width:0.5;" width="132.0313" x="462.2695" y="1138.7012"/><text fill="#000000" font-family="sans-serif" font-size="12" lengthAdjust="spacing" textLength="112.0313" x="472.2695" y="1161.1582">docker push (GHCR)</text><rect fill="#FFFFFF" height="695.8984" style="stroke:#999999;stroke-width:1.5;" width="300.916" x="711.3408" y="377.6621"/><path d="M1002.2568,377.6621 L1002.2568,405.8809 L992.2568,415.8809 L711.3408,415.8809" fill="none" style="stroke:#999999;stroke-width:1.5;"/><text fill="#000000" font-family="sans-serif" font-size="14" font-weight="700" lengthAdjust="spacing" textLength="146.248" x="714.3408" y="393.1953">aiops-webhook-ci.yml</text><text fill="#000000" font-family="sans-serif" font-size="14" lengthAdjust="spacing" textLength="280.916" x="714.3408" y="410.8047">(push/PR on infrastructure/aiops-webhook/**)</text><rect fill="#EFF6FF" height="35.0938" rx="12.5" ry="12.5" style="stroke:#1168BD;stroke-width:0.5;" width="210.623" x="756.4873" y="432.8809"/><text fill="#000000" font-family="sans-serif" font-size="12" lengthAdjust="spacing" textLength="190.623" x="766.4873" y="455.3379">checkout + setup-python@v6 (3.14)</text><rect fill="#EFF6FF" height="35.0938" rx="12.5" ry="12.5" style="stroke:#1168BD;stroke-width:0.5;" width="116.7148" x="803.4414" y="502.9746"/><text fill="#000000" font-family="sans-serif" font-size="12" lengthAdjust="spacing" textLength="96.7148" x="813.4414" y="525.4316">pip install -e .[dev]</text><rect fill="#EFF6FF" height="35.0938" rx="12.5" ry="12.5" style="stroke:#1168BD;stroke-width:0.5;" width="183.0488" x="770.2744" y="573.0684"/><text fill="#000000" font-family="sans-serif" font-size="12" lengthAdjust="spacing" textLength="163.0488" x="780.2744" y="595.5254">ruff check + ruff format --check</text><rect fill="#EFF6FF" height="35.0938" rx="12.5" ry="12.5" style="stroke:#1168BD;stroke-width:0.5;" width="52.0156" x="835.791" y="643.1621"/><text fill="#000000" font-family="sans-serif" font-size="12" lengthAdjust="spacing" textLength="32.0156" x="845.791" y="665.6191">pytest</text><rect fill="#EFF6FF" height="50.1875" rx="12.5" ry="12.5" style="stroke:#1168BD;stroke-width:0.5;" width="278.1113" x="722.7432" y="713.2559"/><text fill="#000000" font-family="sans-serif" font-size="12" lengthAdjust="spacing" textLength="258.1113" x="732.7432" y="735.7129">docker build (python:3.14-slim, multi-stage venv)</text><text fill="#000000" font-family="sans-serif" font-size="12" lengthAdjust="spacing" textLength="237.1465" x="732.7432" y="750.8066">myproperty-aiops-webhook:{sha} + :{branch}</text><rect fill="#EFF6FF" height="35.0938" rx="12.5" ry="12.5" style="stroke:#1168BD;stroke-width:0.5;" width="197.0352" x="763.2813" y="798.4434"/><text fill="#000000" font-family="sans-serif" font-size="12" lengthAdjust="spacing" textLength="177.0352" x="773.2813" y="820.9004">Trivy SARIF + CycloneDX SBOM</text><rect fill="#EFF6FF" height="35.0938" rx="12.5" ry="12.5" style="stroke:#1168BD;stroke-width:0.5;" width="64.0273" x="829.7852" y="917.4551"/><text fill="#000000" font-family="sans-serif" font-size="12" lengthAdjust="spacing" textLength="44.0273" x="839.7852" y="939.9121">fail build</text><polygon fill="#EFF6FF" points="820.8442,868.5371,902.7534,868.5371,914.7534,880.5371,902.7534,892.5371,820.8442,892.5371,808.8442,880.5371,820.8442,868.5371" style="stroke:#1168BD;stroke-width:0.5;stroke-linejoin:miter;stroke-miterlimit:10;"/><text fill="#000000" font-family="sans-serif" font-size="11" lengthAdjust="spacing" textLength="17.1177" x="865.7988" y="903.9561">yes</text><text fill="#000000" font-family="sans-serif" font-size="11" lengthAdjust="spacing" textLength="81.9092" x="820.8442" y="885.0381">CRITICAL CVE?</text><text fill="#000000" font-family="sans-serif" font-size="11" lengthAdjust="spacing" textLength="12.2354" x="914.7534" y="878.1201">no</text><rect fill="#EFF6FF" height="35.0938" rx="12.5" ry="12.5" style="stroke:#1168BD;stroke-width:0.5;" width="132.0313" x="795.7832" y="1018.4668"/><text fill="#000000" font-family="sans-serif" font-size="12" lengthAdjust="spacing" textLength="112.0313" x="805.7832" y="1040.9238">docker push (GHCR)</text><rect fill="#555555" height="6" rx="2.5" ry="2.5" style="stroke:#555555;stroke-width:1;" width="993.8047" x="30.4521" y="1255.9355"/><rect fill="#EFF6FF" height="50.1875" rx="12.5" ry="12.5" style="stroke:#1168BD;stroke-width:0.5;" width="334.0859" x="361.3115" y="1281.9355"/><text fill="#000000" font-family="sans-serif" font-size="12" lengthAdjust="spacing" textLength="111.3867" x="371.3115" y="1304.3926">Three images now in</text><text fill="#000000" font-family="sans-serif" font-size="12" font-weight="700" lengthAdjust="spacing" textLength="194.6953" x="486.0322" y="1304.3926">ghcr.io/life-property-management/</text><text fill="#000000" font-family="sans-serif" font-size="12" lengthAdjust="spacing" textLength="4.6699" x="680.7275" y="1304.3926">*</text><text fill="#000000" font-family="sans-serif" font-size="12" lengthAdjust="spacing" textLength="167.1094" x="371.3115" y="1319.4863">with tags {short-sha} + {branch}</text><polygon fill="#EFF6FF" points="459.865,1352.123,596.844,1352.123,608.844,1364.123,596.844,1376.123,459.865,1376.123,447.865,1364.123,459.865,1352.123" style="stroke:#1168BD;stroke-width:0.5;stroke-linejoin:miter;stroke-miterlimit:10;"/><text fill="#000000" font-family="sans-serif" font-size="11" lengthAdjust="spacing" textLength="136.979" x="459.865" y="1368.624">Pushed to main or develop?</text><text fill="#000000" font-family="sans-serif" font-size="11" lengthAdjust="spacing" textLength="17.1177" x="430.7473" y="1361.7061">yes</text><text fill="#000000" font-family="sans-serif" font-size="11" lengthAdjust="spacing" textLength="12.2354" x="608.844" y="1361.7061">no</text><rect fill="#FFFFFF" height="664.7188" style="stroke:#999999;stroke-width:1.5;" width="731.5117" x="16" y="1386.123"/><path d="M247.0195,1386.123 L247.0195,1414.3418 L237.0195,1424.3418 L16,1424.3418" fill="none" style="stroke:#999999;stroke-width:1.5;"/><text fill="#000000" font-family="sans-serif" font-size="14" font-weight="700" lengthAdjust="spacing" textLength="44.3516" x="19" y="1401.6563">cd.yml</text><text fill="#000000" font-family="sans-serif" font-size="14" lengthAdjust="spacing" textLength="221.0195" x="19" y="1419.2656">(triggered on push to main/develop)</text><rect fill="#EFF6FF" height="35.0938" rx="12.5" ry="12.5" style="stroke:#1168BD;stroke-width:0.5;" width="68.0293" x="211.5" y="1441.3418"/><text fill="#000000" font-family="sans-serif" font-size="12" lengthAdjust="spacing" textLength="48.0293" x="221.5" y="1463.7988">checkout</text><rect fill="#EFF6FF" height="50.1875" rx="12.5" ry="12.5" style="stroke:#1168BD;stroke-width:0.5;" width="260.7207" x="115.1543" y="1498.2168"/><text fill="#000000" font-family="sans-serif" font-size="12" lengthAdjust="spacing" textLength="153.6035" x="125.1543" y="1520.6738">digitalocean/action-doctl@v2</text><text fill="#000000" font-family="sans-serif" font-size="12" lengthAdjust="spacing" textLength="240.7207" x="125.1543" y="1535.7676">(secret: DIGITALOCEAN_ACCESS_TOKEN)</text><rect fill="#EFF6FF" height="35.0938" rx="12.5" ry="12.5" style="stroke:#1168BD;stroke-width:0.5;" width="188.2578" x="151.3857" y="1568.4043"/><text fill="#000000" font-family="sans-serif" font-size="12" lengthAdjust="spacing" textLength="168.2578" x="161.3857" y="1590.8613">azure/setup-helm@v5 (v3.20.0)</text><rect fill="#EFF6FF" height="50.1875" rx="12.5" ry="12.5" style="stroke:#1168BD;stroke-width:0.5;" width="236.791" x="127.1191" y="1623.498"/><text fill="#000000" font-family="sans-serif" font-size="12" lengthAdjust="spacing" textLength="216.791" x="137.1191" y="1645.9551">doctl kubernetes cluster kubeconfig save</text><text fill="#000000" font-family="sans-serif" font-size="12" lengthAdjust="spacing" textLength="99.3574" x="137.1191" y="1661.0488">myproperty-cluster</text><rect fill="#EFF6FF" height="50.1875" rx="12.5" ry="12.5" style="stroke:#1168BD;stroke-width:0.5;" width="282.8164" x="104.1064" y="1693.6855"/><text fill="#000000" font-family="sans-serif" font-size="12" lengthAdjust="spacing" textLength="262.8164" x="114.1064" y="1716.1426">cd helm/myproperty &amp;&amp; helm dependency update</text><text fill="#000000" font-family="sans-serif" font-size="12" lengthAdjust="spacing" textLength="198.0938" x="114.1064" y="1731.2363">(pulls kube-prometheus-stack 65.2.0)</text><path d="M414.5664,1763.8418 L414.5664,1830.248 L394.5664,1834.248 L414.5664,1838.248 L414.5664,1904.6543 A0,0 0 0 0 414.5664,1904.6543 L737.5117,1904.6543 A0,0 0 0 0 737.5117,1904.6543 L737.5117,1773.8418 L727.5117,1763.8418 L414.5664,1763.8418 A0,0 0 0 0 414.5664,1763.8418" fill="#FFF8DC" style="stroke:#181818;stroke-width:0.5;"/><path d="M727.5117,1763.8418 L727.5117,1773.8418 L737.5117,1773.8418 L727.5117,1763.8418" fill="#FFF8DC" style="stroke:#181818;stroke-width:0.5;"/><text fill="#000000" font-family="sans-serif" font-size="13" lengthAdjust="spacing" textLength="219.686" x="420.5664" y="1782.3369">`postgres.enabled=false` -&gt; prod uses</text><text fill="#000000" font-family="sans-serif" font-size="13" font-weight="700" lengthAdjust="spacing" textLength="158.1899" x="420.5664" y="1798.6885">DO Managed PostgreSQL</text><text fill="#000000" font-family="sans-serif" font-size="13" lengthAdjust="spacing" textLength="140.1436" x="582.3682" y="1798.6885">(Terraform-provisioned);</text><text fill="#000000" font-family="sans-serif" font-size="13" lengthAdjust="spacing" textLength="260.1333" x="420.5664" y="1815.04">the in-cluster StatefulSet template is skipped.</text><text fill="#000000" font-family="sans-serif" font-size="13" lengthAdjust="spacing" textLength="3.6118" x="420.5664" y="1831.3916">&#160;</text><text fill="#000000" font-family="sans-serif" font-size="13" lengthAdjust="spacing" textLength="251.8052" x="420.5664" y="1847.7432">`--atomic` -&gt; failed upgrade rolls back to the</text><text fill="#000000" font-family="sans-serif" font-size="13" lengthAdjust="spacing" textLength="234.1206" x="420.5664" y="1864.0947">previous release. Migration job runs as a</text><text fill="#000000" font-family="sans-serif" font-size="13" lengthAdjust="spacing" textLength="247.1079" x="420.5664" y="1880.4463">pre-upgrade Helm Hook; if it fails, the chart</text><text fill="#000000" font-family="sans-serif" font-size="13" lengthAdjust="spacing" textLength="213.186" x="420.5664" y="1896.7979">rolls back without touching app pods.</text><rect fill="#EFF6FF" height="140.75" rx="12.5" ry="12.5" style="stroke:#1168BD;stroke-width:0.5;" width="298.1035" x="96.4629" y="1763.873"/><text fill="#000000" font-family="sans-serif" font-size="12" lengthAdjust="spacing" textLength="278.1035" x="106.4629" y="1786.3301">helm upgrade --install myproperty ./helm/myproperty</text><text fill="#000000" font-family="sans-serif" font-size="12" lengthAdjust="spacing" text-decoration="line-through" textLength="125.3906" x="106.4629" y="1801.4238">namespace myproperty</text><text fill="#000000" font-family="sans-serif" font-size="12" lengthAdjust="spacing" textLength="99.3867" x="235.1875" y="1801.4238">create-namespace</text><text fill="#000000" font-family="sans-serif" font-size="12" lengthAdjust="spacing" text-decoration="line-through" textLength="35.3438" x="106.4629" y="1816.5176">atomic</text><text fill="#000000" font-family="sans-serif" font-size="12" lengthAdjust="spacing" textLength="98.6953" x="145.1406" y="1816.5176">wait --timeout 10m</text><text fill="#000000" font-family="sans-serif" font-size="12" lengthAdjust="spacing" textLength="151.7578" x="106.4629" y="1831.6113">--set postgres.enabled=false</text><text fill="#000000" font-family="sans-serif" font-size="12" lengthAdjust="spacing" textLength="167.0918" x="106.4629" y="1846.7051">--set backend.image.tag=$SHA</text><text fill="#000000" font-family="sans-serif" font-size="12" lengthAdjust="spacing" textLength="165.7559" x="106.4629" y="1861.7988">--set frontend.image.tag=$SHA</text><text fill="#000000" font-family="sans-serif" font-size="12" lengthAdjust="spacing" textLength="171.0762" x="106.4629" y="1876.8926">--set migration.image.tag=$SHA</text><text fill="#000000" font-family="sans-serif" font-size="12" lengthAdjust="spacing" textLength="201.1055" x="106.4629" y="1891.9863">--set aiopsWebhook.image.tag=$SHA</text><polygon fill="#EFF6FF" points="214.9478,1924.6543,276.0815,1924.6543,288.0815,1936.6543,276.0815,1948.6543,214.9478,1948.6543,202.9478,1936.6543,214.9478,1924.6543" style="stroke:#1168BD;stroke-width:0.5;stroke-linejoin:miter;stroke-miterlimit:10;"/><text fill="#000000" font-family="sans-serif" font-size="11" lengthAdjust="spacing" textLength="61.1338" x="214.9478" y="1941.1553">Helm exit 0?</text><text fill="#000000" font-family="sans-serif" font-size="11" lengthAdjust="spacing" textLength="17.1177" x="185.8301" y="1934.2373">yes</text><text fill="#000000" font-family="sans-serif" font-size="11" lengthAdjust="spacing" textLength="12.2354" x="288.0815" y="1934.2373">no</text><rect fill="#EFF6FF" height="50.1875" rx="12.5" ry="12.5" style="stroke:#1168BD;stroke-width:0.5;" width="191.0938" x="28" y="1958.6543"/><text fill="#000000" font-family="sans-serif" font-size="12" lengthAdjust="spacing" textLength="146.7188" x="38" y="1981.1113">Discord webhook (success)</text><text fill="#000000" font-family="sans-serif" font-size="12" lengthAdjust="spacing" textLength="171.0938" x="38" y="1996.2051">release + sha + actor + run URL</text><rect fill="#EFF6FF" height="50.1875" rx="12.5" ry="12.5" style="stroke:#1168BD;stroke-width:0.5;" width="256.7773" x="239.0938" y="1958.6543"/><text fill="#000000" font-family="sans-serif" font-size="12" lengthAdjust="spacing" textLength="136.0547" x="249.0938" y="1981.1113">Discord webhook (failure)</text><text fill="#000000" font-family="sans-serif" font-size="12" lengthAdjust="spacing" textLength="236.7773" x="249.0938" y="1996.2051">--atomic auto-rolled back to previous release</text><polygon fill="#EFF6FF" points="245.5146,2014.8418,257.5146,2026.8418,245.5146,2038.8418,233.5146,2026.8418,245.5146,2014.8418" style="stroke:#1168BD;stroke-width:0.5;stroke-linejoin:miter;stroke-miterlimit:10;"/><rect fill="#EFF6FF" height="35.0938" rx="12.5" ry="12.5" style="stroke:#1168BD;stroke-width:0.5;" width="87.3652" x="767.5117" y="1386.123"/><text fill="#000000" font-family="sans-serif" font-size="12" lengthAdjust="spacing" textLength="67.3652" x="777.5117" y="1408.5801">Stop after CI</text><ellipse cx="811.1943" cy="1467.2168" fill="none" rx="11" ry="11" style="stroke:#222222;stroke-width:1;"/><ellipse cx="811.1943" cy="1467.2168" fill="#222222" rx="6" ry="6" style="stroke:#222222;stroke-width:1;"/><ellipse cx="528.3545" cy="2081.8418" fill="none" rx="11" ry="11" style="stroke:#222222;stroke-width:1;"/><ellipse cx="528.3545" cy="2081.8418" fill="#222222" rx="6" ry="6" style="stroke:#222222;stroke-width:1;"/><line style="stroke:#555555;stroke-width:1;" x1="528.3545" x2="528.3545" y1="96.666" y2="116.666"/><polygon fill="#555555" points="524.3545,106.666,528.3545,116.666,532.3545,106.666,528.3545,110.666" style="stroke:#555555;stroke-width:1;stroke-linejoin:miter;stroke-miterlimit:10;"/><line style="stroke:#555555;stroke-width:1;" x1="194.8408" x2="194.8408" y1="297.5996" y2="332.5996"/><polygon fill="#555555" points="190.8408,322.5996,194.8408,332.5996,198.8408,322.5996,194.8408,326.5996" style="stroke:#555555;stroke-width:1;stroke-linejoin:miter;stroke-miterlimit:10;"/><line style="stroke:#555555;stroke-width:1;" x1="194.8408" x2="194.8408" y1="367.6934" y2="402.6934"/><polygon fill="#555555" points="190.8408,392.6934,194.8408,402.6934,198.8408,392.6934,194.8408,396.6934" style="stroke:#555555;stroke-width:1;stroke-linejoin:miter;stroke-miterlimit:10;"/><line style="stroke:#555555;stroke-width:1;" x1="194.8408" x2="194.8408" y1="437.7871" y2="472.7871"/><polygon fill="#555555" points="190.8408,462.7871,194.8408,472.7871,198.8408,462.7871,194.8408,466.7871" style="stroke:#555555;stroke-width:1;stroke-linejoin:miter;stroke-miterlimit:10;"/><line style="stroke:#555555;stroke-width:1;" x1="194.8408" x2="194.8408" y1="507.8809" y2="542.8809"/><polygon fill="#555555" points="190.8408,532.8809,194.8408,542.8809,198.8408,532.8809,194.8408,536.8809" style="stroke:#555555;stroke-width:1;stroke-linejoin:miter;stroke-miterlimit:10;"/><line style="stroke:#555555;stroke-width:1;" x1="194.8408" x2="194.8408" y1="608.1621" y2="643.1621"/><polygon fill="#555555" points="190.8408,633.1621,194.8408,643.1621,198.8408,633.1621,194.8408,637.1621" style="stroke:#555555;stroke-width:1;stroke-linejoin:miter;stroke-miterlimit:10;"/><line style="stroke:#555555;stroke-width:1;" x1="194.8408" x2="194.8408" y1="678.2559" y2="713.2559"/><polygon fill="#555555" points="190.8408,703.2559,194.8408,713.2559,198.8408,703.2559,194.8408,707.2559" style="stroke:#555555;stroke-width:1;stroke-linejoin:miter;stroke-miterlimit:10;"/><line style="stroke:#555555;stroke-width:1;" x1="194.8408" x2="194.8408" y1="763.4434" y2="798.4434"/><polygon fill="#555555" points="190.8408,788.4434,194.8408,798.4434,198.8408,788.4434,194.8408,792.4434" style="stroke:#555555;stroke-width:1;stroke-linejoin:miter;stroke-miterlimit:10;"/><line style="stroke:#555555;stroke-width:1;" x1="194.8408" x2="194.8408" y1="848.6309" y2="883.6309"/><polygon fill="#555555" points="190.8408,873.6309,194.8408,883.6309,198.8408,873.6309,194.8408,877.6309" style="stroke:#555555;stroke-width:1;stroke-linejoin:miter;stroke-miterlimit:10;"/><line style="stroke:#555555;stroke-width:1;" x1="194.8408" x2="194.8408" y1="992.8184" y2="1017.7363"/><polygon fill="#555555" points="190.8408,1007.7363,194.8408,1017.7363,198.8408,1007.7363,194.8408,1011.7363" style="stroke:#555555;stroke-width:1;stroke-linejoin:miter;stroke-miterlimit:10;"/><line style="stroke:#555555;stroke-width:1;" x1="247.7954" x2="259.7954" y1="980.8184" y2="980.8184"/><polygon fill="#555555" points="255.7954,1022.2832,259.7954,1032.2832,263.7954,1022.2832,259.7954,1026.2832" style="stroke:#555555;stroke-width:1;stroke-linejoin:miter;stroke-miterlimit:10;"/><line style="stroke:#555555;stroke-width:1;" x1="259.7954" x2="259.7954" y1="980.8184" y2="1083.748"/><line style="stroke:#555555;stroke-width:1;" x1="259.7954" x2="194.8408" y1="1083.748" y2="1083.748"/><line style="stroke:#555555;stroke-width:1;" x1="194.8408" x2="194.8408" y1="1083.748" y2="1118.748"/><polygon fill="#555555" points="190.8408,1108.748,194.8408,1118.748,198.8408,1108.748,194.8408,1112.748" style="stroke:#555555;stroke-width:1;stroke-linejoin:miter;stroke-miterlimit:10;"/><line style="stroke:#555555;stroke-width:1;" x1="194.8408" x2="194.8408" y1="933.8184" y2="968.8184"/><polygon fill="#555555" points="190.8408,958.8184,194.8408,968.8184,198.8408,958.8184,194.8408,962.8184" style="stroke:#555555;stroke-width:1;stroke-linejoin:miter;stroke-miterlimit:10;"/><line style="stroke:#555555;stroke-width:1;" x1="194.8408" x2="194.8408" y1="1153.8418" y2="1188.8418"/><polygon fill="#555555" points="190.8408,1178.8418,194.8408,1188.8418,198.8408,1178.8418,194.8408,1182.8418" style="stroke:#555555;stroke-width:1;stroke-linejoin:miter;stroke-miterlimit:10;"/><line style="stroke:#555555;stroke-width:1;" x1="528.2852" x2="528.2852" y1="347.7402" y2="382.7402"/><polygon fill="#555555" points="524.2852,372.7402,528.2852,382.7402,532.2852,372.7402,528.2852,376.7402" style="stroke:#555555;stroke-width:1;stroke-linejoin:miter;stroke-miterlimit:10;"/><line style="stroke:#555555;stroke-width:1;" x1="528.2852" x2="528.2852" y1="417.834" y2="452.834"/><polygon fill="#555555" points="524.2852,442.834,528.2852,452.834,532.2852,442.834,528.2852,446.834" style="stroke:#555555;stroke-width:1;stroke-linejoin:miter;stroke-miterlimit:10;"/><line style="stroke:#555555;stroke-width:1;" x1="528.2852" x2="528.2852" y1="487.9277" y2="522.9277"/><polygon fill="#555555" points="524.2852,512.9277,528.2852,522.9277,532.2852,512.9277,528.2852,516.9277" style="stroke:#555555;stroke-width:1;stroke-linejoin:miter;stroke-miterlimit:10;"/><line style="stroke:#555555;stroke-width:1;" x1="528.2852" x2="528.2852" y1="558.0215" y2="593.0215"/><polygon fill="#555555" points="524.2852,583.0215,528.2852,593.0215,532.2852,583.0215,528.2852,587.0215" style="stroke:#555555;stroke-width:1;stroke-linejoin:miter;stroke-miterlimit:10;"/><line style="stroke:#555555;stroke-width:1;" x1="528.2852" x2="528.2852" y1="628.1152" y2="663.1152"/><polygon fill="#555555" points="524.2852,653.1152,528.2852,663.1152,532.2852,653.1152,528.2852,657.1152" style="stroke:#555555;stroke-width:1;stroke-linejoin:miter;stroke-miterlimit:10;"/><line style="stroke:#555555;stroke-width:1;" x1="528.2852" x2="528.2852" y1="713.3027" y2="748.3027"/><polygon fill="#555555" points="524.2852,738.3027,528.2852,748.3027,532.2852,738.3027,528.2852,742.3027" style="stroke:#555555;stroke-width:1;stroke-linejoin:miter;stroke-miterlimit:10;"/><line style="stroke:#555555;stroke-width:1;" x1="528.2852" x2="528.2852" y1="798.4902" y2="833.4902"/><polygon fill="#555555" points="524.2852,823.4902,528.2852,833.4902,532.2852,823.4902,528.2852,827.4902" style="stroke:#555555;stroke-width:1;stroke-linejoin:miter;stroke-miterlimit:10;"/><line style="stroke:#555555;stroke-width:1;" x1="528.2852" x2="528.2852" y1="883.6777" y2="918.6777"/><polygon fill="#555555" points="524.2852,908.6777,528.2852,918.6777,532.2852,908.6777,528.2852,912.6777" style="stroke:#555555;stroke-width:1;stroke-linejoin:miter;stroke-miterlimit:10;"/><line style="stroke:#555555;stroke-width:1;" x1="528.2852" x2="528.2852" y1="1012.7715" y2="1037.6895"/><polygon fill="#555555" points="524.2852,1027.6895,528.2852,1037.6895,532.2852,1027.6895,528.2852,1031.6895" style="stroke:#555555;stroke-width:1;stroke-linejoin:miter;stroke-miterlimit:10;"/><line style="stroke:#555555;stroke-width:1;" x1="581.2397" x2="593.2397" y1="1000.7715" y2="1000.7715"/><polygon fill="#555555" points="589.2397,1042.2363,593.2397,1052.2363,597.2397,1042.2363,593.2397,1046.2363" style="stroke:#555555;stroke-width:1;stroke-linejoin:miter;stroke-miterlimit:10;"/><line style="stroke:#555555;stroke-width:1;" x1="593.2397" x2="593.2397" y1="1000.7715" y2="1103.7012"/><line style="stroke:#555555;stroke-width:1;" x1="593.2397" x2="528.2852" y1="1103.7012" y2="1103.7012"/><line style="stroke:#555555;stroke-width:1;" x1="528.2852" x2="528.2852" y1="1103.7012" y2="1138.7012"/><polygon fill="#555555" points="524.2852,1128.7012,528.2852,1138.7012,532.2852,1128.7012,528.2852,1132.7012" style="stroke:#555555;stroke-width:1;stroke-linejoin:miter;stroke-miterlimit:10;"/><line style="stroke:#555555;stroke-width:1;" x1="528.2852" x2="528.2852" y1="953.7715" y2="988.7715"/><polygon fill="#555555" points="524.2852,978.7715,528.2852,988.7715,532.2852,978.7715,528.2852,982.7715" style="stroke:#555555;stroke-width:1;stroke-linejoin:miter;stroke-miterlimit:10;"/><line style="stroke:#555555;stroke-width:1;" x1="861.7988" x2="861.7988" y1="467.9746" y2="502.9746"/><polygon fill="#555555" points="857.7988,492.9746,861.7988,502.9746,865.7988,492.9746,861.7988,496.9746" style="stroke:#555555;stroke-width:1;stroke-linejoin:miter;stroke-miterlimit:10;"/><line style="stroke:#555555;stroke-width:1;" x1="861.7988" x2="861.7988" y1="538.0684" y2="573.0684"/><polygon fill="#555555" points="857.7988,563.0684,861.7988,573.0684,865.7988,563.0684,861.7988,567.0684" style="stroke:#555555;stroke-width:1;stroke-linejoin:miter;stroke-miterlimit:10;"/><line style="stroke:#555555;stroke-width:1;" x1="861.7988" x2="861.7988" y1="608.1621" y2="643.1621"/><polygon fill="#555555" points="857.7988,633.1621,861.7988,643.1621,865.7988,633.1621,861.7988,637.1621" style="stroke:#555555;stroke-width:1;stroke-linejoin:miter;stroke-miterlimit:10;"/><line style="stroke:#555555;stroke-width:1;" x1="861.7988" x2="861.7988" y1="678.2559" y2="713.2559"/><polygon fill="#555555" points="857.7988,703.2559,861.7988,713.2559,865.7988,703.2559,861.7988,707.2559" style="stroke:#555555;stroke-width:1;stroke-linejoin:miter;stroke-miterlimit:10;"/><line style="stroke:#555555;stroke-width:1;" x1="861.7988" x2="861.7988" y1="763.4434" y2="798.4434"/><polygon fill="#555555" points="857.7988,788.4434,861.7988,798.4434,865.7988,788.4434,861.7988,792.4434" style="stroke:#555555;stroke-width:1;stroke-linejoin:miter;stroke-miterlimit:10;"/><line style="stroke:#555555;stroke-width:1;" x1="861.7988" x2="861.7988" y1="892.5371" y2="917.4551"/><polygon fill="#555555" points="857.7988,907.4551,861.7988,917.4551,865.7988,907.4551,861.7988,911.4551" style="stroke:#555555;stroke-width:1;stroke-linejoin:miter;stroke-miterlimit:10;"/><line style="stroke:#555555;stroke-width:1;" x1="914.7534" x2="926.7534" y1="880.5371" y2="880.5371"/><polygon fill="#555555" points="922.7534,922.002,926.7534,932.002,930.7534,922.002,926.7534,926.002" style="stroke:#555555;stroke-width:1;stroke-linejoin:miter;stroke-miterlimit:10;"/><line style="stroke:#555555;stroke-width:1;" x1="926.7534" x2="926.7534" y1="880.5371" y2="983.4668"/><line style="stroke:#555555;stroke-width:1;" x1="926.7534" x2="861.7988" y1="983.4668" y2="983.4668"/><line style="stroke:#555555;stroke-width:1;" x1="861.7988" x2="861.7988" y1="983.4668" y2="1018.4668"/><polygon fill="#555555" points="857.7988,1008.4668,861.7988,1018.4668,865.7988,1008.4668,861.7988,1012.4668" style="stroke:#555555;stroke-width:1;stroke-linejoin:miter;stroke-miterlimit:10;"/><line style="stroke:#555555;stroke-width:1;" x1="861.7988" x2="861.7988" y1="833.5371" y2="868.5371"/><polygon fill="#555555" points="857.7988,858.5371,861.7988,868.5371,865.7988,858.5371,861.7988,862.5371" style="stroke:#555555;stroke-width:1;stroke-linejoin:miter;stroke-miterlimit:10;"/><line style="stroke:#555555;stroke-width:1;" x1="194.8408" x2="194.8408" y1="197.2871" y2="262.5059"/><polygon fill="#555555" points="190.8408,252.5059,194.8408,262.5059,198.8408,252.5059,194.8408,256.5059" style="stroke:#555555;stroke-width:1;stroke-linejoin:miter;stroke-miterlimit:10;"/><line style="stroke:#555555;stroke-width:1;" x1="528.2852" x2="528.2852" y1="197.2871" y2="312.6465"/><polygon fill="#555555" points="524.2852,302.6465,528.2852,312.6465,532.2852,302.6465,528.2852,306.6465" style="stroke:#555555;stroke-width:1;stroke-linejoin:miter;stroke-miterlimit:10;"/><line style="stroke:#555555;stroke-width:1;" x1="861.7988" x2="861.7988" y1="197.2871" y2="432.8809"/><polygon fill="#555555" points="857.7988,422.8809,861.7988,432.8809,865.7988,422.8809,861.7988,426.8809" style="stroke:#555555;stroke-width:1;stroke-linejoin:miter;stroke-miterlimit:10;"/><line style="stroke:#555555;stroke-width:1;" x1="194.8408" x2="194.8408" y1="1223.9355" y2="1255.9355"/><polygon fill="#555555" points="190.8408,1245.9355,194.8408,1255.9355,198.8408,1245.9355,194.8408,1249.9355" style="stroke:#555555;stroke-width:1;stroke-linejoin:miter;stroke-miterlimit:10;"/><line style="stroke:#555555;stroke-width:1;" x1="528.2852" x2="528.2852" y1="1173.7949" y2="1255.9355"/><polygon fill="#555555" points="524.2852,1245.9355,528.2852,1255.9355,532.2852,1245.9355,528.2852,1249.9355" style="stroke:#555555;stroke-width:1;stroke-linejoin:miter;stroke-miterlimit:10;"/><line style="stroke:#555555;stroke-width:1;" x1="861.7988" x2="861.7988" y1="1053.5605" y2="1255.9355"/><polygon fill="#555555" points="857.7988,1245.9355,861.7988,1255.9355,865.7988,1245.9355,861.7988,1249.9355" style="stroke:#555555;stroke-width:1;stroke-linejoin:miter;stroke-miterlimit:10;"/><line style="stroke:#555555;stroke-width:1;" x1="528.3545" x2="528.3545" y1="166.8535" y2="191.2871"/><polygon fill="#555555" points="524.3545,181.2871,528.3545,191.2871,532.3545,181.2871,528.3545,185.2871" style="stroke:#555555;stroke-width:1;stroke-linejoin:miter;stroke-miterlimit:10;"/><line style="stroke:#555555;stroke-width:1;" x1="528.3545" x2="528.3545" y1="1261.9355" y2="1281.9355"/><polygon fill="#555555" points="524.3545,1271.9355,528.3545,1281.9355,532.3545,1271.9355,528.3545,1275.9355" style="stroke:#555555;stroke-width:1;stroke-linejoin:miter;stroke-miterlimit:10;"/><line style="stroke:#555555;stroke-width:1;" x1="245.5146" x2="245.5146" y1="1476.4355" y2="1498.2168"/><polygon fill="#555555" points="241.5146,1488.2168,245.5146,1498.2168,249.5146,1488.2168,245.5146,1492.2168" style="stroke:#555555;stroke-width:1;stroke-linejoin:miter;stroke-miterlimit:10;"/><line style="stroke:#555555;stroke-width:1;" x1="245.5146" x2="245.5146" y1="1548.4043" y2="1568.4043"/><polygon fill="#555555" points="241.5146,1558.4043,245.5146,1568.4043,249.5146,1558.4043,245.5146,1562.4043" style="stroke:#555555;stroke-width:1;stroke-linejoin:miter;stroke-miterlimit:10;"/><line style="stroke:#555555;stroke-width:1;" x1="245.5146" x2="245.5146" y1="1603.498" y2="1623.498"/><polygon fill="#555555" points="241.5146,1613.498,245.5146,1623.498,249.5146,1613.498,245.5146,1617.498" style="stroke:#555555;stroke-width:1;stroke-linejoin:miter;stroke-miterlimit:10;"/><line style="stroke:#555555;stroke-width:1;" x1="245.5146" x2="245.5146" y1="1673.6855" y2="1693.6855"/><polygon fill="#555555" points="241.5146,1683.6855,245.5146,1693.6855,249.5146,1683.6855,245.5146,1687.6855" style="stroke:#555555;stroke-width:1;stroke-linejoin:miter;stroke-miterlimit:10;"/><line style="stroke:#555555;stroke-width:1;" x1="245.5146" x2="245.5146" y1="1743.873" y2="1763.873"/><polygon fill="#555555" points="241.5146,1753.873,245.5146,1763.873,249.5146,1753.873,245.5146,1757.873" style="stroke:#555555;stroke-width:1;stroke-linejoin:miter;stroke-miterlimit:10;"/><line style="stroke:#555555;stroke-width:1;" x1="202.9478" x2="123.5469" y1="1936.6543" y2="1936.6543"/><line style="stroke:#555555;stroke-width:1;" x1="123.5469" x2="123.5469" y1="1936.6543" y2="1958.6543"/><polygon fill="#555555" points="119.5469,1948.6543,123.5469,1958.6543,127.5469,1948.6543,123.5469,1952.6543" style="stroke:#555555;stroke-width:1;stroke-linejoin:miter;stroke-miterlimit:10;"/><line style="stroke:#555555;stroke-width:1;" x1="288.0815" x2="367.4824" y1="1936.6543" y2="1936.6543"/><line style="stroke:#555555;stroke-width:1;" x1="367.4824" x2="367.4824" y1="1936.6543" y2="1958.6543"/><polygon fill="#555555" points="363.4824,1948.6543,367.4824,1958.6543,371.4824,1948.6543,367.4824,1952.6543" style="stroke:#555555;stroke-width:1;stroke-linejoin:miter;stroke-miterlimit:10;"/><line style="stroke:#555555;stroke-width:1;" x1="123.5469" x2="123.5469" y1="2008.8418" y2="2026.8418"/><line style="stroke:#555555;stroke-width:1;" x1="123.5469" x2="233.5146" y1="2026.8418" y2="2026.8418"/><polygon fill="#555555" points="223.5146,2022.8418,233.5146,2026.8418,223.5146,2030.8418,227.5146,2026.8418" style="stroke:#555555;stroke-width:1;stroke-linejoin:miter;stroke-miterlimit:10;"/><line style="stroke:#555555;stroke-width:1;" x1="367.4824" x2="367.4824" y1="2008.8418" y2="2026.8418"/><line style="stroke:#555555;stroke-width:1;" x1="367.4824" x2="257.5146" y1="2026.8418" y2="2026.8418"/><polygon fill="#555555" points="267.5146,2022.8418,257.5146,2026.8418,267.5146,2030.8418,263.5146,2026.8418" style="stroke:#555555;stroke-width:1;stroke-linejoin:miter;stroke-miterlimit:10;"/><line style="stroke:#555555;stroke-width:1;" x1="245.5146" x2="245.5146" y1="1904.623" y2="1924.6543"/><polygon fill="#555555" points="241.5146,1914.6543,245.5146,1924.6543,249.5146,1914.6543,245.5146,1918.6543" style="stroke:#555555;stroke-width:1;stroke-linejoin:miter;stroke-miterlimit:10;"/><line style="stroke:#555555;stroke-width:1;" x1="811.1943" x2="811.1943" y1="1421.2168" y2="1456.2168"/><polygon fill="#555555" points="807.1943,1446.2168,811.1943,1456.2168,815.1943,1446.2168,811.1943,1450.2168" style="stroke:#555555;stroke-width:1;stroke-linejoin:miter;stroke-miterlimit:10;"/><line style="stroke:#555555;stroke-width:1;" x1="447.865" x2="245.5146" y1="1364.123" y2="1364.123"/><line style="stroke:#555555;stroke-width:1;" x1="245.5146" x2="245.5146" y1="1364.123" y2="1441.3418"/><polygon fill="#555555" points="241.5146,1431.3418,245.5146,1441.3418,249.5146,1431.3418,245.5146,1435.3418" style="stroke:#555555;stroke-width:1;stroke-linejoin:miter;stroke-miterlimit:10;"/><line style="stroke:#555555;stroke-width:1;" x1="608.844" x2="811.1943" y1="1364.123" y2="1364.123"/><line style="stroke:#555555;stroke-width:1;" x1="811.1943" x2="811.1943" y1="1364.123" y2="1386.123"/><polygon fill="#555555" points="807.1943,1376.123,811.1943,1386.123,815.1943,1376.123,811.1943,1380.123" style="stroke:#555555;stroke-width:1;stroke-linejoin:miter;stroke-miterlimit:10;"/><line style="stroke:#555555;stroke-width:1;" x1="245.5146" x2="245.5146" y1="2038.8418" y2="2055.8418"/><line style="stroke:#555555;stroke-width:1;" x1="245.5146" x2="528.3545" y1="2055.8418" y2="2055.8418"/><line style="stroke:#555555;stroke-width:1;" x1="528.3545" x2="528.3545" y1="2055.8418" y2="2070.8418"/><polygon fill="#555555" points="524.3545,2060.8418,528.3545,2070.8418,532.3545,2060.8418,528.3545,2064.8418" style="stroke:#555555;stroke-width:1;stroke-linejoin:miter;stroke-miterlimit:10;"/><line style="stroke:#555555;stroke-width:1;" x1="528.3545" x2="528.3545" y1="1332.123" y2="1352.123"/><polygon fill="#555555" points="524.3545,1342.123,528.3545,1352.123,532.3545,1342.123,528.3545,1346.123" style="stroke:#555555;stroke-width:1;stroke-linejoin:miter;stroke-miterlimit:10;"/><?plantuml-src rLTjRzl84VwkNp6u5WTPCIdBERjd6McZo7RidjzgwPe2JN6t8aVInijTOdSfcHUalxqpIz9wiNn0lnIeR4WYTpYlppmpyj8hXE5LTtW6kSnHIOqGmKVfBui9318lZNOG_Ha-NWuV-FFixgTHg-KUfSw55Hby4CdZp9f2fqEZZ8K_N0puRqs2bIoaBrz8dbzS75zSx98qDaLRI_LwnpzEqXrI0slDiXOwEZfQaxWNralsV4FHoSd9JfaN0OJNckYjyRXBwiUp8MN2aw9M_mmNg4oE5lB2pT51Oh9CUY3H-uVFkZsnGYTqlmzJ5BwmsEtiGoQateUqUdJljAN945Wvc_iMR9V05lJcvrmhM1hxE5Lc2SkvSKYokV1pc4hboNucF1iAiibSw1ccV8Jk598qBZD5ya6PqQgaj-0mU0ET3llJwR3FdKxjLQSJjr2dmAwrMbCo7CpLkOFlEfq9POOaeaIoyaw7WcMDtVi7LbwVTZiKxarvRpb5leoTqdlVmLVI1T0NLOXTSZjvD8M7D-3G5tcK6g_HlrySdLQ2rJLOTDvOtBn9hb7a44KBj79QHjf4LVHkKsvII9L2bC03AXIEmBuKLjCNGfFT5FLaXw9v-bbBzkaJJWPvhcGYsDqByjhOakwFIImnsbFoqBhF-aydK5HF71w2r1vdDZm1xw1tq0jQtJxy--s1stksHqcotIheuE0JFLtVLMOcDRIv_pRbePQi8cedS-aef1JYs_CnMThxhBCohnCUYLpslxgv-4QA-ryhD7xxFNMPRDoU4EWLRgfxFdMLrbhJsCf52QF1mzK5j2-lFbw-6JvSZQ-6W-jzGf2E9efCIJqZPKmf5S97c1IM-Xcyc5Hwv1JQpOCm_FlvN_OOpPI44jrUa01kmEEJurv_AgIgV3wjJnwbKk4hAYflMvlg4KAXd5Pk3ij46Ord_u3HXxiRQ9ySf0GgZveZsafow8vLzh-57W0nesflTyBK4WfURuNcc7fXXVqNcDScnVUBuze9dMUGoFhYV7HDSAell4i8xDgSCykqVPbZKDLu_rT26UdyGX-HU48GlLu9xOVnTS1c8tMlHBaCX0DuY8mXQp9PPFiW2cyYbukbPduYtoprrVvdVJFwnD34HKGISvYKkN3FEFuGaD8Ww1QVVFp50J6aJWKddCfUvCg8jCOK22rK-HjbsM9kh7Sx00djL3fl3H6O8oPE4GwteDtazLLyhwFo3MmM_ty3kFyUIqAQt4LBdCoDUNm5K59FhQ3S54aOA1kF_3x8yjBFZIQOGVjjtFkXgHyj0AIKwgKKH0ZnFwdE_whFR36TGb14MiB5C-E6kusAalbjPnqhetqs63ab2MHPeRoCoDuCOO5wiKLPw_7y7nQNnsOOcAt-U6uHGMOKg2CYN5AMQSJEvecDfUagESLeHQtK53FCY8oeXbJnfQG-enGve1HGaqHr8bPvQ764zxnsf3p7UOhp3Ayd-7Qu6p2hDe80B4yyC4DBEjPs0jRLRHQK5tXgoYndaZ1Z4XIwMmrp6js9L-yNXwJOOKBaseUpguzNuy7rtV1ySFlBO3Wy7ur-6T_zT7xRm4_ynZ2k43f7bT7WX_RYRNnu41-iiR9Ny5XCqDA8vZrB5OxN7hv5KtWgP-340ZUGLClKAf8KM7jt9G3VVnzkKSfogXhgf8GYJuN7q71AkQ2UQvGX9RDm35hgXEEZ-73bMr1Hv3GPYQMYgEcaDJjnTyiopS58Ymo9QHDSbwIkihGeukgKHOKdUcRUNmh9dUTbXjpNlOECZobra1ldPxGXnQZ5XDQ1TrD1m6rEwtKi3b2C2LNl_ZYw73Id3PE-Slmyz5yv3mtxgUhNBP4gGnlxBRz-tUtjh_n3WrAHGk7GrRATpjaTt8JcIE6-UcxqjslQLzjZMju4qn5NQ24TkOZfNjF1l0XBtO00HfxIEYtKA6nuMQxe4YIDgKUPvvZ6hSQt9jt16oO6ijjKb-OHWOApoLr25kg7SeiBQGfQrwljCeQRvptgYvbKYxUW_vLyrEYyPFXSKkvEcRAelcoJDiLwaRTDqjPiCpTm_RqfQFtJCn1vJWX8NToGLBMuDpGOJE0JwJxOnOBzC-aI-ia4DUb2snL9GeENYBaEY4V8ND1xM7_3AD3myyFrwGwEND7g2xqS6ZNxtXgemyR1iL6QcyHkf_DqWtk9OjVizKVUv22cNEFX5KlIhuIyLGct-Fj_0000?></g></svg>