<svg xmlns="http://www.w3.org/2000/svg" xmlns:xlink="http://www.w3.org/1999/xlink" contentStyleType="text/css" data-diagram-type="SEQUENCE" height="869px" preserveAspectRatio="none" style="width:2742px;height:869px;background:#FAFAFA;" version="1.1" viewBox="0 0 2742 869" width="2742px" zoomAndPan="magnify"><?plantuml 1.2026.5?><defs/><g><rect fill="#FAFAFA" height="869" style="stroke:none;stroke-width:1;" width="2742" x="0" y="0"/><g class="title" data-source-line="1"><text fill="#000000" font-family="sans-serif" font-size="14" font-weight="700" lengthAdjust="spacing" textLength="435.5859" x="1149.761" y="29.5332">SignalR notification push - tenant learns of payment confirmation</text></g><g class="participant-lifeline" data-entity-uid="part1" data-qualified-name="mq" data-source-line="6" id="part1-lifeline"><g><title>RabbitMQ</title><rect fill="#000000" fill-opacity="0.00000" height="657.7344" width="8" x="71.252" y="124.8281"/><line style="stroke:#181818;stroke-width:0.5;stroke-dasharray:5,5;" x1="75" x2="75" y1="124.8281" y2="782.5625"/></g></g><g class="participant-lifeline" data-entity-uid="part2" data-qualified-name="consumer" data-source-line="7" id="part2-lifeline"><g><title>PaymentConfirmedConsumer</title><rect fill="#000000" fill-opacity="0.00000" height="657.7344" width="8" x="292.8999" y="124.8281"/><line style="stroke:#181818;stroke-width:0.5;stroke-dasharray:5,5;" x1="296.6968" x2="296.6968" y1="124.8281" y2="782.5625"/></g></g><g class="participant-lifeline" data-entity-uid="part3" data-qualified-name="jobq" data-source-line="8" id="part3-lifeline"><g><title>IBackgroundJobQueue</title><rect fill="#000000" fill-opacity="0.00000" height="657.7344" width="8" x="664.5239" y="124.8281"/><line style="stroke:#181818;stroke-width:0.5;stroke-dasharray:5,5;" x1="667.9175" x2="667.9175" y1="124.8281" y2="782.5625"/></g></g><g class="participant-lifeline" data-entity-uid="part4" data-qualified-name="hf" data-source-line="9" id="part4-lifeline"><g><title>Hangfire server</title><rect fill="#000000" fill-opacity="0.00000" height="657.7344" width="8" x="936.6294" y="124.8281"/><line style="stroke:#181818;stroke-width:0.5;stroke-dasharray:5,5;" x1="939.7778" x2="939.7778" y1="124.8281" y2="782.5625"/></g></g><g class="participant-lifeline" data-entity-uid="part5" data-qualified-name="emailjob" data-source-line="10" id="part5-lifeline"><g><title>SendEmailJob</title><rect fill="#000000" fill-opacity="0.00000" height="657.7344" width="8" x="1146.7119" y="124.8281"/><line style="stroke:#181818;stroke-width:0.5;stroke-dasharray:5,5;" x1="1150.6001" x2="1150.6001" y1="124.8281" y2="782.5625"/></g></g><g class="participant-lifeline" data-entity-uid="part6" data-qualified-name="smtp" data-source-line="11" id="part6-lifeline"><g><title>SMTP</title><rect fill="#000000" fill-opacity="0.00000" height="657.7344" width="8" x="1407.2837" y="124.8281"/><line style="stroke:#181818;stroke-width:0.5;stroke-dasharray:5,5;" x1="1410.8389" x2="1410.8389" y1="124.8281" y2="782.5625"/></g></g><g class="participant-lifeline" data-entity-uid="part7" data-qualified-name="dispatcher" data-source-line="12" id="part7-lifeline"><g><title>INotificationDispatcher</title><rect fill="#000000" fill-opacity="0.00000" height="657.7344" width="8" x="1550.9902" y="124.8281"/><line style="stroke:#181818;stroke-width:0.5;stroke-dasharray:5,5;" x1="1554.7285" x2="1554.7285" y1="124.8281" y2="782.5625"/></g></g><g class="participant-lifeline" data-entity-uid="part8" data-qualified-name="hub" data-source-line="13" id="part8-lifeline"><g><title>NotificationsHub</title><rect fill="#000000" fill-opacity="0.00000" height="657.7344" width="8" x="1831.0112" y="124.8281"/><line style="stroke:#181818;stroke-width:0.5;stroke-dasharray:5,5;" x1="1834.0425" x2="1834.0425" y1="124.8281" y2="782.5625"/></g></g><g class="participant-lifeline" data-entity-uid="part9" data-qualified-name="redis" data-source-line="14" id="part9-lifeline"><g><title>Redis backplane</title><rect fill="#000000" fill-opacity="0.00000" height="657.7344" width="8" x="2147.3154" y="124.8281"/><line style="stroke:#181818;stroke-width:0.5;stroke-dasharray:5,5;" x1="2150.4048" x2="2150.4048" y1="124.8281" y2="782.5625"/></g></g><g class="participant-lifeline" data-entity-uid="part10" data-qualified-name="browser" data-source-line="15" id="part10-lifeline"><g><title>Browser .Tenant.</title><rect fill="#000000" fill-opacity="0.00000" height="657.7344" width="8" x="2286.2983" y="124.8281"/><line style="stroke:#181818;stroke-width:0.5;stroke-dasharray:5,5;" x1="2290.2261" x2="2290.2261" y1="124.8281" y2="782.5625"/></g></g><g class="participant-lifeline" data-entity-uid="part11" data-qualified-name="tq" data-source-line="16" id="part11-lifeline"><g><title>TanStack Query</title><rect fill="#000000" fill-opacity="0.00000" height="657.7344" width="8" x="2669.5322" y="124.8281"/><line style="stroke:#181818;stroke-width:0.5;stroke-dasharray:5,5;" x1="2672.9565" x2="2672.9565" y1="124.8281" y2="782.5625"/></g></g><g class="participant participant-head" data-entity-uid="part1" data-qualified-name="mq" data-source-line="6" id="part1-head"><path d="M10,79.6094 L140.5039,79.6094 C145.5039,79.6094 145.5039,102.2188 145.5039,102.2188 C145.5039,102.2188 145.5039,124.8281 140.5039,124.8281 L10,124.8281 C5,124.8281 5,102.2188 5,102.2188 C5,102.2188 5,79.6094 10,79.6094" fill="#E2E2F0" style="stroke:#181818;stroke-width:0.5;"/><path d="M140.5039,79.6094 C135.5039,79.6094 135.5039,102.2188 135.5039,102.2188 C135.5039,124.8281 140.5039,124.8281 140.5039,124.8281" fill="none" style="stroke:#181818;stroke-width:0.5;"/><text fill="#000000" font-family="sans-serif" font-size="14" lengthAdjust="spacing" textLength="63.0205" x="38.7417" y="99.1426">RabbitMQ</text><text fill="#000000" font-family="sans-serif" font-size="14" lengthAdjust="spacing" textLength="120.5039" x="10" y="116.752">'myproperty.events'</text></g><g class="participant participant-tail" data-entity-uid="part1" data-qualified-name="mq" data-source-line="6" id="part1-tail"><path d="M10,781.5625 L140.5039,781.5625 C145.5039,781.5625 145.5039,804.1719 145.5039,804.1719 C145.5039,804.1719 145.5039,826.7813 140.5039,826.7813 L10,826.7813 C5,826.7813 5,804.1719 5,804.1719 C5,804.1719 5,781.5625 10,781.5625" fill="#E2E2F0" style="stroke:#181818;stroke-width:0.5;"/><path d="M140.5039,781.5625 C135.5039,781.5625 135.5039,804.1719 135.5039,804.1719 C135.5039,826.7813 140.5039,826.7813 140.5039,826.7813" fill="none" style="stroke:#181818;stroke-width:0.5;"/><text fill="#000000" font-family="sans-serif" font-size="14" lengthAdjust="spacing" textLength="63.0205" x="38.7417" y="801.0957">RabbitMQ</text><text fill="#000000" font-family="sans-serif" font-size="14" lengthAdjust="spacing" textLength="120.5039" x="10" y="818.7051">'myproperty.events'</text></g><g class="participant participant-head" data-entity-uid="part2" data-qualified-name="consumer" data-source-line="7" id="part2-head"><rect fill="#E2E2F0" height="49.2188" rx="2.5" ry="2.5" style="stroke:#181818;stroke-width:0.5;" width="198.4063" x="197.6968" y="74.6094"/><text fill="#000000" font-family="sans-serif" font-size="14" lengthAdjust="spacing" textLength="184.4063" x="204.6968" y="96.1426">PaymentConfirmedConsumer</text><text fill="#000000" font-family="sans-serif" font-size="14" lengthAdjust="spacing" textLength="140.834" x="226.4829" y="113.752">(hosted service in API)</text></g><g class="participant participant-tail" data-entity-uid="part2" data-qualified-name="consumer" data-source-line="7" id="part2-tail"><rect fill="#E2E2F0" height="49.2188" rx="2.5" ry="2.5" style="stroke:#181818;stroke-width:0.5;" width="198.4063" x="197.6968" y="781.5625"/><text fill="#000000" font-family="sans-serif" font-size="14" lengthAdjust="spacing" textLength="184.4063" x="204.6968" y="803.0957">PaymentConfirmedConsumer</text><text fill="#000000" font-family="sans-serif" font-size="14" lengthAdjust="spacing" textLength="140.834" x="226.4829" y="820.7051">(hosted service in API)</text></g><g class="participant participant-head" data-entity-uid="part3" data-qualified-name="jobq" data-source-line="8" id="part3-head"><rect fill="#E2E2F0" height="49.2188" rx="2.5" ry="2.5" style="stroke:#181818;stroke-width:0.5;" width="157.2129" x="589.9175" y="74.6094"/><text fill="#000000" font-family="sans-serif" font-size="14" lengthAdjust="spacing" textLength="143.2129" x="596.9175" y="96.1426">IBackgroundJobQueue</text><text fill="#000000" font-family="sans-serif" font-size="14" lengthAdjust="spacing" textLength="62.2412" x="637.4033" y="113.752">(Hangfire)</text></g><g class="participant participant-tail" data-entity-uid="part3" data-qualified-name="jobq" data-source-line="8" id="part3-tail"><rect fill="#E2E2F0" height="49.2188" rx="2.5" ry="2.5" style="stroke:#181818;stroke-width:0.5;" width="157.2129" x="589.9175" y="781.5625"/><text fill="#000000" font-family="sans-serif" font-size="14" lengthAdjust="spacing" textLength="143.2129" x="596.9175" y="803.0957">IBackgroundJobQueue</text><text fill="#000000" font-family="sans-serif" font-size="14" lengthAdjust="spacing" textLength="62.2412" x="637.4033" y="820.7051">(Hangfire)</text></g><g class="participant participant-head" data-entity-uid="part4" data-qualified-name="hf" data-source-line="9" id="part4-head"><rect fill="#E2E2F0" height="31.6094" rx="2.5" ry="2.5" style="stroke:#181818;stroke-width:0.5;" width="109.7031" x="885.7778" y="92.2188"/><text fill="#000000" font-family="sans-serif" font-size="14" lengthAdjust="spacing" textLength="95.7031" x="892.7778" y="113.752">Hangfire server</text></g><g class="participant participant-tail" data-entity-uid="part4" data-qualified-name="hf" data-source-line="9" id="part4-tail"><rect fill="#E2E2F0" height="31.6094" rx="2.5" ry="2.5" style="stroke:#181818;stroke-width:0.5;" width="109.7031" x="885.7778" y="781.5625"/><text fill="#000000" font-family="sans-serif" font-size="14" lengthAdjust="spacing" textLength="95.7031" x="892.7778" y="803.0957">Hangfire server</text></g><g class="participant participant-head" data-entity-uid="part5" data-qualified-name="emailjob" data-source-line="10" id="part5-head"><rect fill="#E2E2F0" height="49.2188" rx="2.5" ry="2.5" style="stroke:#181818;stroke-width:0.5;" width="148.2236" x="1076.6001" y="74.6094"/><text fill="#000000" font-family="sans-serif" font-size="14" lengthAdjust="spacing" textLength="90.2754" x="1105.5742" y="96.1426">SendEmailJob</text><text fill="#000000" font-family="sans-serif" font-size="14" lengthAdjust="spacing" textLength="134.2236" x="1083.6001" y="113.752">+ MailKitEmailSender</text></g><g class="participant participant-tail" data-entity-uid="part5" data-qualified-name="emailjob" data-source-line="10" id="part5-tail"><rect fill="#E2E2F0" height="49.2188" rx="2.5" ry="2.5" style="stroke:#181818;stroke-width:0.5;" width="148.2236" x="1076.6001" y="781.5625"/><text fill="#000000" font-family="sans-serif" font-size="14" lengthAdjust="spacing" textLength="90.2754" x="1105.5742" y="803.0957">SendEmailJob</text><text fill="#000000" font-family="sans-serif" font-size="14" lengthAdjust="spacing" textLength="134.2236" x="1083.6001" y="820.7051">+ MailKitEmailSender</text></g><g class="participant participant-head" data-entity-uid="part6" data-qualified-name="smtp" data-source-line="11" id="part6-head"><path d="M1386.8389,97.2188 L1435.7285,97.2188 C1440.7285,97.2188 1440.7285,111.0234 1440.7285,111.0234 C1440.7285,111.0234 1440.7285,124.8281 1435.7285,124.8281 L1386.8389,124.8281 C1381.8389,124.8281 1381.8389,111.0234 1381.8389,111.0234 C1381.8389,111.0234 1381.8389,97.2188 1386.8389,97.2188" fill="#E2E2F0" style="stroke:#181818;stroke-width:0.5;"/><path d="M1435.7285,97.2188 C1430.7285,97.2188 1430.7285,111.0234 1430.7285,111.0234 C1430.7285,124.8281 1435.7285,124.8281 1435.7285,124.8281" fill="none" style="stroke:#181818;stroke-width:0.5;"/><text fill="#000000" font-family="sans-serif" font-size="14" lengthAdjust="spacing" textLength="38.8896" x="1386.8389" y="116.752">SMTP</text></g><g class="participant participant-tail" data-entity-uid="part6" data-qualified-name="smtp" data-source-line="11" id="part6-tail"><path d="M1386.8389,781.5625 L1435.7285,781.5625 C1440.7285,781.5625 1440.7285,795.3672 1440.7285,795.3672 C1440.7285,795.3672 1440.7285,809.1719 1435.7285,809.1719 L1386.8389,809.1719 C1381.8389,809.1719 1381.8389,795.3672 1381.8389,795.3672 C1381.8389,795.3672 1381.8389,781.5625 1386.8389,781.5625" fill="#E2E2F0" style="stroke:#181818;stroke-width:0.5;"/><path d="M1435.7285,781.5625 C1430.7285,781.5625 1430.7285,795.3672 1430.7285,795.3672 C1430.7285,809.1719 1435.7285,809.1719 1435.7285,809.1719" fill="none" style="stroke:#181818;stroke-width:0.5;"/><text fill="#000000" font-family="sans-serif" font-size="14" lengthAdjust="spacing" textLength="38.8896" x="1386.8389" y="801.0957">SMTP</text></g><g class="participant participant-head" data-entity-uid="part7" data-qualified-name="dispatcher" data-source-line="12" id="part7-head"><rect fill="#E2E2F0" height="49.2188" rx="2.5" ry="2.5" style="stroke:#181818;stroke-width:0.5;" width="208.5234" x="1450.7285" y="74.6094"/><text fill="#000000" font-family="sans-serif" font-size="14" lengthAdjust="spacing" textLength="140.0615" x="1484.9595" y="96.1426">INotificationDispatcher</text><text fill="#000000" font-family="sans-serif" font-size="14" lengthAdjust="spacing" textLength="194.5234" x="1457.7285" y="113.752">(SignalRNotificationDispatcher)</text></g><g class="participant participant-tail" data-entity-uid="part7" data-qualified-name="dispatcher" data-source-line="12" id="part7-tail"><rect fill="#E2E2F0" height="49.2188" rx="2.5" ry="2.5" style="stroke:#181818;stroke-width:0.5;" width="208.5234" x="1450.7285" y="781.5625"/><text fill="#000000" font-family="sans-serif" font-size="14" lengthAdjust="spacing" textLength="140.0615" x="1484.9595" y="803.0957">INotificationDispatcher</text><text fill="#000000" font-family="sans-serif" font-size="14" lengthAdjust="spacing" textLength="194.5234" x="1457.7285" y="820.7051">(SignalRNotificationDispatcher)</text></g><g class="participant participant-head" data-entity-uid="part8" data-qualified-name="hub" data-source-line="13" id="part8-head"><rect fill="#E2E2F0" height="49.2188" rx="2.5" ry="2.5" style="stroke:#181818;stroke-width:0.5;" width="115.9375" x="1777.0425" y="74.6094"/><text fill="#000000" font-family="sans-serif" font-size="14" lengthAdjust="spacing" textLength="101.9375" x="1784.0425" y="96.1426">NotificationsHub</text><text fill="#000000" font-family="sans-serif" font-size="14" lengthAdjust="spacing" textLength="87.1445" x="1791.439" y="113.752">(IHubContext)</text></g><g class="participant participant-tail" data-entity-uid="part8" data-qualified-name="hub" data-source-line="13" id="part8-tail"><rect fill="#E2E2F0" height="49.2188" rx="2.5" ry="2.5" style="stroke:#181818;stroke-width:0.5;" width="115.9375" x="1777.0425" y="781.5625"/><text fill="#000000" font-family="sans-serif" font-size="14" lengthAdjust="spacing" textLength="101.9375" x="1784.0425" y="803.0957">NotificationsHub</text><text fill="#000000" font-family="sans-serif" font-size="14" lengthAdjust="spacing" textLength="87.1445" x="1791.439" y="820.7051">(IHubContext)</text></g><g class="participant participant-head" data-entity-uid="part9" data-qualified-name="redis" data-source-line="14" id="part9-head"><text fill="#000000" font-family="sans-serif" font-size="14" lengthAdjust="spacing" textLength="103.5098" x="2096.5605" y="104.1426">Redis backplane</text><text fill="#000000" font-family="sans-serif" font-size="14" lengthAdjust="spacing" textLength="129.8213" x="2083.4048" y="121.752">('myproperty.signalr')</text><path d="M2133.3154,53.6094 C2133.3154,43.6094 2151.3154,43.6094 2151.3154,43.6094 C2151.3154,43.6094 2169.3154,43.6094 2169.3154,53.6094 L2169.3154,79.6094 C2169.3154,89.6094 2151.3154,89.6094 2151.3154,89.6094 C2151.3154,89.6094 2133.3154,89.6094 2133.3154,79.6094 L2133.3154,53.6094" fill="#E2E2F0" style="stroke:#181818;stroke-width:0.5;"/><path d="M2133.3154,53.6094 C2133.3154,63.6094 2151.3154,63.6094 2151.3154,63.6094 C2151.3154,63.6094 2169.3154,63.6094 2169.3154,53.6094" fill="none" style="stroke:#181818;stroke-width:0.5;"/></g><g class="participant participant-tail" data-entity-uid="part9" data-qualified-name="redis" data-source-line="14" id="part9-tail"><text fill="#000000" font-family="sans-serif" font-size="14" lengthAdjust="spacing" textLength="103.5098" x="2096.5605" y="796.0957">Redis backplane</text><text fill="#000000" font-family="sans-serif" font-size="14" lengthAdjust="spacing" textLength="129.8213" x="2083.4048" y="813.7051">('myproperty.signalr')</text><path d="M2133.3154,826.7813 C2133.3154,816.7813 2151.3154,816.7813 2151.3154,816.7813 C2151.3154,816.7813 2169.3154,816.7813 2169.3154,826.7813 L2169.3154,852.7813 C2169.3154,862.7813 2151.3154,862.7813 2151.3154,862.7813 C2151.3154,862.7813 2133.3154,862.7813 2133.3154,852.7813 L2133.3154,826.7813" fill="#E2E2F0" style="stroke:#181818;stroke-width:0.5;"/><path d="M2133.3154,826.7813 C2133.3154,836.7813 2151.3154,836.7813 2151.3154,836.7813 C2151.3154,836.7813 2169.3154,836.7813 2169.3154,826.7813" fill="none" style="stroke:#181818;stroke-width:0.5;"/></g><g class="participant participant-head" data-entity-uid="part10" data-qualified-name="browser" data-source-line="15" id="part10-head"><rect fill="#E2E2F0" height="31.6094" rx="2.5" ry="2.5" style="stroke:#181818;stroke-width:0.5;" width="122.1445" x="2229.2261" y="92.2188"/><text fill="#000000" font-family="sans-serif" font-size="14" lengthAdjust="spacing" textLength="108.1445" x="2236.2261" y="113.752">Browser (Tenant)</text></g><g class="participant participant-tail" data-entity-uid="part10" data-qualified-name="browser" data-source-line="15" id="part10-tail"><rect fill="#E2E2F0" height="31.6094" rx="2.5" ry="2.5" style="stroke:#181818;stroke-width:0.5;" width="122.1445" x="2229.2261" y="781.5625"/><text fill="#000000" font-family="sans-serif" font-size="14" lengthAdjust="spacing" textLength="108.1445" x="2236.2261" y="803.0957">Browser (Tenant)</text></g><g class="participant participant-head" data-entity-uid="part11" data-qualified-name="tq" data-source-line="16" id="part11-head"><rect fill="#E2E2F0" height="31.6094" rx="2.5" ry="2.5" style="stroke:#181818;stroke-width:0.5;" width="115.1514" x="2615.9565" y="92.2188"/><text fill="#000000" font-family="sans-serif" font-size="14" lengthAdjust="spacing" textLength="101.1514" x="2622.9565" y="113.752">TanStack Query</text></g><g class="participant participant-tail" data-entity-uid="part11" data-qualified-name="tq" data-source-line="16" id="part11-tail"><rect fill="#E2E2F0" height="31.6094" rx="2.5" ry="2.5" style="stroke:#181818;stroke-width:0.5;" width="115.1514" x="2615.9565" y="781.5625"/><text fill="#000000" font-family="sans-serif" font-size="14" lengthAdjust="spacing" textLength="101.1514" x="2622.9565" y="803.0957">TanStack Query</text></g><g class="message" data-entity-1="part1" data-entity-2="part2" data-source-line="20" id="msg1"><polygon fill="#181818" points="284.8999,169.5313,294.8999,173.5313,284.8999,177.5313,288.8999,173.5313" style="stroke:#181818;stroke-width:1;stroke-linejoin:miter;stroke-miterlimit:10;"/><line style="stroke:#181818;stroke-width:1;" x1="75.252" x2="290.8999" y1="173.5313" y2="173.5313"/><text fill="#000000" font-family="sans-serif" font-size="13" font-weight="700" lengthAdjust="spacing" textLength="7.23" x="87.252" y="160.499">1</text><text fill="#000000" font-family="sans-serif" font-size="13" lengthAdjust="spacing" textLength="186.418" x="98.4819" y="152.3232">deliver PaymentConfirmedEvent</text><text fill="#000000" font-family="sans-serif" font-size="13" lengthAdjust="spacing" textLength="181.3652" x="101.0083" y="168.6748">routing key: payment.confirmed</text></g><rect fill="#EEEEEE" height="3" style="stroke:#EEEEEE;stroke-width:1;" width="2736.1079" x="0" y="202.707"/><line style="stroke:#000000;stroke-width:1;" x1="0" x2="2736.1079" y1="202.707" y2="202.707"/><line style="stroke:#000000;stroke-width:1;" x1="0" x2="2736.1079" y1="205.707" y2="205.707"/><rect fill="#EEEEEE" height="24.3516" style="stroke:#000000;stroke-width:2;" width="212.6626" x="1261.7227" y="191.5313"/><text fill="#000000" font-family="sans-serif" font-size="13" font-weight="700" lengthAdjust="spacing" textLength="195.0508" x="1267.7227" y="209.0264">Side effect 1 - durable email job</text><g class="message" data-entity-1="part2" data-entity-2="part3" data-source-line="23" id="msg2"><polygon fill="#181818" points="656.5239,244.2344,666.5239,248.2344,656.5239,252.2344,660.5239,248.2344" style="stroke:#181818;stroke-width:1;stroke-linejoin:miter;stroke-miterlimit:10;"/><line style="stroke:#181818;stroke-width:1;" x1="296.8999" x2="662.5239" y1="248.2344" y2="248.2344"/><text fill="#000000" font-family="sans-serif" font-size="13" font-weight="700" lengthAdjust="spacing" textLength="7.23" x="308.8999" y="243.3779">2</text><text fill="#000000" font-family="sans-serif" font-size="13" lengthAdjust="spacing" textLength="336.394" x="320.1299" y="243.3779">EnqueueEmail(EmailMessage { to=tenant, subject, body })</text></g><g class="message" data-entity-1="part3" data-entity-2="part4" data-source-line="24" id="msg3"><polygon fill="#181818" points="928.6294,274.5859,938.6294,278.5859,928.6294,282.5859,932.6294,278.5859" style="stroke:#181818;stroke-width:1;stroke-linejoin:miter;stroke-miterlimit:10;"/><line style="stroke:#181818;stroke-width:1;" x1="668.5239" x2="934.6294" y1="278.5859" y2="278.5859"/><text fill="#000000" font-family="sans-serif" font-size="13" font-weight="700" lengthAdjust="spacing" textLength="7.23" x="680.5239" y="273.7295">3</text><text fill="#000000" font-family="sans-serif" font-size="13" lengthAdjust="spacing" textLength="236.8755" x="691.7539" y="273.7295">enqueue SendEmailJob (queue "emails")</text></g><g class="message" data-entity-1="part4" data-entity-2="part5" data-source-line="25" id="msg4"><polygon fill="#181818" points="1138.7119,304.9375,1148.7119,308.9375,1138.7119,312.9375,1142.7119,308.9375" style="stroke:#181818;stroke-width:1;stroke-linejoin:miter;stroke-miterlimit:10;"/><line style="stroke:#181818;stroke-width:1;" x1="940.6294" x2="1144.7119" y1="308.9375" y2="308.9375"/><text fill="#000000" font-family="sans-serif" font-size="13" font-weight="700" lengthAdjust="spacing" textLength="7.23" x="952.6294" y="304.0811">4</text><text fill="#000000" font-family="sans-serif" font-size="13" lengthAdjust="spacing" textLength="174.8525" x="963.8594" y="304.0811">execute (retry x5, exp backoff)</text></g><g class="message" data-entity-1="part5" data-entity-2="part6" data-source-line="26" id="msg5"><polygon fill="#181818" points="1399.2837,335.2891,1409.2837,339.2891,1399.2837,343.2891,1403.2837,339.2891" style="stroke:#181818;stroke-width:1;stroke-linejoin:miter;stroke-miterlimit:10;"/><line style="stroke:#181818;stroke-width:1;" x1="1150.7119" x2="1405.2837" y1="339.2891" y2="339.2891"/><text fill="#000000" font-family="sans-serif" font-size="13" font-weight="700" lengthAdjust="spacing" textLength="7.23" x="1162.7119" y="334.4326">5</text><text fill="#000000" font-family="sans-serif" font-size="13" lengthAdjust="spacing" textLength="225.3418" x="1173.9419" y="334.4326">SMTP MAIL FROM / RCPT TO / DATA</text></g><g class="message" data-entity-1="part6" data-entity-2="part5" data-source-line="27" id="msg6"><polygon fill="#181818" points="1161.7119,365.6406,1151.7119,369.6406,1161.7119,373.6406,1157.7119,369.6406" style="stroke:#181818;stroke-width:1;stroke-linejoin:miter;stroke-miterlimit:10;"/><line style="stroke:#181818;stroke-width:1;stroke-dasharray:2,2;" x1="1155.7119" x2="1410.2837" y1="369.6406" y2="369.6406"/><text fill="#000000" font-family="sans-serif" font-size="13" font-weight="700" lengthAdjust="spacing" textLength="7.23" x="1253.3406" y="364.7842">6</text><text fill="#000000" font-family="sans-serif" font-size="13" lengthAdjust="spacing" textLength="44.0845" x="1264.5706" y="364.7842">250 OK</text></g><path d="M1021,382.6406 L1021,424.6406 L1280,424.6406 L1280,392.6406 L1270,382.6406 L1021,382.6406" fill="#FFFFE0" style="stroke:#181818;stroke-width:0.5;"/><path d="M1270,382.6406 L1270,392.6406 L1280,392.6406 L1270,382.6406" fill="#FFFFE0" style="stroke:#181818;stroke-width:0.5;"/><text fill="#000000" font-family="sans-serif" font-size="13" lengthAdjust="spacing" textLength="238.0879" x="1027" y="401.1357">On final exhaustion -&gt; Hangfire DLQ filter</text><text fill="#000000" font-family="sans-serif" font-size="13" lengthAdjust="spacing" textLength="233.3843" x="1027" y="417.4873">inserts a row into the FailedEmails table.</text><rect fill="#EEEEEE" height="3" style="stroke:#EEEEEE;stroke-width:1;" width="2736.1079" x="0" y="451.5195"/><line style="stroke:#000000;stroke-width:1;" x1="0" x2="2736.1079" y1="451.5195" y2="451.5195"/><line style="stroke:#000000;stroke-width:1;" x1="0" x2="2736.1079" y1="454.5195" y2="454.5195"/><rect fill="#EEEEEE" height="24.3516" style="stroke:#000000;stroke-width:2;" width="211.2153" x="1262.4463" y="440.3438"/><text fill="#000000" font-family="sans-serif" font-size="13" font-weight="700" lengthAdjust="spacing" textLength="193.6035" x="1268.4463" y="457.8389">Side effect 2 - real-time UI push</text><g class="message" data-entity-1="part2" data-entity-2="part7" data-source-line="34" id="msg7"><polygon fill="#181818" points="1542.9902,509.3984,1552.9902,513.3984,1542.9902,517.3984,1546.9902,513.3984" style="stroke:#181818;stroke-width:1;stroke-linejoin:miter;stroke-miterlimit:10;"/><line style="stroke:#181818;stroke-width:1;" x1="296.8999" x2="1548.9902" y1="513.3984" y2="513.3984"/><text fill="#000000" font-family="sans-serif" font-size="13" font-weight="700" lengthAdjust="spacing" textLength="7.23" x="777.7078" y="500.3662">7</text><text fill="#000000" font-family="sans-serif" font-size="13" lengthAdjust="spacing" textLength="177.6265" x="842.7468" y="492.1904">PushAsync("tenant:{tenantId}",</text><text fill="#000000" font-family="sans-serif" font-size="13" lengthAdjust="spacing" textLength="285.2446" x="788.9377" y="508.542">"PaymentConfirmed", { paymentId, confirmedAt })</text></g><g class="message" data-entity-1="part7" data-entity-2="part8" data-source-line="35" id="msg8"><polygon fill="#181818" points="1823.0112,539.75,1833.0112,543.75,1823.0112,547.75,1827.0112,543.75" style="stroke:#181818;stroke-width:1;stroke-linejoin:miter;stroke-miterlimit:10;"/><line style="stroke:#181818;stroke-width:1;" x1="1554.9902" x2="1829.0112" y1="543.75" y2="543.75"/><text fill="#000000" font-family="sans-serif" font-size="13" font-weight="700" lengthAdjust="spacing" textLength="7.23" x="1566.9902" y="538.8936">8</text><text fill="#000000" font-family="sans-serif" font-size="13" lengthAdjust="spacing" textLength="244.791" x="1578.2202" y="538.8936">Clients.Group("tenant:{id}").SendAsync(...)</text></g><g class="message" data-entity-1="part8" data-entity-2="part9" data-source-line="36" id="msg9"><polygon fill="#181818" points="2139.3154,570.1016,2149.3154,574.1016,2139.3154,578.1016,2143.3154,574.1016" style="stroke:#181818;stroke-width:1;stroke-linejoin:miter;stroke-miterlimit:10;"/><line style="stroke:#181818;stroke-width:1;" x1="1835.0112" x2="2145.3154" y1="574.1016" y2="574.1016"/><text fill="#000000" font-family="sans-serif" font-size="13" font-weight="700" lengthAdjust="spacing" textLength="7.23" x="1847.0112" y="569.2451">9</text><text fill="#000000" font-family="sans-serif" font-size="13" lengthAdjust="spacing" textLength="281.0742" x="1858.2412" y="569.2451">PUBLISH (Redis pub/sub fanout across replicas)</text></g><g class="message" data-entity-1="part9" data-entity-2="part8" data-source-line="37" id="msg10"><polygon fill="#181818" points="1846.0112,600.4531,1836.0112,604.4531,1846.0112,608.4531,1842.0112,604.4531" style="stroke:#181818;stroke-width:1;stroke-linejoin:miter;stroke-miterlimit:10;"/><line style="stroke:#181818;stroke-width:1;" x1="1840.0112" x2="2150.3154" y1="604.4531" y2="604.4531"/><text fill="#000000" font-family="sans-serif" font-size="13" font-weight="700" lengthAdjust="spacing" textLength="14.46" x="1884.2053" y="599.5967">10</text><text fill="#000000" font-family="sans-serif" font-size="13" lengthAdjust="spacing" textLength="199.4561" x="1902.6653" y="599.5967">broadcast to all backend instances</text></g><g class="message" data-entity-1="part8" data-entity-2="part10" data-source-line="38" id="msg11"><polygon fill="#181818" points="2278.2983,630.8047,2288.2983,634.8047,2278.2983,638.8047,2282.2983,634.8047" style="stroke:#181818;stroke-width:1;stroke-linejoin:miter;stroke-miterlimit:10;"/><line style="stroke:#181818;stroke-width:1;" x1="1835.0112" x2="2284.2983" y1="634.8047" y2="634.8047"/><text fill="#000000" font-family="sans-serif" font-size="13" font-weight="700" lengthAdjust="spacing" textLength="14.46" x="1942.5217" y="629.9482">11</text><text fill="#000000" font-family="sans-serif" font-size="13" lengthAdjust="spacing" textLength="221.8062" x="1960.9817" y="629.9482">WebSocket frame: PaymentConfirmed</text></g><g class="message" data-entity-1="part10" data-entity-2="part11" data-source-line="39" id="msg12"><polygon fill="#181818" points="2661.5322,661.1563,2671.5322,665.1563,2661.5322,669.1563,2665.5322,665.1563" style="stroke:#181818;stroke-width:1;stroke-linejoin:miter;stroke-miterlimit:10;"/><line style="stroke:#181818;stroke-width:1;" x1="2290.2983" x2="2667.5322" y1="665.1563" y2="665.1563"/><text fill="#000000" font-family="sans-serif" font-size="13" font-weight="700" lengthAdjust="spacing" textLength="14.46" x="2302.2983" y="660.2998">12</text><text fill="#000000" font-family="sans-serif" font-size="13" lengthAdjust="spacing" textLength="340.7739" x="2320.7583" y="660.2998">queryClient.invalidateQueries(['tenant','payments','current'])</text></g><g class="message" data-entity-1="part11" data-entity-2="part10" data-source-line="40" id="msg13"><polygon fill="#181818" points="2301.2983,691.5078,2291.2983,695.5078,2301.2983,699.5078,2297.2983,695.5078" style="stroke:#181818;stroke-width:1;stroke-linejoin:miter;stroke-miterlimit:10;"/><line style="stroke:#181818;stroke-width:1;" x1="2295.2983" x2="2672.5322" y1="695.5078" y2="695.5078"/><text fill="#000000" font-family="sans-serif" font-size="13" font-weight="700" lengthAdjust="spacing" textLength="14.46" x="2345.3259" y="690.6514">13</text><text fill="#000000" font-family="sans-serif" font-size="13" lengthAdjust="spacing" textLength="254.7188" x="2363.7859" y="690.6514">refetch -&gt; UI updates with authoritative state</text></g><path d="M220,708.5078 L220,767.5078 L1910,767.5078 L1910,718.5078 L1900,708.5078 L220,708.5078" fill="#90EE90" style="stroke:#181818;stroke-width:0.5;"/><path d="M1900,708.5078 L1900,718.5078 L1910,718.5078 L1900,708.5078" fill="#90EE90" style="stroke:#181818;stroke-width:0.5;"/><text fill="#000000" font-family="sans-serif" font-size="13" font-weight="700" lengthAdjust="spacing" textLength="132.9072" x="885.8081" y="727.0029">Why two side effects:</text><text fill="#000000" font-family="sans-serif" font-size="13" lengthAdjust="spacing" textLength="213.1479" x="1022.3271" y="727.0029">at-least-once email via Hangfire DLQ</text><text fill="#000000" font-family="sans-serif" font-size="13" lengthAdjust="spacing" textLength="307.8296" x="885.8081" y="743.3545">gives durable delivery; SignalR push gives instant UX</text><text fill="#000000" font-family="sans-serif" font-size="13" lengthAdjust="spacing" textLength="96.8208" x="885.8081" y="759.7061">but is best-effort.</text><?plantuml-src ZLPjRzf84Fw-lsBaVW1Ie7UL-eKJbSXRmpKq913rJfVxiBR7U1jxr-oEIQog__rcRLv3JegHiDcTUMPsdcV6aA8COQOMMcPte0sfH4MIbD5Gb2w57X1ggGaob5OxC0aKiigHLoAZ4sNpsbW8zwXq8QtCuLH6ZmjhIXsVcSnOU7Svyfyz2uVB4dM44tHEBd2KSNY861Ej4BnL8ZHNS2V3KD7aza6tyggmfa1BLHzNREjQ0O1qa2y5evAALE7p3APDUcTDTiX9Q5VcQ1zqEpMECERmTgKY1ALXD1rt0eyIhQqEiSQxi_nfmbkV6SDSIRrWR6JFeukXVfZmHKeRXpeosbVSNe59aqEG6Uhu8fSguqmUz7kOyEDNHVMItpl2PGpqcvpFOL5da_dq3JaSGhcSYXV5-RQdbdFb2abHMjTvBQVNzvjwnzlVXw3xFkwgv9EsntnZ4WcVwNygdfQXY2N9K3fiP8EC3o6JLsHIUyxsvUFgz6nh7urHh7SwpERKcYVc3DhpkWawmLig5JPEXqXpgMV4-G2Bo5R1ssfEIo5aIKQNUUXR8rz2x_DMgWE8CLEi9tWf-GlV7m-QTKjAB-0Hgy6cQ_lHnaY8uP0RFqR09C68u7TkzhYqCkI1K0l7Anc6Gx49w8DxSG_WGjU2ghNNhh_NhGm_WSom6HbTS6NuWv6x49guWbyTuRqzIfeC01iCsDSrj9kre8xlWev84s-_qJ5xFMDK4aBR8jaAdZzrUQcegJP9qX4RI-_b9Ji0htQOZCRNS7btCu4FS7SsdSFyXf_EHtCUIsm5lOCW7p_z1ZTV1Kz31ECBl4LzTwqMAVsDMMQUn8s6HB6IE8DKbguUceopxVRpwrisoFnKKveLGGuai3Xuy901IX4k6HQRqpFRll9zmUNmSnYF-Fd8_5YKMOzKZd0_RWRq2tvsVJM0AU-FNAMZTj0mClZPtCVnhw3xe8z6PT1b_jP26STTs6fbH9wz7NRDOScLEikK7yNzBworOXT6SO1EtpFRnE_t-qnbMRDIjnadTtzwFPvTGRlfrQ8CFx1S896QLGioiiRvbYmo7WQk8sglRLXkCHdpEh7QG6PPpRyl7DUP9BzPt2RQkXa7y1t3cM4ZWeHVGJWuQXgnDlLUn1fV-aPjpjTNUYKpnIC6VVigTEr_MirPMztMkc2E7wFIMdvi_TiHj3m8Rp51BfrVO-RAmcCvU5AK0dTuQgmYddahVaNmdRdVQM_3RjSVVIt0BnPHYvEJxsa5z6J0xMJY1YSd8Ad7xsj7FSErM3VpIia3QOe5XtFRZb_FakgFxP-1MbwDKLDMWlk_HCZi-DcAZCuHZQKzoVu7?></g></svg>