<svg xmlns="http://www.w3.org/2000/svg" xmlns:xlink="http://www.w3.org/1999/xlink" contentStyleType="text/css" data-diagram-type="DESCRIPTION" height="688px" preserveAspectRatio="none" style="width:1790px;height:688px;background:#FAFAFA;" version="1.1" viewBox="0 0 1790 688" width="1790px" zoomAndPan="magnify"><?plantuml 1.2026.5?><defs/><g><rect fill="#FAFAFA" height="688" style="stroke:none;stroke-width:1;" width="1790" x="0" y="0"/><g class="title" data-source-line="1"><text fill="#000000" font-family="sans-serif" font-size="14" font-weight="700" lengthAdjust="spacing" textLength="419.7266" x="681.8867" y="24.5332">RabbitMQ event topology - 'myproperty.events' topic exchange</text></g><!--cluster Producers (handlers in MyProperty.Application)--><g class="cluster" data-qualified-name="Producers .handlers in MyProperty.Application." data-source-line="8" id="ent0001"><path d="M356,44.6094 L675.165,44.6094 A3.75,3.75 0 0 1 677.665,47.1094 L684.665,68.2188 L1240,68.2188 A2.5,2.5 0 0 1 1242.5,70.7188 L1242.5,142.1094 A2.5,2.5 0 0 1 1240,144.6094 L356,144.6094 A2.5,2.5 0 0 1 353.5,142.1094 L353.5,47.1094 A2.5,2.5 0 0 1 356,44.6094" fill="#E6F0FF" style="stroke:#999999;stroke-width:1.5;"/><line style="stroke:#999999;stroke-width:1.5;" x1="353.5" x2="684.665" y1="68.2188" y2="68.2188"/><text fill="#000000" font-family="sans-serif" font-size="14" font-weight="700" lengthAdjust="spacing" textLength="318.165" x="357.5" y="61.1426">Producers (handlers in MyProperty.Application)</text></g><!--cluster Queues--><g class="cluster" data-qualified-name="Queues" data-source-line="17" id="ent0007"><path d="M372,405.6094 L424.3516,405.6094 A3.75,3.75 0 0 1 426.8516,408.1094 L433.8516,429.2188 L1773,429.2188 A2.5,2.5 0 0 1 1775.5,431.7188 L1775.5,483.1094 A2.5,2.5 0 0 1 1773,485.6094 L372,485.6094 A2.5,2.5 0 0 1 369.5,483.1094 L369.5,408.1094 A2.5,2.5 0 0 1 372,405.6094" fill="#FFE6E6" style="stroke:#999999;stroke-width:1.5;"/><line style="stroke:#999999;stroke-width:1.5;" x1="369.5" x2="433.8516" y1="429.2188" y2="429.2188"/><text fill="#000000" font-family="sans-serif" font-size="14" font-weight="700" lengthAdjust="spacing" textLength="51.3516" x="373.5" y="422.1426">Queues</text></g><!--cluster Consumers (hosted services in API process)--><g class="cluster" data-qualified-name="Consumers .hosted services in API process." data-source-line="25" id="ent0013"><path d="M332,556.6094 L630.2129,556.6094 A3.75,3.75 0 0 1 632.7129,559.1094 L639.7129,580.2188 L1763,580.2188 A2.5,2.5 0 0 1 1765.5,582.7188 L1765.5,671.1094 A2.5,2.5 0 0 1 1763,673.6094 L332,673.6094 A2.5,2.5 0 0 1 329.5,671.1094 L329.5,559.1094 A2.5,2.5 0 0 1 332,556.6094" fill="#E6FFE6" style="stroke:#999999;stroke-width:1.5;"/><line style="stroke:#999999;stroke-width:1.5;" x1="329.5" x2="639.7129" y1="580.2188" y2="580.2188"/><text fill="#000000" font-family="sans-serif" font-size="14" font-weight="700" lengthAdjust="spacing" textLength="297.2129" x="333.5" y="573.1426">Consumers (hosted services in API process)</text></g><!--entity h_submit--><g class="entity" data-qualified-name="Producers .handlers in MyProperty.Application..h_submit" data-source-line="9" id="ent0002"><rect fill="#FFFFFF" height="47.6094" rx="2.5" ry="2.5" style="stroke:#181818;stroke-width:0.5;" width="187.8477" x="369.5" y="80.6094"/><rect fill="#FFFFFF" height="10" style="stroke:#181818;stroke-width:0.5;" width="15" x="537.3477" y="85.6094"/><rect fill="#FFFFFF" height="2" style="stroke:#181818;stroke-width:0.5;" width="4" x="535.3477" y="87.6094"/><rect fill="#FFFFFF" height="2" style="stroke:#181818;stroke-width:0.5;" width="4" x="535.3477" y="91.6094"/><text fill="#000000" font-family="sans-serif" font-size="14" lengthAdjust="spacing" textLength="147.8477" x="384.5" y="115.1426">SubmitPaymentHandler</text></g><!--entity h_confirm--><g class="entity" data-qualified-name="Producers .handlers in MyProperty.Application..h_confirm" data-source-line="10" id="ent0003"><rect fill="#FFFFFF" height="47.6094" rx="2.5" ry="2.5" style="stroke:#181818;stroke-width:0.5;" width="193.2822" x="593" y="80.6094"/><rect fill="#FFFFFF" height="10" style="stroke:#181818;stroke-width:0.5;" width="15" x="766.2822" y="85.6094"/><rect fill="#FFFFFF" height="2" style="stroke:#181818;stroke-width:0.5;" width="4" x="764.2822" y="87.6094"/><rect fill="#FFFFFF" height="2" style="stroke:#181818;stroke-width:0.5;" width="4" x="764.2822" y="91.6094"/><text fill="#000000" font-family="sans-serif" font-size="14" lengthAdjust="spacing" textLength="153.2822" x="608" y="115.1426">ConfirmPaymentHandler</text></g><!--entity h_reject--><g class="entity" data-qualified-name="Producers .handlers in MyProperty.Application..h_reject" data-source-line="11" id="ent0004"><rect fill="#FFFFFF" height="47.6094" rx="2.5" ry="2.5" style="stroke:#181818;stroke-width:0.5;" width="183.958" x="821.5" y="80.6094"/><rect fill="#FFFFFF" height="10" style="stroke:#181818;stroke-width:0.5;" width="15" x="985.458" y="85.6094"/><rect fill="#FFFFFF" height="2" style="stroke:#181818;stroke-width:0.5;" width="4" x="983.458" y="87.6094"/><rect fill="#FFFFFF" height="2" style="stroke:#181818;stroke-width:0.5;" width="4" x="983.458" y="91.6094"/><text fill="#000000" font-family="sans-serif" font-size="14" lengthAdjust="spacing" textLength="143.958" x="836.5" y="115.1426">RejectPaymentHandler</text></g><!--entity h_create--><g class="entity" data-qualified-name="Producers .handlers in MyProperty.Application..h_create" data-source-line="12" id="ent0005"><rect fill="#FFFFFF" height="47.6094" rx="2.5" ry="2.5" style="stroke:#181818;stroke-width:0.5;" width="186.2959" x="1040.5" y="80.6094"/><rect fill="#FFFFFF" height="10" style="stroke:#181818;stroke-width:0.5;" width="15" x="1206.7959" y="85.6094"/><rect fill="#FFFFFF" height="2" style="stroke:#181818;stroke-width:0.5;" width="4" x="1204.7959" y="87.6094"/><rect fill="#FFFFFF" height="2" style="stroke:#181818;stroke-width:0.5;" width="4" x="1204.7959" y="91.6094"/><text fill="#000000" font-family="sans-serif" font-size="14" lengthAdjust="spacing" textLength="146.2959" x="1055.5" y="115.1426">CreatePaymentHandler</text></g><!--entity q_submit_signalr--><g class="entity" data-qualified-name="Queues.q_submit_signalr" data-source-line="18" id="ent0008"><path d="M391,441.6094 L638.3232,441.6094 C643.3232,441.6094 643.3232,455.4141 643.3232,455.4141 C643.3232,455.4141 643.3232,469.2188 638.3232,469.2188 L391,469.2188 C386,469.2188 386,455.4141 386,455.4141 C386,455.4141 386,441.6094 391,441.6094" fill="#FFF0F0" style="stroke:#181818;stroke-width:0.5;"/><path d="M638.3232,441.6094 C633.3232,441.6094 633.3232,455.4141 633.3232,455.4141 C633.3232,469.2188 638.3232,469.2188 638.3232,469.2188" fill="none" style="stroke:#181818;stroke-width:0.5;"/><text fill="#000000" font-family="sans-serif" font-size="14" lengthAdjust="spacing" textLength="237.3232" x="391" y="461.1426">myproperty.payment.submitted.signalr</text></g><!--entity q_submit_ocr--><g class="entity" data-qualified-name="Queues.q_submit_ocr" data-source-line="19" id="ent0009"><path d="M683.5,441.6094 L909.0303,441.6094 C914.0303,441.6094 914.0303,455.4141 914.0303,455.4141 C914.0303,455.4141 914.0303,469.2188 909.0303,469.2188 L683.5,469.2188 C678.5,469.2188 678.5,455.4141 678.5,455.4141 C678.5,455.4141 678.5,441.6094 683.5,441.6094" fill="#FFF0F0" style="stroke:#181818;stroke-width:0.5;"/><path d="M909.0303,441.6094 C904.0303,441.6094 904.0303,455.4141 904.0303,455.4141 C904.0303,469.2188 909.0303,469.2188 909.0303,469.2188" fill="none" style="stroke:#181818;stroke-width:0.5;"/><text fill="#000000" font-family="sans-serif" font-size="14" lengthAdjust="spacing" textLength="215.5303" x="683.5" y="461.1426">myproperty.payment.submitted.ocr</text></g><!--entity q_confirmed--><g class="entity" data-qualified-name="Queues.q_confirmed" data-source-line="20" id="ent0010"><path d="M954.5,441.6094 L1194.8096,441.6094 C1199.8096,441.6094 1199.8096,455.4141 1199.8096,455.4141 C1199.8096,455.4141 1199.8096,469.2188 1194.8096,469.2188 L954.5,469.2188 C949.5,469.2188 949.5,455.4141 949.5,455.4141 C949.5,455.4141 949.5,441.6094 954.5,441.6094" fill="#FFF0F0" style="stroke:#181818;stroke-width:0.5;"/><path d="M1194.8096,441.6094 C1189.8096,441.6094 1189.8096,455.4141 1189.8096,455.4141 C1189.8096,469.2188 1194.8096,469.2188 1194.8096,469.2188" fill="none" style="stroke:#181818;stroke-width:0.5;"/><text fill="#000000" font-family="sans-serif" font-size="14" lengthAdjust="spacing" textLength="230.3096" x="954.5" y="461.1426">myproperty.payment.confirmed.email</text></g><!--entity q_rejected--><g class="entity" data-qualified-name="Queues.q_rejected" data-source-line="21" id="ent0011"><path d="M1239.5,441.6094 L1475.9336,441.6094 C1480.9336,441.6094 1480.9336,455.4141 1480.9336,455.4141 C1480.9336,455.4141 1480.9336,469.2188 1475.9336,469.2188 L1239.5,469.2188 C1234.5,469.2188 1234.5,455.4141 1234.5,455.4141 C1234.5,455.4141 1234.5,441.6094 1239.5,441.6094" fill="#FFF0F0" style="stroke:#181818;stroke-width:0.5;"/><path d="M1475.9336,441.6094 C1470.9336,441.6094 1470.9336,455.4141 1470.9336,455.4141 C1470.9336,469.2188 1475.9336,469.2188 1475.9336,469.2188" fill="none" style="stroke:#181818;stroke-width:0.5;"/><text fill="#000000" font-family="sans-serif" font-size="14" lengthAdjust="spacing" textLength="226.4336" x="1239.5" y="461.1426">myproperty.payment.rejected.signalr</text></g><!--entity q_created--><g class="entity" data-qualified-name="Queues.q_created" data-source-line="22" id="ent0012"><path d="M1521,441.6094 L1754.3232,441.6094 C1759.3232,441.6094 1759.3232,455.4141 1759.3232,455.4141 C1759.3232,455.4141 1759.3232,469.2188 1754.3232,469.2188 L1521,469.2188 C1516,469.2188 1516,455.4141 1516,455.4141 C1516,455.4141 1516,441.6094 1521,441.6094" fill="#FFF0F0" style="stroke:#181818;stroke-width:0.5;"/><path d="M1754.3232,441.6094 C1749.3232,441.6094 1749.3232,455.4141 1749.3232,455.4141 C1749.3232,469.2188 1754.3232,469.2188 1754.3232,469.2188" fill="none" style="stroke:#181818;stroke-width:0.5;"/><text fill="#000000" font-family="sans-serif" font-size="14" lengthAdjust="spacing" textLength="223.3232" x="1521" y="461.1426">myproperty.payment.created.signalr</text></g><!--entity c_submit_sig--><g class="entity" data-qualified-name="Consumers .hosted services in API process..c_submit_sig" data-source-line="26" id="ent0014"><rect fill="#FFFFFF" height="65.2188" rx="2.5" ry="2.5" style="stroke:#181818;stroke-width:0.5;" width="236.168" x="345.5" y="592.6094"/><rect fill="#FFFFFF" height="10" style="stroke:#181818;stroke-width:0.5;" width="15" x="561.668" y="597.6094"/><rect fill="#FFFFFF" height="2" style="stroke:#181818;stroke-width:0.5;" width="4" x="559.668" y="599.6094"/><rect fill="#FFFFFF" height="2" style="stroke:#181818;stroke-width:0.5;" width="4" x="559.668" y="603.6094"/><text fill="#000000" font-family="sans-serif" font-size="14" lengthAdjust="spacing" textLength="182.8613" x="360.5" y="627.1426">PaymentSubmittedConsumer</text><rect fill="#000000" height="3.5" width="3.5" x="369.5" y="637.8281"/><text fill="#000000" font-family="sans-serif" font-size="14" lengthAdjust="spacing" textLength="180.168" x="376.5" y="644.752">-&gt; SignalR push to landlord**</text></g><!--entity c_submit_ocr--><g class="entity" data-qualified-name="Consumers .hosted services in API process..c_submit_ocr" data-source-line="27" id="ent0015"><rect fill="#FFFFFF" height="65.2188" rx="2.5" ry="2.5" style="stroke:#181818;stroke-width:0.5;" width="291.416" x="617" y="592.6094"/><rect fill="#FFFFFF" height="10" style="stroke:#181818;stroke-width:0.5;" width="15" x="888.416" y="597.6094"/><rect fill="#FFFFFF" height="2" style="stroke:#181818;stroke-width:0.5;" width="4" x="886.416" y="599.6094"/><rect fill="#FFFFFF" height="2" style="stroke:#181818;stroke-width:0.5;" width="4" x="886.416" y="603.6094"/><text fill="#000000" font-family="sans-serif" font-size="14" lengthAdjust="spacing" textLength="205.4131" x="632" y="627.1426">PaymentSubmittedOcrConsumer</text><rect fill="#000000" height="3.5" width="3.5" x="641" y="637.8281"/><text fill="#000000" font-family="sans-serif" font-size="14" lengthAdjust="spacing" textLength="235.416" x="648" y="644.752">-&gt; enqueue Hangfire ReceiptOcrJob**</text></g><!--entity c_confirmed--><g class="entity" data-qualified-name="Consumers .hosted services in API process..c_confirmed" data-source-line="28" id="ent0016"><rect fill="#FFFFFF" height="65.2188" rx="2.5" ry="2.5" style="stroke:#181818;stroke-width:0.5;" width="263.0127" x="943" y="592.6094"/><rect fill="#FFFFFF" height="10" style="stroke:#181818;stroke-width:0.5;" width="15" x="1186.0127" y="597.6094"/><rect fill="#FFFFFF" height="2" style="stroke:#181818;stroke-width:0.5;" width="4" x="1184.0127" y="599.6094"/><rect fill="#FFFFFF" height="2" style="stroke:#181818;stroke-width:0.5;" width="4" x="1184.0127" y="603.6094"/><text fill="#000000" font-family="sans-serif" font-size="14" lengthAdjust="spacing" textLength="184.4063" x="958" y="627.1426">PaymentConfirmedConsumer</text><rect fill="#000000" height="3.5" width="3.5" x="967" y="637.8281"/><text fill="#000000" font-family="sans-serif" font-size="14" lengthAdjust="spacing" textLength="207.0127" x="974" y="644.752">-&gt; email job + SignalR to tenant**</text></g><!--entity c_rejected--><g class="entity" data-qualified-name="Consumers .hosted services in API process..c_rejected" data-source-line="29" id="ent0017"><rect fill="#FFFFFF" height="65.2188" rx="2.5" ry="2.5" style="stroke:#181818;stroke-width:0.5;" width="263.0127" x="1241" y="592.6094"/><rect fill="#FFFFFF" height="10" style="stroke:#181818;stroke-width:0.5;" width="15" x="1484.0127" y="597.6094"/><rect fill="#FFFFFF" height="2" style="stroke:#181818;stroke-width:0.5;" width="4" x="1482.0127" y="599.6094"/><rect fill="#FFFFFF" height="2" style="stroke:#181818;stroke-width:0.5;" width="4" x="1482.0127" y="603.6094"/><text fill="#000000" font-family="sans-serif" font-size="14" lengthAdjust="spacing" textLength="175.082" x="1256" y="627.1426">PaymentRejectedConsumer</text><rect fill="#000000" height="3.5" width="3.5" x="1265" y="637.8281"/><text fill="#000000" font-family="sans-serif" font-size="14" lengthAdjust="spacing" textLength="207.0127" x="1272" y="644.752">-&gt; email job + SignalR to tenant**</text></g><!--entity c_created--><g class="entity" data-qualified-name="Consumers .hosted services in API process..c_created" data-source-line="30" id="ent0018"><rect fill="#FFFFFF" height="65.2188" rx="2.5" ry="2.5" style="stroke:#181818;stroke-width:0.5;" width="209.6338" x="1539.5" y="592.6094"/><rect fill="#FFFFFF" height="10" style="stroke:#181818;stroke-width:0.5;" width="15" x="1729.1338" y="597.6094"/><rect fill="#FFFFFF" height="2" style="stroke:#181818;stroke-width:0.5;" width="4" x="1727.1338" y="599.6094"/><rect fill="#FFFFFF" height="2" style="stroke:#181818;stroke-width:0.5;" width="4" x="1727.1338" y="603.6094"/><text fill="#000000" font-family="sans-serif" font-size="14" lengthAdjust="spacing" textLength="169.6338" x="1554.5" y="627.1426">PaymentCreatedConsumer</text><rect fill="#000000" height="3.5" width="3.5" x="1563.5" y="637.8281"/><text fill="#000000" font-family="sans-serif" font-size="14" lengthAdjust="spacing" textLength="110.8994" x="1570.5" y="644.752">-&gt; SignalR push**</text></g><!--entity exchange--><g class="entity" data-qualified-name="exchange" data-source-line="15" id="ent0006"><rect fill="#FFEEDD" height="82.8281" rx="2.5" ry="2.5" style="stroke:#181818;stroke-width:0.5;" width="155.1582" x="783" y="224.6094"/><rect fill="#FFEEDD" height="10" style="stroke:#181818;stroke-width:0.5;" width="15" x="918.1582" y="229.6094"/><rect fill="#FFEEDD" height="2" style="stroke:#181818;stroke-width:0.5;" width="4" x="916.1582" y="231.6094"/><rect fill="#FFEEDD" height="2" style="stroke:#181818;stroke-width:0.5;" width="4" x="916.1582" y="235.6094"/><text fill="#000000" font-family="sans-serif" font-size="14" font-weight="700" lengthAdjust="spacing" textLength="66.1377" x="798" y="259.1426">Exchange</text><text fill="#000000" font-family="sans-serif" font-size="14" font-style="italic" lengthAdjust="spacing" textLength="115.1582" x="798" y="276.752">myproperty.events</text><text fill="#000000" font-family="sans-serif" font-size="14" lengthAdjust="spacing" textLength="38.8965" x="798" y="294.3613">(topic)</text></g><g class="entity" data-qualified-name="GMN33" data-source-line="54" id="ent0034"><path d="M6,401.6094 L6,509.7188 L351.4541,509.7188 L351.4541,411.6094 L341.4541,401.6094 L6,401.6094" fill="#FFFFE0" style="stroke:#181818;stroke-width:0.5;"/><path d="M341.4541,401.6094 L341.4541,411.6094 L351.4541,411.6094 L341.4541,401.6094" fill="#FFFFE0" style="stroke:#181818;stroke-width:1;"/><text fill="#000000" font-family="sans-serif" font-size="13" lengthAdjust="spacing" textLength="324.4541" x="12" y="420.1045">Routing keys are auto-derived from the event type name</text><text fill="#000000" font-family="sans-serif" font-size="13" lengthAdjust="spacing" textLength="222.5615" x="12" y="436.4561">(IntegrationEventNaming.RoutingKey):</text><text fill="#000000" font-family="sans-serif" font-size="13" lengthAdjust="spacing" textLength="275.666" x="19.2236" y="452.8076">PaymentSubmittedEvent  -&gt; payment.submitted</text><text fill="#000000" font-family="sans-serif" font-size="13" lengthAdjust="spacing" textLength="277.8179" x="19.2236" y="469.1592">PaymentConfirmedEvent  -&gt; payment.confirmed</text><text fill="#000000" font-family="sans-serif" font-size="13" lengthAdjust="spacing" textLength="261.9424" x="19.2236" y="485.5107">PaymentRejectedEvent   -&gt; payment.rejected</text><text fill="#000000" font-family="sans-serif" font-size="13" lengthAdjust="spacing" textLength="257.6069" x="19.2236" y="501.8623">PaymentCreatedEvent    -&gt; payment.created</text></g><!--link h_submit to exchange--><g class="link" data-entity-1="ent0002" data-entity-2="ent0006" data-link-type="dependency" data-source-line="34" id="lnk19"><path d="M457.28,128.9794 C453.51,148.8594 452.01,176.9194 467.5,194.6094 C507.91,240.7694 675.3172,256.5316 777.8772,262.0316" fill="none" id="h_submit-to-exchange" style="stroke:#181818;stroke-width:1;"/><polygon fill="#181818" points="782.87,262.2994,774.0971,257.8232,777.8772,262.0316,773.6687,265.8117,782.87,262.2994" style="stroke:#181818;stroke-width:1;stroke-linejoin:miter;stroke-miterlimit:10;"/><text fill="#000000" font-family="sans-serif" font-size="13" lengthAdjust="spacing" textLength="194.3716" x="468.5" y="175.1045">Publish(PaymentSubmittedEvent)</text><text fill="#000000" font-family="sans-serif" font-size="13" lengthAdjust="spacing" textLength="135.1162" x="498.1277" y="191.4561">RK: payment.submitted</text></g><!--link h_confirm to exchange--><g class="link" data-entity-1="ent0003" data-entity-2="ent0006" data-link-type="dependency" data-source-line="35" id="lnk20"><path d="M679.01,128.8494 C672.03,148.1094 666.34,175.3594 679.5,194.6094 C702.72,228.5694 740.0594,245.007 777.8694,254.127" fill="none" id="h_confirm-to-exchange" style="stroke:#181818;stroke-width:1;"/><polygon fill="#181818" points="782.73,255.2994,774.9188,249.3006,777.8694,254.127,773.043,257.0775,782.73,255.2994" style="stroke:#181818;stroke-width:1;stroke-linejoin:miter;stroke-miterlimit:10;"/><text fill="#000000" font-family="sans-serif" font-size="13" lengthAdjust="spacing" textLength="195.8062" x="680.5" y="175.1045">Publish(PaymentConfirmedEvent)</text><text fill="#000000" font-family="sans-serif" font-size="13" lengthAdjust="spacing" textLength="135.8335" x="710.4863" y="191.4561">RK: payment.confirmed</text></g><!--link h_reject to exchange--><g class="link" data-entity-1="ent0004" data-entity-2="ent0006" data-link-type="dependency" data-source-line="36" id="lnk21"><path d="M905.79,128.7994 C897.47,153.8594 885.6155,189.5141 875.5455,219.8441" fill="none" id="h_reject-to-exchange" style="stroke:#181818;stroke-width:1;"/><polygon fill="#181818" points="873.97,224.5894,880.6021,217.3083,875.5455,219.8441,873.0097,214.7874,873.97,224.5894" style="stroke:#181818;stroke-width:1;stroke-linejoin:miter;stroke-miterlimit:10;"/><text fill="#000000" font-family="sans-serif" font-size="13" lengthAdjust="spacing" textLength="187.1479" x="895.5" y="175.1045">Publish(PaymentRejectedEvent)</text><text fill="#000000" font-family="sans-serif" font-size="13" lengthAdjust="spacing" textLength="125.0044" x="926.5718" y="191.4561">RK: payment.rejected</text></g><!--link h_create to exchange--><g class="link" data-entity-1="ent0005" data-entity-2="ent0006" data-link-type="dependency" data-source-line="37" id="lnk22"><path d="M1128.18,128.9294 C1122.41,149.0594 1111.27,177.5094 1091.5,194.6094 C1048.76,231.5694 991.9484,248.306 943.0384,256.676" fill="none" id="h_create-to-exchange" style="stroke:#181818;stroke-width:1;"/><polygon fill="#181818" points="938.11,257.5194,947.6558,259.944,943.0384,256.676,946.3063,252.0586,938.11,257.5194" style="stroke:#181818;stroke-width:1;stroke-linejoin:miter;stroke-miterlimit:10;"/><text fill="#000000" font-family="sans-serif" font-size="13" lengthAdjust="spacing" textLength="182.0889" x="1115.5" y="175.1045">Publish(PaymentCreatedEvent)</text><text fill="#000000" font-family="sans-serif" font-size="13" lengthAdjust="spacing" textLength="122.1162" x="1145.4863" y="191.4561">RK: payment.created</text></g><!--link exchange to q_submit_signalr--><g class="link" data-entity-1="ent0006" data-entity-2="ent0008" data-link-type="dependency" data-source-line="40" id="lnk23"><path d="M782.8,286.3794 C742.95,298.0494 694.52,315.0694 654.5,337.6094 C601.79,367.2994 553.2799,414.229 530.2799,437.959" fill="none" id="exchange-to-q_submit_signalr" style="stroke:#181818;stroke-width:1;"/><polygon fill="#181818" points="526.8,441.5494,535.936,437.8707,530.2799,437.959,530.1915,432.3029,526.8,441.5494" style="stroke:#181818;stroke-width:1;stroke-linejoin:miter;stroke-miterlimit:10;"/><text fill="#000000" font-family="sans-serif" font-size="13" lengthAdjust="spacing" textLength="46.249" x="713.6636" y="352.1045">bind RK</text><text fill="#000000" font-family="sans-serif" font-size="13" lengthAdjust="spacing" textLength="162.5762" x="655.5" y="368.4561">payment.submitted (fan-out)</text></g><!--link exchange to q_submit_ocr--><g class="link" data-entity-1="ent0006" data-entity-2="ent0009" data-link-type="dependency" data-source-line="41" id="lnk24"><path d="M846.61,307.7894 C832.13,350.2294 811.8755,409.5675 802.5655,436.8375" fill="none" id="exchange-to-q_submit_ocr" style="stroke:#181818;stroke-width:1;"/><polygon fill="#181818" points="800.95,441.5694,807.6433,434.3444,802.5655,436.8375,800.0723,431.7597,800.95,441.5694" style="stroke:#181818;stroke-width:1;stroke-linejoin:miter;stroke-miterlimit:10;"/><text fill="#000000" font-family="sans-serif" font-size="13" lengthAdjust="spacing" textLength="46.249" x="894.6636" y="352.1045">bind RK</text><text fill="#000000" font-family="sans-serif" font-size="13" lengthAdjust="spacing" textLength="162.5762" x="836.5" y="368.4561">payment.submitted (fan-out)</text></g><!--link exchange to q_confirmed--><g class="link" data-entity-1="ent0006" data-entity-2="ent0010" data-link-type="dependency" data-source-line="42" id="lnk25"><path d="M938.05,293.7894 C962.22,304.7194 987.7,319.2094 1007.5,337.6094 C1040.07,367.8894 1059.4692,412.9785 1068.1992,436.6385" fill="none" id="exchange-to-q_confirmed" style="stroke:#181818;stroke-width:1;"/><polygon fill="#181818" points="1069.93,441.3294,1070.5672,431.5012,1068.1992,436.6385,1063.0618,434.2705,1069.93,441.3294" style="stroke:#181818;stroke-width:1;stroke-linejoin:miter;stroke-miterlimit:10;"/><text fill="#000000" font-family="sans-serif" font-size="13" lengthAdjust="spacing" textLength="46.249" x="1067.6509" y="352.1045">bind RK</text><text fill="#000000" font-family="sans-serif" font-size="13" lengthAdjust="spacing" textLength="110.5508" x="1035.5" y="368.4561">payment.confirmed</text></g><!--link exchange to q_rejected--><g class="link" data-entity-1="ent0006" data-entity-2="ent0011" data-link-type="dependency" data-source-line="43" id="lnk26"><path d="M938.2,279.4394 C998.57,290.4994 1083.67,309.3894 1154.5,337.6094 C1226.87,366.4394 1300.4504,414.7614 1335.0104,438.7114" fill="none" id="exchange-to-q_rejected" style="stroke:#181818;stroke-width:1;"/><polygon fill="#181818" points="1339.12,441.5594,1334.001,433.1453,1335.0104,438.7114,1329.4443,439.7207,1339.12,441.5594" style="stroke:#181818;stroke-width:1;stroke-linejoin:miter;stroke-miterlimit:10;"/><text fill="#000000" font-family="sans-serif" font-size="13" lengthAdjust="spacing" textLength="46.249" x="1251.2363" y="352.1045">bind RK</text><text fill="#000000" font-family="sans-serif" font-size="13" lengthAdjust="spacing" textLength="99.7217" x="1224.5" y="368.4561">payment.rejected</text></g><!--link exchange to q_created--><g class="link" data-entity-1="ent0006" data-entity-2="ent0012" data-link-type="dependency" data-source-line="44" id="lnk27"><path d="M938.28,273.9494 C1032.61,283.3294 1195.94,303.0994 1332.5,337.6094 C1408.56,356.8294 1425.3,369.3894 1498.5,397.6094 C1535.98,412.0594 1574.0615,427.8098 1602.1215,439.6198" fill="none" id="exchange-to-q_created" style="stroke:#181818;stroke-width:1;"/><polygon fill="#181818" points="1606.73,441.5594,1599.9865,434.3813,1602.1215,439.6198,1596.8831,441.7548,1606.73,441.5594" style="stroke:#181818;stroke-width:1;stroke-linejoin:miter;stroke-miterlimit:10;"/><text fill="#000000" font-family="sans-serif" font-size="13" lengthAdjust="spacing" textLength="46.249" x="1458.7922" y="352.1045">bind RK</text><text fill="#000000" font-family="sans-serif" font-size="13" lengthAdjust="spacing" textLength="96.8335" x="1433.5" y="368.4561">payment.created</text></g><!--link q_submit_signalr to c_submit_sig--><g class="link" data-entity-1="ent0008" data-entity-2="ent0014" data-link-type="dependency" data-source-line="47" id="lnk28"><path d="M510.5,469.7494 C502.51,495.9694 485.8661,550.6561 474.6061,587.6461" fill="none" id="q_submit_signalr-to-c_submit_sig" style="stroke:#181818;stroke-width:1;"/><polygon fill="#181818" points="473.15,592.4294,479.5976,584.9843,474.6061,587.6461,471.9443,582.6546,473.15,592.4294" style="stroke:#181818;stroke-width:1;stroke-linejoin:miter;stroke-miterlimit:10;"/></g><!--link q_submit_ocr to c_submit_ocr--><g class="link" data-entity-1="ent0009" data-entity-2="ent0015" data-link-type="dependency" data-source-line="48" id="lnk29"><path d="M793.83,469.7494 C788.51,495.9694 777.4348,550.5393 769.9248,587.5293" fill="none" id="q_submit_ocr-to-c_submit_ocr" style="stroke:#181818;stroke-width:1;"/><polygon fill="#181818" points="768.93,592.4294,774.6407,584.4052,769.9248,587.5293,766.8007,582.8134,768.93,592.4294" style="stroke:#181818;stroke-width:1;stroke-linejoin:miter;stroke-miterlimit:10;"/></g><!--link q_confirmed to c_confirmed--><g class="link" data-entity-1="ent0010" data-entity-2="ent0016" data-link-type="dependency" data-source-line="49" id="lnk30"><path d="M1074.5,469.7494 C1074.5,495.9694 1074.5,550.4394 1074.5,587.4294" fill="none" id="q_confirmed-to-c_confirmed" style="stroke:#181818;stroke-width:1;"/><polygon fill="#181818" points="1074.5,592.4294,1078.5,583.4294,1074.5,587.4294,1070.5,583.4294,1074.5,592.4294" style="stroke:#181818;stroke-width:1;stroke-linejoin:miter;stroke-miterlimit:10;"/></g><!--link q_rejected to c_rejected--><g class="link" data-entity-1="ent0011" data-entity-2="ent0017" data-link-type="dependency" data-source-line="50" id="lnk31"><path d="M1358.68,469.7494 C1361.03,495.9694 1365.9044,550.4593 1369.2144,587.4493" fill="none" id="q_rejected-to-c_rejected" style="stroke:#181818;stroke-width:1;"/><polygon fill="#181818" points="1369.66,592.4294,1372.8419,583.1087,1369.2144,587.4493,1364.8738,583.8217,1369.66,592.4294" style="stroke:#181818;stroke-width:1;stroke-linejoin:miter;stroke-miterlimit:10;"/></g><!--link q_created to c_created--><g class="link" data-entity-1="ent0012" data-entity-2="ent0018" data-link-type="dependency" data-source-line="51" id="lnk32"><path d="M1638.05,469.7494 C1639.15,495.9694 1641.4207,550.4438 1642.9707,587.4338" fill="none" id="q_created-to-c_created" style="stroke:#181818;stroke-width:1;"/><polygon fill="#181818" points="1643.18,592.4294,1646.7997,583.2698,1642.9707,587.4338,1638.8067,583.6047,1643.18,592.4294" style="stroke:#181818;stroke-width:1;stroke-linejoin:miter;stroke-miterlimit:10;"/></g><!--link exchange to GMN33--><g class="link" data-entity-1="ent0006" data-entity-2="ent0034" data-link-type="association" data-source-line="54" id="lnk35"><path d="M782.92,286.9594 C685.97,311.9394 515.09,356.5494 369.5,397.6094 C363.51,399.2994 357.41,401.0394 351.26,402.7994" fill="none" id="exchange-GMN33" style="stroke:#181818;stroke-width:1;stroke-dasharray:7,7;"/></g><?plantuml-src dLRRRjf047ttLup8Gu0AagT8YIXIBaHDqmiXJvMGehLPp2RshcElqwAgKZ-YNzWlwUpDh6qWLSWBUC-ScJrdPcB9P49XHiAGoSztG5yebo159X8Hhs40X-awoqL6SxaUwiFYK1sp2EYFQ4LuJ8EWU68y8pb9uO94Jt4kIhwuH88S3gxFrP-7Y4IQ2OuyRQZ-UD3dafPq6-pu-jY3POWWCRqG-OBc5dHwUXe4zW0wqrmioeZc1NInuaMYlZ4EdzTJTxFpB4jOH2GJlDU1Wya9vhY6dm5iweNEVHccJ4x9EiMV7mnH1u0Ki7eez5aTVoduakLfCq3Z8tDM3vZHHnhjI93hiqQ2d199j-CZVHRy2W8lO1IE9zQrqL4udlCH6xVy7HqnFEbgatkwNEUq4dyokRhofBrJ7XKTVN8oET6IQT-Wun5dfiIXKKdInR1WCIU9KUFPglTW7_udXOZKPG5g5FXmRxZL7SDfIbZISU7LyxtHnWI_V1FjdkzFhHtnOsrgyrnPLScAhLEKgUbOKU0f53H_OH7LZNi-lG6anr-5xTPhAxtdjMsBUwUNevppVXy6OxZNPSmWAuiLJZGagdzmXlfzRKhacRAV-6kKDxafDp9WJyOeA-uN6b6MIOH-564pW_6idU7IUTAYLzR1emZXNNKDl86ad71PiVkMjibdrhAtSNk6RwdR6BfFy4sH6_CFuRtwWDjMAiPDAtIdPPYmOjKpeC1j7821Ajh1pi3YkasN9cgsUtC-kps3rYm5rK9wXQwoP1lTHd2thbwhpfcmZQsIsEsoryYix5ihiofN6bUw8gDUOT2zO7pHWx-__m0Nc4okA2m97uXIWk1joQmFLJcgjkOYmnf3P8NPxPot2RgMlhU31CT2hxUtaLHcm2wIZLsDKASyx0ojl6acDJh3xiYM4qPzZ7RZ0btxpRLwIrMLgxQUMfBL46gzjFGmY8q4hLiRG7NHrjqiWRkExfbGI2bI44llF-Od5g_aDveauZikYnbQnNWCJtHT0C75I4ef1lZUmbwGUfbZj6ey-nQspYXmab8CxDvmIUDSlw7e3lz2KYGQMi9RkkwT1QgkhNCFIk3sr7lu-c3NyFuUhV2roOKQtjkD6tflDg4ETn9Ix1IbOl0F?></g></svg>