<svg xmlns="http://www.w3.org/2000/svg" xmlns:xlink="http://www.w3.org/1999/xlink" contentStyleType="text/css" data-diagram-type="DESCRIPTION" height="688px" preserveAspectRatio="none" style="width:1790px;height:688px;background:#FAFAFA;" version="1.1" viewBox="0 0 1790 688" width="1790px" zoomAndPan="magnify"><?plantuml 1.2026.6?><defs/><g><rect fill="#FAFAFA" height="688" style="stroke:none;stroke-width:1;" width="1790" x="0" y="0"/><g class="title" data-source-line="1"><text fill="#000000" font-family="sans-serif" font-size="14" font-weight="700" lengthAdjust="spacing" textLength="419.7266" x="681.8867" y="24.5332">RabbitMQ event topology - 'myproperty.events' topic exchange</text></g><!--cluster Producers (handlers in MyProperty.Application)--><g class="cluster" data-qualified-name="Producers .handlers in MyProperty.Application." data-source-line="8" id="ent0001"><path d="M376,44.6094 L695.165,44.6094 A3.75,3.75 0 0 1 697.665,47.1094 L704.665,68.2188 L1260,68.2188 A2.5,2.5 0 0 1 1262.5,70.7188 L1262.5,142.1094 A2.5,2.5 0 0 1 1260,144.6094 L376,144.6094 A2.5,2.5 0 0 1 373.5,142.1094 L373.5,47.1094 A2.5,2.5 0 0 1 376,44.6094" fill="#E6F0FF" style="stroke:#999999;stroke-width:1.5;"/><line style="stroke:#999999;stroke-width:1.5;" x1="373.5" x2="704.665" y1="68.2188" y2="68.2188"/><text fill="#000000" font-family="sans-serif" font-size="14" font-weight="700" lengthAdjust="spacing" textLength="318.165" x="377.5" y="61.1426">Producers (handlers in MyProperty.Application)</text></g><!--cluster Queues--><g class="cluster" data-qualified-name="Queues" data-source-line="17" id="ent0007"><path d="M372,405.6094 L424.3516,405.6094 A3.75,3.75 0 0 1 426.8516,408.1094 L433.8516,429.2188 L1773,429.2188 A2.5,2.5 0 0 1 1775.5,431.7188 L1775.5,483.1094 A2.5,2.5 0 0 1 1773,485.6094 L372,485.6094 A2.5,2.5 0 0 1 369.5,483.1094 L369.5,408.1094 A2.5,2.5 0 0 1 372,405.6094" fill="#FFE6E6" style="stroke:#999999;stroke-width:1.5;"/><line style="stroke:#999999;stroke-width:1.5;" x1="369.5" x2="433.8516" y1="429.2188" y2="429.2188"/><text fill="#000000" font-family="sans-serif" font-size="14" font-weight="700" lengthAdjust="spacing" textLength="51.3516" x="373.5" y="422.1426">Queues</text></g><!--cluster Consumers (hosted services in API process)--><g class="cluster" data-qualified-name="Consumers .hosted services in API process." data-source-line="25" id="ent0013"><path d="M363,556.6094 L661.2129,556.6094 A3.75,3.75 0 0 1 663.7129,559.1094 L670.7129,580.2188 L1756,580.2188 A2.5,2.5 0 0 1 1758.5,582.7188 L1758.5,671.1094 A2.5,2.5 0 0 1 1756,673.6094 L363,673.6094 A2.5,2.5 0 0 1 360.5,671.1094 L360.5,559.1094 A2.5,2.5 0 0 1 363,556.6094" fill="#E6FFE6" style="stroke:#999999;stroke-width:1.5;"/><line style="stroke:#999999;stroke-width:1.5;" x1="360.5" x2="670.7129" y1="580.2188" y2="580.2188"/><text fill="#000000" font-family="sans-serif" font-size="14" font-weight="700" lengthAdjust="spacing" textLength="297.2129" x="364.5" y="573.1426">Consumers (hosted services in API process)</text></g><!--entity h_submit--><g class="entity" data-qualified-name="Producers .handlers in MyProperty.Application..h_submit" data-source-line="9" id="ent0002"><rect fill="#FFFFFF" height="47.6094" rx="2.5" ry="2.5" style="stroke:#181818;stroke-width:0.5;" width="187.8477" x="389.5" y="80.6094"/><rect fill="#FFFFFF" height="10" style="stroke:#181818;stroke-width:0.5;" width="15" x="557.3477" y="85.6094"/><rect fill="#FFFFFF" height="2" style="stroke:#181818;stroke-width:0.5;" width="4" x="555.3477" y="87.6094"/><rect fill="#FFFFFF" height="2" style="stroke:#181818;stroke-width:0.5;" width="4" x="555.3477" y="91.6094"/><text fill="#000000" font-family="sans-serif" font-size="14" lengthAdjust="spacing" textLength="147.8477" x="404.5" y="115.1426">SubmitPaymentHandler</text></g><!--entity h_confirm--><g class="entity" data-qualified-name="Producers .handlers in MyProperty.Application..h_confirm" data-source-line="10" id="ent0003"><rect fill="#FFFFFF" height="47.6094" rx="2.5" ry="2.5" style="stroke:#181818;stroke-width:0.5;" width="193.2822" x="613" y="80.6094"/><rect fill="#FFFFFF" height="10" style="stroke:#181818;stroke-width:0.5;" width="15" x="786.2822" y="85.6094"/><rect fill="#FFFFFF" height="2" style="stroke:#181818;stroke-width:0.5;" width="4" x="784.2822" y="87.6094"/><rect fill="#FFFFFF" height="2" style="stroke:#181818;stroke-width:0.5;" width="4" x="784.2822" y="91.6094"/><text fill="#000000" font-family="sans-serif" font-size="14" lengthAdjust="spacing" textLength="153.2822" x="628" y="115.1426">ConfirmPaymentHandler</text></g><!--entity h_reject--><g class="entity" data-qualified-name="Producers .handlers in MyProperty.Application..h_reject" data-source-line="11" id="ent0004"><rect fill="#FFFFFF" height="47.6094" rx="2.5" ry="2.5" style="stroke:#181818;stroke-width:0.5;" width="183.958" x="841.5" y="80.6094"/><rect fill="#FFFFFF" height="10" style="stroke:#181818;stroke-width:0.5;" width="15" x="1005.458" y="85.6094"/><rect fill="#FFFFFF" height="2" style="stroke:#181818;stroke-width:0.5;" width="4" x="1003.458" y="87.6094"/><rect fill="#FFFFFF" height="2" style="stroke:#181818;stroke-width:0.5;" width="4" x="1003.458" y="91.6094"/><text fill="#000000" font-family="sans-serif" font-size="14" lengthAdjust="spacing" textLength="143.958" x="856.5" y="115.1426">RejectPaymentHandler</text></g><!--entity h_create--><g class="entity" data-qualified-name="Producers .handlers in MyProperty.Application..h_create" data-source-line="12" id="ent0005"><rect fill="#FFFFFF" height="47.6094" rx="2.5" ry="2.5" style="stroke:#181818;stroke-width:0.5;" width="186.2959" x="1060.5" y="80.6094"/><rect fill="#FFFFFF" height="10" style="stroke:#181818;stroke-width:0.5;" width="15" x="1226.7959" y="85.6094"/><rect fill="#FFFFFF" height="2" style="stroke:#181818;stroke-width:0.5;" width="4" x="1224.7959" y="87.6094"/><rect fill="#FFFFFF" height="2" style="stroke:#181818;stroke-width:0.5;" width="4" x="1224.7959" y="91.6094"/><text fill="#000000" font-family="sans-serif" font-size="14" lengthAdjust="spacing" textLength="146.2959" x="1075.5" y="115.1426">CreatePaymentHandler</text></g><!--entity q_submit_signalr--><g class="entity" data-qualified-name="Queues.q_submit_signalr" data-source-line="18" id="ent0008"><path d="M391,441.6094 L638.3232,441.6094 C643.3232,441.6094 643.3232,455.4141 643.3232,455.4141 C643.3232,455.4141 643.3232,469.2188 638.3232,469.2188 L391,469.2188 C386,469.2188 386,455.4141 386,455.4141 C386,455.4141 386,441.6094 391,441.6094" fill="#FFF0F0" style="stroke:#181818;stroke-width:0.5;"/><path d="M638.3232,441.6094 C633.3232,441.6094 633.3232,455.4141 633.3232,455.4141 C633.3232,469.2188 638.3232,469.2188 638.3232,469.2188" fill="none" style="stroke:#181818;stroke-width:0.5;"/><text fill="#000000" font-family="sans-serif" font-size="14" lengthAdjust="spacing" textLength="237.3232" x="391" y="461.1426">myproperty.payment.submitted.signalr</text></g><!--entity q_submit_ocr--><g class="entity" data-qualified-name="Queues.q_submit_ocr" data-source-line="19" id="ent0009"><path d="M683.5,441.6094 L909.0303,441.6094 C914.0303,441.6094 914.0303,455.4141 914.0303,455.4141 C914.0303,455.4141 914.0303,469.2188 909.0303,469.2188 L683.5,469.2188 C678.5,469.2188 678.5,455.4141 678.5,455.4141 C678.5,455.4141 678.5,441.6094 683.5,441.6094" fill="#FFF0F0" style="stroke:#181818;stroke-width:0.5;"/><path d="M909.0303,441.6094 C904.0303,441.6094 904.0303,455.4141 904.0303,455.4141 C904.0303,469.2188 909.0303,469.2188 909.0303,469.2188" fill="none" style="stroke:#181818;stroke-width:0.5;"/><text fill="#000000" font-family="sans-serif" font-size="14" lengthAdjust="spacing" textLength="215.5303" x="683.5" y="461.1426">myproperty.payment.submitted.ocr</text></g><!--entity q_confirmed--><g class="entity" data-qualified-name="Queues.q_confirmed" data-source-line="20" id="ent0010"><path d="M954.5,441.6094 L1194.8096,441.6094 C1199.8096,441.6094 1199.8096,455.4141 1199.8096,455.4141 C1199.8096,455.4141 1199.8096,469.2188 1194.8096,469.2188 L954.5,469.2188 C949.5,469.2188 949.5,455.4141 949.5,455.4141 C949.5,455.4141 949.5,441.6094 954.5,441.6094" fill="#FFF0F0" style="stroke:#181818;stroke-width:0.5;"/><path d="M1194.8096,441.6094 C1189.8096,441.6094 1189.8096,455.4141 1189.8096,455.4141 C1189.8096,469.2188 1194.8096,469.2188 1194.8096,469.2188" fill="none" style="stroke:#181818;stroke-width:0.5;"/><text fill="#000000" font-family="sans-serif" font-size="14" lengthAdjust="spacing" textLength="230.3096" x="954.5" y="461.1426">myproperty.payment.confirmed.email</text></g><!--entity q_rejected--><g class="entity" data-qualified-name="Queues.q_rejected" data-source-line="21" id="ent0011"><path d="M1239.5,441.6094 L1475.9336,441.6094 C1480.9336,441.6094 1480.9336,455.4141 1480.9336,455.4141 C1480.9336,455.4141 1480.9336,469.2188 1475.9336,469.2188 L1239.5,469.2188 C1234.5,469.2188 1234.5,455.4141 1234.5,455.4141 C1234.5,455.4141 1234.5,441.6094 1239.5,441.6094" fill="#FFF0F0" style="stroke:#181818;stroke-width:0.5;"/><path d="M1475.9336,441.6094 C1470.9336,441.6094 1470.9336,455.4141 1470.9336,455.4141 C1470.9336,469.2188 1475.9336,469.2188 1475.9336,469.2188" fill="none" style="stroke:#181818;stroke-width:0.5;"/><text fill="#000000" font-family="sans-serif" font-size="14" lengthAdjust="spacing" textLength="226.4336" x="1239.5" y="461.1426">myproperty.payment.rejected.signalr</text></g><!--entity q_created--><g class="entity" data-qualified-name="Queues.q_created" data-source-line="22" id="ent0012"><path d="M1521,441.6094 L1754.3232,441.6094 C1759.3232,441.6094 1759.3232,455.4141 1759.3232,455.4141 C1759.3232,455.4141 1759.3232,469.2188 1754.3232,469.2188 L1521,469.2188 C1516,469.2188 1516,455.4141 1516,455.4141 C1516,455.4141 1516,441.6094 1521,441.6094" fill="#FFF0F0" style="stroke:#181818;stroke-width:0.5;"/><path d="M1754.3232,441.6094 C1749.3232,441.6094 1749.3232,455.4141 1749.3232,455.4141 C1749.3232,469.2188 1754.3232,469.2188 1754.3232,469.2188" fill="none" style="stroke:#181818;stroke-width:0.5;"/><text fill="#000000" font-family="sans-serif" font-size="14" lengthAdjust="spacing" textLength="223.3232" x="1521" y="461.1426">myproperty.payment.created.signalr</text></g><!--entity c_submit_sig--><g class="entity" data-qualified-name="Consumers .hosted services in API process..c_submit_sig" data-source-line="26" id="ent0014"><rect fill="#FFFFFF" height="65.2188" rx="2.5" ry="2.5" style="stroke:#181818;stroke-width:0.5;" width="236.168" x="376.5" y="592.6094"/><rect fill="#FFFFFF" height="10" style="stroke:#181818;stroke-width:0.5;" width="15" x="592.668" y="597.6094"/><rect fill="#FFFFFF" height="2" style="stroke:#181818;stroke-width:0.5;" width="4" x="590.668" y="599.6094"/><rect fill="#FFFFFF" height="2" style="stroke:#181818;stroke-width:0.5;" width="4" x="590.668" y="603.6094"/><text fill="#000000" font-family="sans-serif" font-size="14" lengthAdjust="spacing" textLength="182.8613" x="391.5" y="627.1426">PaymentSubmittedConsumer</text><rect fill="#000000" height="3.5" width="3.5" x="400.5" y="637.8281"/><text fill="#000000" font-family="sans-serif" font-size="14" lengthAdjust="spacing" textLength="180.168" x="407.5" y="644.752">-&gt; SignalR push to landlord**</text></g><!--entity c_submit_ocr--><g class="entity" data-qualified-name="Consumers .hosted services in API process..c_submit_ocr" data-source-line="27" id="ent0015"><rect fill="#FFFFFF" height="65.2188" rx="2.5" ry="2.5" style="stroke:#181818;stroke-width:0.5;" width="291.416" x="648" y="592.6094"/><rect fill="#FFFFFF" height="10" style="stroke:#181818;stroke-width:0.5;" width="15" x="919.416" y="597.6094"/><rect fill="#FFFFFF" height="2" style="stroke:#181818;stroke-width:0.5;" width="4" x="917.416" y="599.6094"/><rect fill="#FFFFFF" height="2" style="stroke:#181818;stroke-width:0.5;" width="4" x="917.416" y="603.6094"/><text fill="#000000" font-family="sans-serif" font-size="14" lengthAdjust="spacing" textLength="205.4131" x="663" y="627.1426">PaymentSubmittedOcrConsumer</text><rect fill="#000000" height="3.5" width="3.5" x="672" y="637.8281"/><text fill="#000000" font-family="sans-serif" font-size="14" lengthAdjust="spacing" textLength="235.416" x="679" y="644.752">-&gt; enqueue Hangfire ReceiptOcrJob**</text></g><!--entity c_confirmed--><g class="entity" data-qualified-name="Consumers .hosted services in API process..c_confirmed" data-source-line="28" id="ent0016"><rect fill="#FFFFFF" height="65.2188" rx="2.5" ry="2.5" style="stroke:#181818;stroke-width:0.5;" width="263.0127" x="974" y="592.6094"/><rect fill="#FFFFFF" height="10" style="stroke:#181818;stroke-width:0.5;" width="15" x="1217.0127" y="597.6094"/><rect fill="#FFFFFF" height="2" style="stroke:#181818;stroke-width:0.5;" width="4" x="1215.0127" y="599.6094"/><rect fill="#FFFFFF" height="2" style="stroke:#181818;stroke-width:0.5;" width="4" x="1215.0127" y="603.6094"/><text fill="#000000" font-family="sans-serif" font-size="14" lengthAdjust="spacing" textLength="184.4063" x="989" y="627.1426">PaymentConfirmedConsumer</text><rect fill="#000000" height="3.5" width="3.5" x="998" y="637.8281"/><text fill="#000000" font-family="sans-serif" font-size="14" lengthAdjust="spacing" textLength="207.0127" x="1005" y="644.752">-&gt; email job + SignalR to tenant**</text></g><!--entity c_rejected--><g class="entity" data-qualified-name="Consumers .hosted services in API process..c_rejected" data-source-line="29" id="ent0017"><rect fill="#FFFFFF" height="65.2188" rx="2.5" ry="2.5" style="stroke:#181818;stroke-width:0.5;" width="225.2783" x="1272" y="592.6094"/><rect fill="#FFFFFF" height="10" style="stroke:#181818;stroke-width:0.5;" width="15" x="1477.2783" y="597.6094"/><rect fill="#FFFFFF" height="2" style="stroke:#181818;stroke-width:0.5;" width="4" x="1475.2783" y="599.6094"/><rect fill="#FFFFFF" height="2" style="stroke:#181818;stroke-width:0.5;" width="4" x="1475.2783" y="603.6094"/><text fill="#000000" font-family="sans-serif" font-size="14" lengthAdjust="spacing" textLength="175.082" x="1287" y="627.1426">PaymentRejectedConsumer</text><rect fill="#000000" height="3.5" width="3.5" x="1296" y="637.8281"/><text fill="#000000" font-family="sans-serif" font-size="14" lengthAdjust="spacing" textLength="169.2783" x="1303" y="644.752">-&gt; SignalR push to tenant**</text></g><!--entity c_created--><g class="entity" data-qualified-name="Consumers .hosted services in API process..c_created" data-source-line="30" id="ent0018"><rect fill="#FFFFFF" height="65.2188" rx="2.5" ry="2.5" style="stroke:#181818;stroke-width:0.5;" width="209.6338" x="1532.5" y="592.6094"/><rect fill="#FFFFFF" height="10" style="stroke:#181818;stroke-width:0.5;" width="15" x="1722.1338" y="597.6094"/><rect fill="#FFFFFF" height="2" style="stroke:#181818;stroke-width:0.5;" width="4" x="1720.1338" y="599.6094"/><rect fill="#FFFFFF" height="2" style="stroke:#181818;stroke-width:0.5;" width="4" x="1720.1338" y="603.6094"/><text fill="#000000" font-family="sans-serif" font-size="14" lengthAdjust="spacing" textLength="169.6338" x="1547.5" y="627.1426">PaymentCreatedConsumer</text><rect fill="#000000" height="3.5" width="3.5" x="1556.5" y="637.8281"/><text fill="#000000" font-family="sans-serif" font-size="14" lengthAdjust="spacing" textLength="110.8994" x="1563.5" y="644.752">-&gt; SignalR push**</text></g><!--entity exchange--><g class="entity" data-qualified-name="exchange" data-source-line="15" id="ent0006"><rect fill="#FFEEDD" height="82.8281" rx="2.5" ry="2.5" style="stroke:#181818;stroke-width:0.5;" width="155.1582" x="799" y="224.6094"/><rect fill="#FFEEDD" height="10" style="stroke:#181818;stroke-width:0.5;" width="15" x="934.1582" y="229.6094"/><rect fill="#FFEEDD" height="2" style="stroke:#181818;stroke-width:0.5;" width="4" x="932.1582" y="231.6094"/><rect fill="#FFEEDD" height="2" style="stroke:#181818;stroke-width:0.5;" width="4" x="932.1582" y="235.6094"/><text fill="#000000" font-family="sans-serif" font-size="14" font-weight="700" lengthAdjust="spacing" textLength="66.1377" x="814" y="259.1426">Exchange</text><text fill="#000000" font-family="sans-serif" font-size="14" font-style="italic" lengthAdjust="spacing" textLength="115.1582" x="814" y="276.752">myproperty.events</text><text fill="#000000" font-family="sans-serif" font-size="14" lengthAdjust="spacing" textLength="38.8965" x="814" y="294.3613">(topic)</text></g><g class="entity" data-qualified-name="GMN33" data-source-line="54" id="ent0034"><path d="M6,401.6094 L6,509.7188 L351.4541,509.7188 L351.4541,411.6094 L341.4541,401.6094 L6,401.6094" fill="#FFFFE0" style="stroke:#181818;stroke-width:0.5;"/><path d="M341.4541,401.6094 L341.4541,411.6094 L351.4541,411.6094 L341.4541,401.6094" fill="#FFFFE0" style="stroke:#181818;stroke-width:1;"/><text fill="#000000" font-family="sans-serif" font-size="13" lengthAdjust="spacing" textLength="324.4541" x="12" y="420.1045">Routing keys are auto-derived from the event type name</text><text fill="#000000" font-family="sans-serif" font-size="13" lengthAdjust="spacing" textLength="222.5615" x="12" y="436.4561">(IntegrationEventNaming.RoutingKey):</text><text fill="#000000" font-family="sans-serif" font-size="13" lengthAdjust="spacing" textLength="275.666" x="19.2236" y="452.8076">PaymentSubmittedEvent  -&gt; payment.submitted</text><text fill="#000000" font-family="sans-serif" font-size="13" lengthAdjust="spacing" textLength="277.8179" x="19.2236" y="469.1592">PaymentConfirmedEvent  -&gt; payment.confirmed</text><text fill="#000000" font-family="sans-serif" font-size="13" lengthAdjust="spacing" textLength="261.9424" x="19.2236" y="485.5107">PaymentRejectedEvent   -&gt; payment.rejected</text><text fill="#000000" font-family="sans-serif" font-size="13" lengthAdjust="spacing" textLength="257.6069" x="19.2236" y="501.8623">PaymentCreatedEvent    -&gt; payment.created</text></g><!--link h_submit to exchange--><g class="link" data-entity-1="ent0002" data-entity-2="ent0006" data-link-type="dependency" data-source-line="34" id="lnk19"><path d="M476.66,128.8994 C472.39,148.7294 470.23,176.7594 485.5,194.6094 C525.12,240.9394 691.4171,256.6338 793.6871,262.0738" fill="none" id="h_submit-to-exchange" style="stroke:#181818;stroke-width:1;"/><polygon fill="#181818" points="798.68,262.3394,789.9052,257.867,793.6871,262.0738,789.4802,265.8557,798.68,262.3394" style="stroke:#181818;stroke-width:1;stroke-linejoin:miter;stroke-miterlimit:10;"/><text fill="#000000" font-family="sans-serif" font-size="13" lengthAdjust="spacing" textLength="194.3716" x="486.5" y="175.1045">Publish(PaymentSubmittedEvent)</text><text fill="#000000" font-family="sans-serif" font-size="13" lengthAdjust="spacing" textLength="135.1162" x="516.1277" y="191.4561">RK: payment.submitted</text></g><!--link h_confirm to exchange--><g class="link" data-entity-1="ent0003" data-entity-2="ent0006" data-link-type="dependency" data-source-line="35" id="lnk20"><path d="M698.26,128.8094 C690.72,148.0494 684.34,175.2794 697.5,194.6094 C720.25,228.0194 756.6281,244.3816 793.7881,253.6316" fill="none" id="h_confirm-to-exchange" style="stroke:#181818;stroke-width:1;"/><polygon fill="#181818" points="798.64,254.8394,790.8727,248.7839,793.7881,253.6316,788.9403,256.547,798.64,254.8394" style="stroke:#181818;stroke-width:1;stroke-linejoin:miter;stroke-miterlimit:10;"/><text fill="#000000" font-family="sans-serif" font-size="13" lengthAdjust="spacing" textLength="195.8062" x="698.5" y="175.1045">Publish(PaymentConfirmedEvent)</text><text fill="#000000" font-family="sans-serif" font-size="13" lengthAdjust="spacing" textLength="135.8335" x="728.4863" y="191.4561">RK: payment.confirmed</text></g><!--link h_reject to exchange--><g class="link" data-entity-1="ent0004" data-entity-2="ent0006" data-link-type="dependency" data-source-line="36" id="lnk21"><path d="M925.21,128.7994 C916.26,153.8594 903.5028,189.5511 892.6628,219.8811" fill="none" id="h_reject-to-exchange" style="stroke:#181818;stroke-width:1;"/><polygon fill="#181818" points="890.98,224.5894,897.7756,217.4606,892.6628,219.8811,890.2423,214.7682,890.98,224.5894" style="stroke:#181818;stroke-width:1;stroke-linejoin:miter;stroke-miterlimit:10;"/><text fill="#000000" font-family="sans-serif" font-size="13" lengthAdjust="spacing" textLength="187.1479" x="913.5" y="175.1045">Publish(PaymentRejectedEvent)</text><text fill="#000000" font-family="sans-serif" font-size="13" lengthAdjust="spacing" textLength="125.0044" x="944.5718" y="191.4561">RK: payment.rejected</text></g><!--link h_create to exchange--><g class="link" data-entity-1="ent0005" data-entity-2="ent0006" data-link-type="dependency" data-source-line="37" id="lnk22"><path d="M1147.64,128.9594 C1141.41,149.0994 1129.62,177.5694 1109.5,194.6094 C1065.88,231.5494 1008.2495,248.3028 958.9295,256.6728" fill="none" id="h_create-to-exchange" style="stroke:#181818;stroke-width:1;"/><polygon fill="#181818" points="954,257.5094,963.5424,259.9471,958.9295,256.6728,962.2039,252.0599,954,257.5094" style="stroke:#181818;stroke-width:1;stroke-linejoin:miter;stroke-miterlimit:10;"/><text fill="#000000" font-family="sans-serif" font-size="13" lengthAdjust="spacing" textLength="182.0889" x="1134.5" y="175.1045">Publish(PaymentCreatedEvent)</text><text fill="#000000" font-family="sans-serif" font-size="13" lengthAdjust="spacing" textLength="122.1162" x="1164.4863" y="191.4561">RK: payment.created</text></g><!--link exchange to q_submit_signalr--><g class="link" data-entity-1="ent0006" data-entity-2="ent0008" data-link-type="dependency" data-source-line="40" id="lnk23"><path d="M798.92,285.3594 C756.78,297.0194 704.63,314.3494 661.5,337.6094 C606.66,367.1794 555.405,414.2538 531.085,438.0338" fill="none" id="exchange-to-q_submit_signalr" style="stroke:#181818;stroke-width:1;"/><polygon fill="#181818" points="527.51,441.5294,536.7415,438.0973,531.085,438.0338,531.1485,432.3773,527.51,441.5294" style="stroke:#181818;stroke-width:1;stroke-linejoin:miter;stroke-miterlimit:10;"/><text fill="#000000" font-family="sans-serif" font-size="13" lengthAdjust="spacing" textLength="46.249" x="720.6636" y="352.1045">bind RK</text><text fill="#000000" font-family="sans-serif" font-size="13" lengthAdjust="spacing" textLength="162.5762" x="662.5" y="368.4561">payment.submitted (fan-out)</text></g><!--link exchange to q_submit_ocr--><g class="link" data-entity-1="ent0006" data-entity-2="ent0009" data-link-type="dependency" data-source-line="41" id="lnk24"><path d="M859.14,307.7894 C841.04,350.2294 815.6629,409.7008 804.0229,436.9708" fill="none" id="exchange-to-q_submit_ocr" style="stroke:#181818;stroke-width:1;"/><polygon fill="#181818" points="802.06,441.5694,809.2721,434.8622,804.0229,436.9708,801.9143,431.7216,802.06,441.5694" style="stroke:#181818;stroke-width:1;stroke-linejoin:miter;stroke-miterlimit:10;"/><text fill="#000000" font-family="sans-serif" font-size="13" lengthAdjust="spacing" textLength="46.249" x="904.6636" y="352.1045">bind RK</text><text fill="#000000" font-family="sans-serif" font-size="13" lengthAdjust="spacing" textLength="162.5762" x="846.5" y="368.4561">payment.submitted (fan-out)</text></g><!--link exchange to q_confirmed--><g class="link" data-entity-1="ent0006" data-entity-2="ent0010" data-link-type="dependency" data-source-line="42" id="lnk25"><path d="M954.25,295.3294 C976.31,306.0594 999.04,320.0394 1016.5,337.6094 C1046.86,368.1594 1062.699,413.0097 1069.579,436.5797" fill="none" id="exchange-to-q_confirmed" style="stroke:#181818;stroke-width:1;"/><polygon fill="#181818" points="1070.98,441.3794,1072.2979,431.6191,1069.579,436.5797,1064.6184,433.8607,1070.98,441.3794" style="stroke:#181818;stroke-width:1;stroke-linejoin:miter;stroke-miterlimit:10;"/><text fill="#000000" font-family="sans-serif" font-size="13" lengthAdjust="spacing" textLength="46.249" x="1072.6509" y="352.1045">bind RK</text><text fill="#000000" font-family="sans-serif" font-size="13" lengthAdjust="spacing" textLength="110.5508" x="1040.5" y="368.4561">payment.confirmed</text></g><!--link exchange to q_rejected--><g class="link" data-entity-1="ent0006" data-entity-2="ent0011" data-link-type="dependency" data-source-line="43" id="lnk26"><path d="M954.08,280.1394 C1012.05,291.3694 1092.5,310.1494 1159.5,337.6094 C1230.25,366.5994 1301.8736,414.7941 1335.5236,438.6941" fill="none" id="exchange-to-q_rejected" style="stroke:#181818;stroke-width:1;"/><polygon fill="#181818" points="1339.6,441.5894,1334.5787,433.1167,1335.5236,438.6941,1329.9462,439.639,1339.6,441.5894" style="stroke:#181818;stroke-width:1;stroke-linejoin:miter;stroke-miterlimit:10;"/><text fill="#000000" font-family="sans-serif" font-size="13" lengthAdjust="spacing" textLength="46.249" x="1255.2363" y="352.1045">bind RK</text><text fill="#000000" font-family="sans-serif" font-size="13" lengthAdjust="spacing" textLength="99.7217" x="1228.5" y="368.4561">payment.rejected</text></g><!--link exchange to q_created--><g class="link" data-entity-1="ent0006" data-entity-2="ent0012" data-link-type="dependency" data-source-line="44" id="lnk27"><path d="M954.38,274.1894 C1046.66,283.6794 1204.51,303.4294 1336.5,337.6094 C1410.83,356.8594 1426.97,369.7094 1498.5,397.6094 C1535.8,412.1594 1573.7279,427.8185 1601.8179,439.5785" fill="none" id="exchange-to-q_created" style="stroke:#181818;stroke-width:1;"/><polygon fill="#181818" points="1606.43,441.5094,1599.6729,434.3441,1601.8179,439.5785,1596.5835,441.7235,1606.43,441.5094" style="stroke:#181818;stroke-width:1;stroke-linejoin:miter;stroke-miterlimit:10;"/><text fill="#000000" font-family="sans-serif" font-size="13" lengthAdjust="spacing" textLength="46.249" x="1460.7922" y="352.1045">bind RK</text><text fill="#000000" font-family="sans-serif" font-size="13" lengthAdjust="spacing" textLength="96.8335" x="1435.5" y="368.4561">payment.created</text></g><!--link q_submit_signalr to c_submit_sig--><g class="link" data-entity-1="ent0008" data-entity-2="ent0014" data-link-type="dependency" data-source-line="47" id="lnk28"><path d="M512.93,469.7494 C509.8,495.9694 503.2932,550.4747 498.8732,587.4647" fill="none" id="q_submit_signalr-to-c_submit_sig" style="stroke:#181818;stroke-width:1;"/><polygon fill="#181818" points="498.28,592.4294,503.3196,583.9675,498.8732,587.4647,495.3761,583.0184,498.28,592.4294" style="stroke:#181818;stroke-width:1;stroke-linejoin:miter;stroke-miterlimit:10;"/></g><!--link q_submit_ocr to c_submit_ocr--><g class="link" data-entity-1="ent0009" data-entity-2="ent0015" data-link-type="dependency" data-source-line="48" id="lnk29"><path d="M796.26,469.7494 C795.79,495.9694 794.8192,550.4402 794.1592,587.4302" fill="none" id="q_submit_ocr-to-c_submit_ocr" style="stroke:#181818;stroke-width:1;"/><polygon fill="#181818" points="794.07,592.4294,798.2299,583.5022,794.1592,587.4302,790.2312,583.3594,794.07,592.4294" style="stroke:#181818;stroke-width:1;stroke-linejoin:miter;stroke-miterlimit:10;"/></g><!--link q_confirmed to c_confirmed--><g class="link" data-entity-1="ent0010" data-entity-2="ent0016" data-link-type="dependency" data-source-line="49" id="lnk30"><path d="M1076.93,469.7494 C1081.79,495.9694 1091.8796,550.523 1098.7296,587.513" fill="none" id="q_confirmed-to-c_confirmed" style="stroke:#181818;stroke-width:1;"/><polygon fill="#181818" points="1099.64,592.4294,1101.9343,582.8515,1098.7296,587.513,1094.0681,584.3082,1099.64,592.4294" style="stroke:#181818;stroke-width:1;stroke-linejoin:miter;stroke-miterlimit:10;"/></g><!--link q_rejected to c_rejected--><g class="link" data-entity-1="ent0011" data-entity-2="ent0017" data-link-type="dependency" data-source-line="50" id="lnk31"><path d="M1359.62,469.7494 C1363.85,495.9694 1372.6346,550.503 1378.5946,587.493" fill="none" id="q_rejected-to-c_rejected" style="stroke:#181818;stroke-width:1;"/><polygon fill="#181818" points="1379.39,592.4294,1381.9074,582.9077,1378.5946,587.493,1374.0093,584.1803,1379.39,592.4294" style="stroke:#181818;stroke-width:1;stroke-linejoin:miter;stroke-miterlimit:10;"/></g><!--link q_created to c_created--><g class="link" data-entity-1="ent0012" data-entity-2="ent0018" data-link-type="dependency" data-source-line="51" id="lnk32"><path d="M1637.5,469.7494 C1637.5,495.9694 1637.5,550.4394 1637.5,587.4294" fill="none" id="q_created-to-c_created" style="stroke:#181818;stroke-width:1;"/><polygon fill="#181818" points="1637.5,592.4294,1641.5,583.4294,1637.5,587.4294,1633.5,583.4294,1637.5,592.4294" style="stroke:#181818;stroke-width:1;stroke-linejoin:miter;stroke-miterlimit:10;"/></g><!--link exchange to GMN33--><g class="link" data-entity-1="ent0006" data-entity-2="ent0034" data-link-type="association" data-source-line="54" id="lnk35"><path d="M798.94,286.0694 C699.26,310.6694 520.98,355.4394 369.5,397.6094 C363.5,399.2794 357.4,400.9994 351.24,402.7494" fill="none" id="exchange-GMN33" style="stroke:#181818;stroke-width:1;stroke-dasharray:7,7;"/></g><?plantuml-src dLRRJjj047ttLup20qcg04z8e1I9Ir0ffGtXgH8IMZiRPy7UDVQQrgegzIFwXVsIpjwSjPrBrV2IUC-ScJrdPh1aCg4m8s78vDqzq3VA9KYHYKJ45OnWFwsoN6GqbzM1FYpsrJ6BW7wFbeJ7D0YA5yOpafCKBaZq4kUYvFDB9CXXx_fS_Nc8IAIPuCZJXUgF1tqjQKdNmOwkZpnOXWWIqmkHpsbkGISd9q5W3w0tpSMyZ6XUG1yhdYVg6-DmLqtTpSwpB64HaKpmGG_s9iUOunf-1B2g5teFPPWoEILLYZy_6A8U02bW-LJeioR-Kl05ozDsWCP7vgmPCAFFDDgG8DTdhGGv9PAknqVwBFWP15x0E3oRMDV6X-7P8n-piuw_uqE69trjya2NwvnMuaycLrUUjFVAewAdJuudnreoxHlqFEBCb7XWL99qVb2mc9F4gF5grNko3_-HGaJgiW0D2douDTpgZk4q9IpfkV3w-TPeOu9VlebspxUdrexuiJQrUQwigcN5rYdAr7IiAF0K2fg_iOZgnZsVtW3Iuw_2TkkrbTxpshR5WzFBKJxouH16P_2WovX1LXPBd6X8LF_W30s7sfJ8CsKxyPSeRtDJRcJ0denHLjmlDA8iamZzAC9s1kDPDyEbywH3hwo3Pn72k_eQU0D9EU6oPlSjxPBFh6MxP6cHUawlATWukOroLTtAzNruhpxWrfIASMCA_MaP9gnO3WmeSAi6OAIKSB1JiBX-svw96kh18v_Tda9dY89w4-sWgxrOHxTIsksfNTKvzTUnrHAx9RQBpCg-jZAhSgrnhIiowjq5_Gl6vmFuy-itS879v9B2Wl2HA2K8tfNC-b2NesfhRp2iCKHMcDq-yYv1tz8FDf3WFEYzzdyajHcmYMHbLolKAGyRGsjlsacDph0vikE4KH-ZtRX0ttvphTvHLULgxAMEP0s4sYiTFGnY9K7drWPGNxHpDqlWhgDx9XHIYXJ4mljN-Od5I_cL9eduXijYXbOn7iCBhGeWk159ASK8NrZO6r8lSenMZMTVlwgC0YSfnS3-3PSqplMhYUxmpoH5eWDBU4khmMcWwbexzw04xawzXsyETWFlBz0QtvXSQE2ztRYYzsOJcd0d8SLEKIe6Vm40?></g></svg>