<svg xmlns="http://www.w3.org/2000/svg" xmlns:xlink="http://www.w3.org/1999/xlink" contentStyleType="text/css" data-diagram-type="DESCRIPTION" height="939px" preserveAspectRatio="none" style="width:1790px;height:939px;background:#FAFAFA;" version="1.1" viewBox="0 0 1790 939" width="1790px" zoomAndPan="magnify"><?plantuml 1.2026.5?><defs/><g><rect fill="#FAFAFA" height="939" style="stroke:none;stroke-width:1;" width="1790" x="0" y="0"/><g class="title" data-source-line="1"><text fill="#000000" font-family="sans-serif" font-size="14" font-weight="700" lengthAdjust="spacing" textLength="384.3848" x="699.4265" y="24.5332">Observability stack - metrics, logs, alerts, external probes</text></g><!--cluster Metrics path--><g class="cluster" data-qualified-name="Metrics path" data-source-line="16" id="ent0007"><path d="M8.5,225.6094 L91.9619,225.6094 A3.75,3.75 0 0 1 94.4619,228.1094 L101.4619,249.2188 L251.5,249.2188 A2.5,2.5 0 0 1 254,251.7188 L254,564.6094 A2.5,2.5 0 0 1 251.5,567.1094 L8.5,567.1094 A2.5,2.5 0 0 1 6,564.6094 L6,228.1094 A2.5,2.5 0 0 1 8.5,225.6094" fill="#E6F0FF" style="stroke:#999999;stroke-width:1.5;"/><line style="stroke:#999999;stroke-width:1.5;" x1="6" x2="101.4619" y1="249.2188" y2="249.2188"/><text fill="#000000" font-family="sans-serif" font-size="14" font-weight="700" lengthAdjust="spacing" textLength="82.4619" x="10" y="242.1426">Metrics path</text></g><!--cluster Logs path--><g class="cluster" data-qualified-name="Logs path" data-source-line="21" id="ent0010"><path d="M909.5,234.6094 L977.3828,234.6094 A3.75,3.75 0 0 1 979.8828,237.1094 L986.8828,258.2188 L1228.5,258.2188 A2.5,2.5 0 0 1 1231,260.7188 L1231,564.6094 A2.5,2.5 0 0 1 1228.5,567.1094 L909.5,567.1094 A2.5,2.5 0 0 1 907,564.6094 L907,237.1094 A2.5,2.5 0 0 1 909.5,234.6094" fill="#E6FFE6" style="stroke:#999999;stroke-width:1.5;"/><line style="stroke:#999999;stroke-width:1.5;" x1="907" x2="986.8828" y1="258.2188" y2="258.2188"/><text fill="#000000" font-family="sans-serif" font-size="14" font-weight="700" lengthAdjust="spacing" textLength="66.8828" x="911" y="251.1426">Logs path</text></g><!--cluster Alerts path--><g class="cluster" data-qualified-name="Alerts path" data-source-line="26" id="ent0013"><path d="M351.5,433.1094 L425.624,433.1094 A3.75,3.75 0 0 1 428.124,435.6094 L435.124,456.7188 L608.5,456.7188 A2.5,2.5 0 0 1 611,459.2188 L611,922.1094 A2.5,2.5 0 0 1 608.5,924.6094 L351.5,924.6094 A2.5,2.5 0 0 1 349,922.1094 L349,435.6094 A2.5,2.5 0 0 1 351.5,433.1094" fill="#FFE6E6" style="stroke:#999999;stroke-width:1.5;"/><line style="stroke:#999999;stroke-width:1.5;" x1="349" x2="435.124" y1="456.7188" y2="456.7188"/><text fill="#000000" font-family="sans-serif" font-size="14" font-weight="700" lengthAdjust="spacing" textLength="73.124" x="353" y="449.6426">Alerts path</text></g><!--cluster External probes--><g class="cluster" data-qualified-name="External probes" data-source-line="32" id="ent0017"><path d="M1148.5,633.1094 L1255.3135,633.1094 A3.75,3.75 0 0 1 1257.8135,635.6094 L1264.8135,656.7188 L1367.5,656.7188 A2.5,2.5 0 0 1 1370,659.2188 L1370,921.6094 A2.5,2.5 0 0 1 1367.5,924.1094 L1148.5,924.1094 A2.5,2.5 0 0 1 1146,921.6094 L1146,635.6094 A2.5,2.5 0 0 1 1148.5,633.1094" fill="#FFF0E0" style="stroke:#999999;stroke-width:1.5;"/><line style="stroke:#999999;stroke-width:1.5;" x1="1146" x2="1264.8135" y1="656.7188" y2="656.7188"/><text fill="#000000" font-family="sans-serif" font-size="14" font-weight="700" lengthAdjust="spacing" textLength="105.8135" x="1150" y="649.6426">External probes</text></g><!--entity prom--><g class="entity" data-qualified-name="Metrics path.prom" data-source-line="17" id="ent0008"><rect fill="#FFFFFF" height="82.8281" rx="2.5" ry="2.5" style="stroke:#1168BD;stroke-width:0.5;" width="215.041" x="22.5" y="261.6094"/><rect fill="#FFFFFF" height="10" style="stroke:#1168BD;stroke-width:0.5;" width="15" x="217.541" y="266.6094"/><rect fill="#FFFFFF" height="2" style="stroke:#1168BD;stroke-width:0.5;" width="4" x="215.541" y="268.6094"/><rect fill="#FFFFFF" height="2" style="stroke:#1168BD;stroke-width:0.5;" width="4" x="215.541" y="272.6094"/><text fill="#000000" font-family="sans-serif" font-size="14" lengthAdjust="spacing" textLength="75.4824" x="37.5" y="296.1426">Prometheus</text><text fill="#000000" font-family="sans-serif" font-size="14" lengthAdjust="spacing" textLength="166.5439" x="37.5" y="313.752">(15s scrape, 15d retention,</text><text fill="#000000" font-family="sans-serif" font-size="14" lengthAdjust="spacing" textLength="175.041" x="37.5" y="331.3613">ServiceMonitor CRD-driven)</text></g><!--entity tsdb--><g class="entity" data-qualified-name="Metrics path.tsdb" data-source-line="18" id="ent0009"><path d="M61.5,497.1094 C61.5,487.1094 129.855,487.1094 129.855,487.1094 C129.855,487.1094 198.21,487.1094 198.21,497.1094 L198.21,541.3281 C198.21,551.3281 129.855,551.3281 129.855,551.3281 C129.855,551.3281 61.5,551.3281 61.5,541.3281 L61.5,497.1094" fill="#F1F1F1" style="stroke:#181818;stroke-width:0.5;"/><path d="M61.5,497.1094 C61.5,507.1094 129.855,507.1094 129.855,507.1094 C129.855,507.1094 198.21,507.1094 198.21,497.1094" fill="none" style="stroke:#181818;stroke-width:0.5;"/><text fill="#000000" font-family="sans-serif" font-size="14" lengthAdjust="spacing" textLength="116.71" x="71.5" y="525.6426">Prometheus TSDB</text><text fill="#000000" font-family="sans-serif" font-size="14" lengthAdjust="spacing" textLength="71.5723" x="71.5" y="543.252">(20Gi PVC)</text></g><!--entity promtail--><g class="entity" data-qualified-name="Logs path.promtail" data-source-line="22" id="ent0011"><rect fill="#FFFFFF" height="65.2188" rx="2.5" ry="2.5" style="stroke:#1168BD;stroke-width:0.5;" width="290.5508" x="923.5" y="270.6094"/><rect fill="#FFFFFF" height="10" style="stroke:#1168BD;stroke-width:0.5;" width="15" x="1194.0508" y="275.6094"/><rect fill="#FFFFFF" height="2" style="stroke:#1168BD;stroke-width:0.5;" width="4" x="1192.0508" y="277.6094"/><rect fill="#FFFFFF" height="2" style="stroke:#1168BD;stroke-width:0.5;" width="4" x="1192.0508" y="281.6094"/><text fill="#000000" font-family="sans-serif" font-size="14" lengthAdjust="spacing" textLength="51.3447" x="938.5" y="305.1426">Promtail</text><text fill="#000000" font-family="sans-serif" font-size="14" lengthAdjust="spacing" textLength="250.5508" x="938.5" y="322.752">(DaemonSet in prod / Docker SD in dev)</text></g><!--entity loki--><g class="entity" data-qualified-name="Logs path.loki" data-source-line="23" id="ent0012"><path d="M923.5,497.1094 C923.5,487.1094 1014.8169,487.1094 1014.8169,487.1094 C1014.8169,487.1094 1106.1338,487.1094 1106.1338,497.1094 L1106.1338,541.3281 C1106.1338,551.3281 1014.8169,551.3281 1014.8169,551.3281 C1014.8169,551.3281 923.5,551.3281 923.5,541.3281 L923.5,497.1094" fill="#F1F1F1" style="stroke:#181818;stroke-width:0.5;"/><path d="M923.5,497.1094 C923.5,507.1094 1014.8169,507.1094 1014.8169,507.1094 C1014.8169,507.1094 1106.1338,507.1094 1106.1338,497.1094" fill="none" style="stroke:#181818;stroke-width:0.5;"/><text fill="#000000" font-family="sans-serif" font-size="14" lengthAdjust="spacing" textLength="25.6826" x="933.5" y="525.6426">Loki</text><text fill="#000000" font-family="sans-serif" font-size="14" lengthAdjust="spacing" textLength="162.6338" x="933.5" y="543.252">(10Gi PVC, label-indexed)</text></g><!--entity am--><g class="entity" data-qualified-name="Alerts path.am" data-source-line="27" id="ent0014"><rect fill="#FFFFFF" height="100.4375" rx="2.5" ry="2.5" style="stroke:#1168BD;stroke-width:0.5;" width="229.4854" x="365.5" y="469.1094"/><rect fill="#FFFFFF" height="10" style="stroke:#1168BD;stroke-width:0.5;" width="15" x="574.9854" y="474.1094"/><rect fill="#FFFFFF" height="2" style="stroke:#1168BD;stroke-width:0.5;" width="4" x="572.9854" y="476.1094"/><rect fill="#FFFFFF" height="2" style="stroke:#1168BD;stroke-width:0.5;" width="4" x="572.9854" y="480.1094"/><text fill="#000000" font-family="sans-serif" font-size="14" lengthAdjust="spacing" textLength="84.041" x="380.5" y="503.6426">Alertmanager</text><text fill="#000000" font-family="sans-serif" font-size="14" lengthAdjust="spacing" textLength="189.4854" x="380.5" y="521.252">(group_by alertname+severity,</text><text fill="#000000" font-family="sans-serif" font-size="14" lengthAdjust="spacing" textLength="123.751" x="380.5" y="538.8613">repeat_interval 12h,</text><text fill="#000000" font-family="sans-serif" font-size="14" lengthAdjust="spacing" textLength="146.665" x="380.5" y="556.4707">inhibit critical-&gt;warning)</text></g><!--entity aiops--><g class="entity" data-qualified-name="Alerts path.aiops" data-source-line="28" id="ent0015"><rect fill="#FFFFFF" height="82.8281" rx="2.5" ry="2.5" style="stroke:#1168BD;stroke-width:0.5;" width="189.0234" x="405.5" y="660.1094"/><rect fill="#FFFFFF" height="10" style="stroke:#1168BD;stroke-width:0.5;" width="15" x="574.5234" y="665.1094"/><rect fill="#FFFFFF" height="2" style="stroke:#1168BD;stroke-width:0.5;" width="4" x="572.5234" y="667.1094"/><rect fill="#FFFFFF" height="2" style="stroke:#1168BD;stroke-width:0.5;" width="4" x="572.5234" y="671.1094"/><text fill="#000000" font-family="sans-serif" font-size="14" lengthAdjust="spacing" textLength="98.834" x="420.5" y="694.6426">AIOps webhook</text><text fill="#000000" font-family="sans-serif" font-size="14" lengthAdjust="spacing" textLength="149.0234" x="420.5" y="712.252">(Python 3.14 + FastAPI,</text><text fill="#000000" font-family="sans-serif" font-size="14" lengthAdjust="spacing" textLength="132.3096" x="420.5" y="729.8613">graceful degradation)</text></g><!--entity claude--><g class="entity" data-qualified-name="Alerts path.claude" data-source-line="29" id="ent0016"><rect fill="#FFFFFF" height="65.2188" rx="2.5" ry="2.5" style="stroke:#1168BD;stroke-width:0.5;" width="220.5576" x="368.5" y="843.6094"/><rect fill="#FFFFFF" height="10" style="stroke:#1168BD;stroke-width:0.5;" width="15" x="569.0576" y="848.6094"/><rect fill="#FFFFFF" height="2" style="stroke:#1168BD;stroke-width:0.5;" width="4" x="567.0576" y="850.6094"/><rect fill="#FFFFFF" height="2" style="stroke:#1168BD;stroke-width:0.5;" width="4" x="567.0576" y="854.6094"/><text fill="#000000" font-family="sans-serif" font-size="14" lengthAdjust="spacing" textLength="84.0479" x="383.5" y="878.1426">Claude Haiku</text><text fill="#000000" font-family="sans-serif" font-size="14" lengthAdjust="spacing" textLength="180.5576" x="383.5" y="895.752">(claude-haiku-4-5-20251001)</text></g><!--entity kuma--><g class="entity" data-qualified-name="External probes.kuma" data-source-line="33" id="ent0018"><rect fill="#FFFFFF" height="65.2188" rx="2.5" ry="2.5" style="stroke:#1168BD;stroke-width:0.5;" width="190.5889" x="1162.5" y="669.1094"/><rect fill="#FFFFFF" height="10" style="stroke:#1168BD;stroke-width:0.5;" width="15" x="1333.0889" y="674.1094"/><rect fill="#FFFFFF" height="2" style="stroke:#1168BD;stroke-width:0.5;" width="4" x="1331.0889" y="676.1094"/><rect fill="#FFFFFF" height="2" style="stroke:#1168BD;stroke-width:0.5;" width="4" x="1331.0889" y="680.1094"/><text fill="#000000" font-family="sans-serif" font-size="14" lengthAdjust="spacing" textLength="84.8066" x="1177.5" y="703.6426">Uptime Kuma</text><text fill="#000000" font-family="sans-serif" font-size="14" lengthAdjust="spacing" textLength="150.5889" x="1177.5" y="721.252">(StatefulSet + seed Job)</text></g><!--entity kumadb--><g class="entity" data-qualified-name="External probes.kumadb" data-source-line="34" id="ent0019"><path d="M1206.5,854.1094 C1206.5,844.1094 1258.1309,844.1094 1258.1309,844.1094 C1258.1309,844.1094 1309.7617,844.1094 1309.7617,854.1094 L1309.7617,898.3281 C1309.7617,908.3281 1258.1309,908.3281 1258.1309,908.3281 C1258.1309,908.3281 1206.5,908.3281 1206.5,898.3281 L1206.5,854.1094" fill="#F1F1F1" style="stroke:#181818;stroke-width:0.5;"/><path d="M1206.5,854.1094 C1206.5,864.1094 1258.1309,864.1094 1258.1309,864.1094 C1258.1309,864.1094 1309.7617,864.1094 1309.7617,854.1094" fill="none" style="stroke:#181818;stroke-width:0.5;"/><text fill="#000000" font-family="sans-serif" font-size="14" lengthAdjust="spacing" textLength="83.2617" x="1216.5" y="882.6426">Kuma SQLite</text><text fill="#000000" font-family="sans-serif" font-size="14" lengthAdjust="spacing" textLength="63.7861" x="1216.5" y="900.252">(2Gi PVC)</text></g><!--entity op--><g class="entity" data-qualified-name="op" data-source-line="9" id="ent0001"><ellipse cx="834.0723" cy="65.1094" fill="#F1F1F1" rx="8" ry="8" style="stroke:#181818;stroke-width:0.5;"/><path d="M834.0723,73.1094 L834.0723,100.1094 M821.0723,81.1094 L847.0723,81.1094 M834.0723,100.1094 L821.0723,115.1094 M834.0723,100.1094 L847.0723,115.1094" fill="none" style="stroke:#181818;stroke-width:0.5;"/><text fill="#000000" font-family="sans-serif" font-size="14" lengthAdjust="spacing" textLength="108.1445" x="780" y="131.1426">Operator (Admin)</text></g><!--entity slack--><g class="entity" data-qualified-name="slack" data-source-line="10" id="ent0002"><ellipse cx="671.0825" cy="845.6094" fill="#F1F1F1" rx="8" ry="8" style="stroke:#181818;stroke-width:0.5;"/><path d="M671.0825,853.6094 L671.0825,880.6094 M658.0825,861.6094 L684.0825,861.6094 M671.0825,880.6094 L658.0825,895.6094 M671.0825,880.6094 L684.0825,895.6094" fill="none" style="stroke:#181818;stroke-width:0.5;"/><text fill="#000000" font-family="sans-serif" font-size="14" lengthAdjust="spacing" textLength="87.165" x="627.5" y="911.6426">Slack channel</text></g><!--entity user--><g class="entity" data-qualified-name="user" data-source-line="11" id="ent0003"><ellipse cx="1074.8721" cy="845.6094" fill="#F1F1F1" rx="8" ry="8" style="stroke:#181818;stroke-width:0.5;"/><path d="M1074.8721,853.6094 L1074.8721,880.6094 M1061.8721,861.6094 L1087.8721,861.6094 M1074.8721,880.6094 L1061.8721,895.6094 M1074.8721,880.6094 L1087.8721,895.6094" fill="none" style="stroke:#181818;stroke-width:0.5;"/><text fill="#000000" font-family="sans-serif" font-size="14" lengthAdjust="spacing" textLength="109.7441" x="1020" y="911.6426">Tenant / Landlord</text></g><!--entity api--><g class="entity" data-qualified-name="api" data-source-line="12" id="ent0004"><rect fill="#FFFFFF" height="65.2188" rx="2.5" ry="2.5" style="stroke:#1168BD;stroke-width:0.5;" width="206.9131" x="414.5" y="63.1094"/><rect fill="#FFFFFF" height="10" style="stroke:#1168BD;stroke-width:0.5;" width="15" x="601.4131" y="68.1094"/><rect fill="#FFFFFF" height="2" style="stroke:#1168BD;stroke-width:0.5;" width="4" x="599.4131" y="70.1094"/><rect fill="#FFFFFF" height="2" style="stroke:#1168BD;stroke-width:0.5;" width="4" x="599.4131" y="74.1094"/><text fill="#000000" font-family="sans-serif" font-size="14" lengthAdjust="spacing" textLength="75.4756" x="429.5" y="97.6426">API process</text><text fill="#000000" font-family="sans-serif" font-size="14" lengthAdjust="spacing" textLength="166.9131" x="429.5" y="115.252">(prometheus-net + Serilog)</text></g><!--entity others--><g class="entity" data-qualified-name="others" data-source-line="13" id="ent0005"><rect fill="#FFFFFF" height="100.4375" rx="2.5" ry="2.5" style="stroke:#1168BD;stroke-width:0.5;" width="218.1719" x="960" y="45.6094"/><rect fill="#FFFFFF" height="10" style="stroke:#1168BD;stroke-width:0.5;" width="15" x="1158.1719" y="50.6094"/><rect fill="#FFFFFF" height="2" style="stroke:#1168BD;stroke-width:0.5;" width="4" x="1156.1719" y="52.6094"/><rect fill="#FFFFFF" height="2" style="stroke:#1168BD;stroke-width:0.5;" width="4" x="1156.1719" y="56.6094"/><text fill="#000000" font-family="sans-serif" font-size="14" lengthAdjust="spacing" textLength="119.8408" x="975" y="80.1426">All other containers</text><text fill="#000000" font-family="sans-serif" font-size="14" lengthAdjust="spacing" textLength="178.1719" x="975" y="97.752">(Postgres, Redis, RabbitMQ,</text><text fill="#000000" font-family="sans-serif" font-size="14" lengthAdjust="spacing" textLength="171.1924" x="975" y="115.3613">Keycloak, Frontend, AIOps,</text><text fill="#000000" font-family="sans-serif" font-size="14" lengthAdjust="spacing" textLength="133.0547" x="975" y="132.9707">Loki, Prometheus, ...)</text></g><!--entity public--><g class="entity" data-qualified-name="public" data-source-line="14" id="ent0006"><rect fill="#FFFFFF" height="65.2188" rx="2.5" ry="2.5" style="stroke:#1168BD;stroke-width:0.5;" width="234.5576" x="749.5" y="843.6094"/><rect fill="#FFFFFF" height="10" style="stroke:#1168BD;stroke-width:0.5;" width="15" x="964.0576" y="848.6094"/><rect fill="#FFFFFF" height="2" style="stroke:#1168BD;stroke-width:0.5;" width="4" x="962.0576" y="850.6094"/><rect fill="#FFFFFF" height="2" style="stroke:#1168BD;stroke-width:0.5;" width="4" x="962.0576" y="854.6094"/><text fill="#000000" font-family="sans-serif" font-size="14" lengthAdjust="spacing" textLength="75.4824" x="764.5" y="878.1426">Public hosts</text><text fill="#000000" font-family="sans-serif" font-size="14" lengthAdjust="spacing" textLength="194.5576" x="764.5" y="895.752">app.X / api.X / auth.X / status.X</text></g><!--entity grafana--><g class="entity" data-qualified-name="grafana" data-source-line="37" id="ent0020"><rect fill="#FFFFFF" height="100.4375" rx="2.5" ry="2.5" style="stroke:#1168BD;stroke-width:0.5;" width="205.3887" x="465.5" y="253.1094"/><rect fill="#FFFFFF" height="10" style="stroke:#1168BD;stroke-width:0.5;" width="15" x="650.8887" y="258.1094"/><rect fill="#FFFFFF" height="2" style="stroke:#1168BD;stroke-width:0.5;" width="4" x="648.8887" y="260.1094"/><rect fill="#FFFFFF" height="2" style="stroke:#1168BD;stroke-width:0.5;" width="4" x="648.8887" y="264.1094"/><text fill="#000000" font-family="sans-serif" font-size="14" lengthAdjust="spacing" textLength="50.5859" x="480.5" y="287.6426">Grafana</text><text fill="#000000" font-family="sans-serif" font-size="14" lengthAdjust="spacing" textLength="143.958" x="480.5" y="305.252">(Helm dep, provisioned</text><text fill="#000000" font-family="sans-serif" font-size="14" lengthAdjust="spacing" textLength="165.3887" x="480.5" y="322.8613">dashboards + datasources</text><text fill="#000000" font-family="sans-serif" font-size="14" lengthAdjust="spacing" textLength="71.5791" x="480.5" y="340.4707">via sidecar)</text></g><g class="entity" data-qualified-name="GMN31" data-source-line="55" id="ent0032"><path d="M1389,664.1094 L1389,739.5156 L1775.2378,739.5156 L1775.2378,674.1094 L1765.2378,664.1094 L1389,664.1094" fill="#FEFFDD" style="stroke:#181818;stroke-width:0.5;"/><path d="M1765.2378,664.1094 L1765.2378,674.1094 L1775.2378,674.1094 L1765.2378,664.1094" fill="#FEFFDD" style="stroke:#181818;stroke-width:1;"/><text fill="#000000" font-family="sans-serif" font-size="13" lengthAdjust="spacing" textLength="125.0234" x="1395" y="682.6045">Graceful degradation:</text><text fill="#000000" font-family="sans-serif" font-size="13" lengthAdjust="spacing" textLength="355.1069" x="1395" y="698.9561">- ANTHROPIC_API_KEY empty -&gt; raw labels posted to Slack</text><text fill="#000000" font-family="sans-serif" font-size="13" lengthAdjust="spacing" textLength="365.2378" x="1395" y="715.3076">- SLACK_WEBHOOK_URL empty -&gt; message bodies to stdout</text><text fill="#000000" font-family="sans-serif" font-size="13" lengthAdjust="spacing" textLength="228.668" x="1402.2236" y="731.6592">(-&gt; Promtail -&gt; Loki -&gt; Grafana Explore)</text></g><!--link api to prom--><g class="link" data-entity-1="ent0004" data-entity-2="ent0008" data-link-type="dependency" data-source-line="40" id="lnk21"><path d="M458.23,128.2694 C390.63,164.0694 284.7985,220.1191 210.9585,259.2291" fill="none" id="api-to-prom" style="stroke:#181818;stroke-width:1;"/><polygon fill="#181818" points="206.54,261.5694,216.3655,260.8916,210.9585,259.2291,212.621,253.8221,206.54,261.5694" style="stroke:#181818;stroke-width:1;stroke-linejoin:miter;stroke-miterlimit:10;"/><text fill="#000000" font-family="sans-serif" font-size="13" lengthAdjust="spacing" textLength="75.8354" x="359" y="198.1045">GET /metrics</text></g><!--link prom to tsdb--><g class="link" data-entity-1="ent0008" data-entity-2="ent0009" data-link-type="dependency" data-source-line="41" id="lnk22"><path d="M82.67,344.7394 C72.63,356.0394 63.43,369.0894 58,383.1094 C52.54,397.1994 53.4,402.7194 58,417.1094 C66.33,443.1594 80.8858,464.4062 96.6958,483.0462" fill="none" id="prom-to-tsdb" style="stroke:#181818;stroke-width:1;"/><polygon fill="#181818" points="99.93,486.8594,97.1589,477.4084,96.6958,483.0462,91.0579,482.5831,99.93,486.8594" style="stroke:#181818;stroke-width:1;stroke-linejoin:miter;stroke-miterlimit:10;"/><text fill="#000000" font-family="sans-serif" font-size="13" lengthAdjust="spacing" textLength="27.4473" x="59" y="405.6045">write</text></g><!--link prom to am--><g class="link" data-entity-1="ent0008" data-entity-2="ent0014" data-link-type="dependency" data-source-line="42" id="lnk23"><path d="M116.09,344.6694 C110.62,368.7694 109.27,398.2294 127,417.1094 C136.68,427.4194 240.22,421.9294 254,425.1094 C296.89,434.9994 337.5588,450.1462 376.2088,467.0462" fill="none" id="prom-to-am" style="stroke:#181818;stroke-width:1;"/><polygon fill="#181818" points="380.79,469.0494,374.1464,461.7787,376.2088,467.0462,370.9413,469.1086,380.79,469.0494" style="stroke:#181818;stroke-width:1;stroke-linejoin:miter;stroke-miterlimit:10;"/><text fill="#000000" font-family="sans-serif" font-size="13" lengthAdjust="spacing" textLength="200.8335" x="128" y="405.6045">fire alerts (PrometheusRule CRDs)</text></g><!--link api to loki--><g class="link" data-entity-1="ent0004" data-entity-2="ent0012" data-link-type="dependency" data-source-line="45" id="lnk24"><path d="M570.41,128.2594 C605.62,150.8394 651.99,183.1894 688,217.6094 C743.28,270.4394 739.33,299.6594 794,353.1094 C847.92,405.8294 914.9769,453.3852 961.7969,484.2852" fill="none" id="api-to-loki" style="stroke:#181818;stroke-width:1;"/><polygon fill="#181818" points="965.97,487.0394,960.6617,478.7435,961.7969,484.2852,956.2551,485.4204,965.97,487.0394" style="stroke:#181818;stroke-width:1;stroke-linejoin:miter;stroke-miterlimit:10;"/><text fill="#000000" font-family="sans-serif" font-size="13" lengthAdjust="spacing" textLength="110.189" x="795" y="300.6045">Serilog -&gt; Loki sink</text><text fill="#000000" font-family="sans-serif" font-size="13" lengthAdjust="spacing" textLength="105.4727" x="797.3582" y="316.9561">(structured, direct)</text></g><!--link others to promtail--><g class="link" data-entity-1="ent0005" data-entity-2="ent0011" data-link-type="dependency" data-source-line="46" id="lnk25"><path d="M1069,145.8294 C1069,184.5394 1069,232.3094 1069,265.5494" fill="none" id="others-to-promtail" style="stroke:#181818;stroke-width:1;"/><polygon fill="#181818" points="1069,270.5494,1073,261.5494,1069,265.5494,1065,261.5494,1069,270.5494" style="stroke:#181818;stroke-width:1;stroke-linejoin:miter;stroke-miterlimit:10;"/><text fill="#000000" font-family="sans-serif" font-size="13" lengthAdjust="spacing" textLength="35.4136" x="1070" y="198.1045">stdout</text></g><!--link promtail to loki--><g class="link" data-entity-1="ent0011" data-entity-2="ent0012" data-link-type="dependency" data-source-line="47" id="lnk26"><path d="M1061.03,335.6894 C1050.76,376.3794 1034.2423,441.8311 1024.0523,482.2511" fill="none" id="promtail-to-loki" style="stroke:#181818;stroke-width:1;"/><polygon fill="#181818" points="1022.83,487.0994,1028.9087,479.3502,1024.0523,482.2511,1021.1514,477.3946,1022.83,487.0994" style="stroke:#181818;stroke-width:1;stroke-linejoin:miter;stroke-miterlimit:10;"/><text fill="#000000" font-family="sans-serif" font-size="13" lengthAdjust="spacing" textLength="65.7427" x="1049" y="405.6045">HTTP push</text></g><!--link am to aiops--><g class="link" data-entity-1="ent0014" data-entity-2="ent0015" data-link-type="dependency" data-source-line="50" id="lnk27"><path d="M485.47,569.4294 C488.61,597.8194 491.9695,628.0998 494.9395,654.9098" fill="none" id="am-to-aiops" style="stroke:#181818;stroke-width:1;"/><polygon fill="#181818" points="495.49,659.8794,498.4747,650.4937,494.9395,654.9098,490.5234,651.3745,495.49,659.8794" style="stroke:#181818;stroke-width:1;stroke-linejoin:miter;stroke-miterlimit:10;"/><text fill="#000000" font-family="sans-serif" font-size="13" lengthAdjust="spacing" textLength="130.0571" x="491" y="613.6045">webhook POST /alerts</text></g><!--link aiops to claude--><g class="link" data-entity-1="ent0015" data-entity-2="ent0016" data-link-type="dependency" data-source-line="51" id="lnk28"><path d="M421.49,743.5094 C411.65,751.9594 402.96,761.7994 397,773.1094 C383.43,798.8394 400.0209,821.2219 423.9209,840.2819" fill="none" id="aiops-to-claude" style="stroke:#181818;stroke-width:1;"/><polygon fill="#181818" points="427.83,843.3994,423.2876,834.6606,423.9209,840.2819,418.2996,840.9152,427.83,843.3994" style="stroke:#181818;stroke-width:1;stroke-linejoin:miter;stroke-miterlimit:10;"/><text fill="#000000" font-family="sans-serif" font-size="13" lengthAdjust="spacing" textLength="76.5908" x="398" y="795.6045">triage prompt</text></g><!--link claude to aiops--><g class="link" data-entity-1="ent0016" data-entity-2="ent0015" data-link-type="dependency" data-source-line="52" id="lnk29"><path d="M482.86,843.4194 C486.28,815.2994 490.6964,779.0428 494.4164,748.4528" fill="none" id="claude-to-aiops" style="stroke:#181818;stroke-width:1;"/><polygon fill="#181818" points="495.02,743.4894,489.9628,751.9407,494.4164,748.4528,497.9043,752.9064,495.02,743.4894" style="stroke:#181818;stroke-width:1;stroke-linejoin:miter;stroke-miterlimit:10;"/><text fill="#000000" font-family="sans-serif" font-size="13" lengthAdjust="spacing" textLength="57.0845" x="492" y="795.6045">triage text</text></g><!--link aiops to slack--><g class="link" data-entity-1="ent0015" data-entity-2="ent0002" data-link-type="dependency" data-source-line="53" id="lnk30"><path d="M540.52,743.4894 C568.57,771.7894 602.1299,805.6385 629.5899,833.3385" fill="none" id="aiops-to-slack" style="stroke:#181818;stroke-width:1;"/><polygon fill="#181818" points="633.11,836.8894,629.6145,827.6817,629.5899,833.3385,623.9331,833.3139,633.11,836.8894" style="stroke:#181818;stroke-width:1;stroke-linejoin:miter;stroke-miterlimit:10;"/><text fill="#000000" font-family="sans-serif" font-size="13" lengthAdjust="spacing" textLength="131.4917" x="601" y="795.6045">rich Block Kit message</text></g><!--link aiops to GMN31--><g class="link" data-entity-1="ent0015" data-entity-2="ent0032" data-link-type="association" data-source-line="55" id="lnk33"><path d="M594.56,670.4294 C752.82,622.6694 1080.71,542.6894 1352.5,600.1094 C1410.68,612.3994 1472.07,640.4394 1516.7,663.9394" fill="none" id="aiops-GMN31" style="stroke:#181818;stroke-width:1;stroke-dasharray:7,7;"/></g><!--link kuma to public--><g class="link" data-entity-1="ent0018" data-entity-2="ent0006" data-link-type="dependency" data-source-line="62" id="lnk34"><path d="M1162.36,723.9294 C1117.92,735.5894 1065.08,751.9994 1020,773.1094 C979.24,792.1994 940.9666,818.2082 911.2166,840.4182" fill="none" id="kuma-to-public" style="stroke:#181818;stroke-width:1;"/><polygon fill="#181818" points="907.21,843.4094,916.8148,841.2306,911.2166,840.4182,912.029,834.82,907.21,843.4094" style="stroke:#181818;stroke-width:1;stroke-linejoin:miter;stroke-miterlimit:10;"/><text fill="#000000" font-family="sans-serif" font-size="13" lengthAdjust="spacing" textLength="85.9727" x="1021" y="787.6045">HTTPS probes</text><text fill="#000000" font-family="sans-serif" font-size="13" lengthAdjust="spacing" textLength="65.019" x="1031.4768" y="803.9561">(every 60s)</text></g><!--link kuma to kumadb--><g class="link" data-entity-1="ent0018" data-entity-2="ent0019" data-link-type="dependency" data-source-line="63" id="lnk35"><path d="M1258,734.2494 C1258,765.4694 1258,807.9094 1258,838.9594" fill="none" id="kuma-to-kumadb" style="stroke:#181818;stroke-width:1;"/><polygon fill="#181818" points="1258,843.9594,1262,834.9594,1258,838.9594,1254,834.9594,1258,843.9594" style="stroke:#181818;stroke-width:1;stroke-linejoin:miter;stroke-miterlimit:10;"/><text fill="#000000" font-family="sans-serif" font-size="13" lengthAdjust="spacing" textLength="80.1899" x="1259" y="795.6045">persist results</text></g><!--link kuma to slack--><g class="link" data-entity-1="ent0018" data-entity-2="ent0002" data-link-type="dependency" data-source-line="64" id="lnk36"><path d="M1162.46,714.1394 C1084.72,724.9894 972.76,743.9794 878,773.1094 C810.28,793.9294 794.67,804.0694 732,837.1094 C726.26,840.1394 724.6405,840.9487 718.8405,844.3887" fill="none" id="kuma-to-slack" style="stroke:#181818;stroke-width:1;"/><polygon fill="#181818" points="714.54,846.9394,724.3214,845.7886,718.8405,844.3887,720.2404,838.9078,714.54,846.9394" style="stroke:#181818;stroke-width:1;stroke-linejoin:miter;stroke-miterlimit:10;"/><text fill="#000000" font-family="sans-serif" font-size="13" lengthAdjust="spacing" textLength="74.4453" x="879" y="795.6045">outage notify</text></g><!--link kuma to user--><g class="link" data-entity-1="ent0018" data-entity-2="ent0003" data-link-type="dependency" data-source-line="65" id="lnk37"><path d="M1196.31,734.2594 C1178.3,745.1494 1159.36,758.3594 1144,773.1094 C1124.72,791.6194 1110.3857,812.0779 1098.1357,832.5679" fill="none" id="kuma-to-user" style="stroke:#181818;stroke-width:1;"/><polygon fill="#181818" points="1095.57,836.8594,1103.6215,831.1872,1098.1357,832.5679,1096.755,827.0821,1095.57,836.8594" style="stroke:#181818;stroke-width:1;stroke-linejoin:miter;stroke-miterlimit:10;"/><text fill="#000000" font-family="sans-serif" font-size="13" lengthAdjust="spacing" textLength="104.7935" x="1145" y="787.6045">public status page</text><text fill="#000000" font-family="sans-serif" font-size="13" lengthAdjust="spacing" textLength="55.6245" x="1169.5845" y="803.9561">(status.X)</text></g><!--link grafana to tsdb--><g class="link" data-entity-1="ent0020" data-entity-2="ent0009" data-link-type="dependency" data-source-line="68" id="lnk38"><path d="M465.48,340.6694 C436.14,352.6794 404.64,367.0994 377,383.1094 C355.62,395.4994 353.94,403.9894 333,417.1094 C289.97,444.0694 243.2982,467.4107 203.0782,486.0107" fill="none" id="grafana-to-tsdb" style="stroke:#181818;stroke-width:1;"/><polygon fill="#181818" points="198.54,488.1094,208.3878,487.9622,203.0782,486.0107,205.0298,480.7011,198.54,488.1094" style="stroke:#181818;stroke-width:1;stroke-linejoin:miter;stroke-miterlimit:10;"/><text fill="#000000" font-family="sans-serif" font-size="13" lengthAdjust="spacing" textLength="48.4009" x="422.4368" y="397.6045">PromQL</text><text fill="#000000" font-family="sans-serif" font-size="13" lengthAdjust="spacing" textLength="137.2744" x="378" y="413.9561">(api-metrics dashboard)</text></g><!--link grafana to loki--><g class="link" data-entity-1="ent0020" data-entity-2="ent0012" data-link-type="dependency" data-source-line="69" id="lnk39"><path d="M592.17,353.3094 C605.49,375.7594 624.02,400.8994 647,417.1094 C729.43,475.2494 839.0131,499.3044 918.3231,509.7844" fill="none" id="grafana-to-loki" style="stroke:#181818;stroke-width:1;"/><polygon fill="#181818" points="923.28,510.4394,914.8816,505.2948,918.3231,509.7844,913.8336,513.2259,923.28,510.4394" style="stroke:#181818;stroke-width:1;stroke-linejoin:miter;stroke-miterlimit:10;"/><text fill="#000000" font-family="sans-serif" font-size="13" lengthAdjust="spacing" textLength="39.0317" x="688.1013" y="397.6045">LogQL</text><text fill="#000000" font-family="sans-serif" font-size="13" lengthAdjust="spacing" textLength="119.2344" x="648" y="413.9561">(api-logs dashboard)</text></g><!--link grafana to am--><g class="link" data-entity-1="ent0020" data-entity-2="ent0014" data-link-type="dependency" data-source-line="70" id="lnk40"><path d="M547.81,353.2094 C533.55,387.8794 516.4217,429.5451 502.1517,464.2451" fill="none" id="grafana-to-am" style="stroke:#181818;stroke-width:1;"/><polygon fill="#181818" points="500.25,468.8694,507.3724,462.0671,502.1517,464.2451,499.9736,459.0244,500.25,468.8694" style="stroke:#181818;stroke-width:1;stroke-linejoin:miter;stroke-miterlimit:10;"/><text fill="#000000" font-family="sans-serif" font-size="13" lengthAdjust="spacing" textLength="57.0845" x="535" y="405.6045">alert state</text></g><!--link op to grafana--><g class="link" data-entity-1="ent0001" data-entity-2="ent0020" data-link-type="dependency" data-source-line="71" id="lnk41"><path d="M784.59,134.7794 C741.47,168.0894 682.5969,213.5827 635.6969,249.8127" fill="none" id="op-to-grafana" style="stroke:#181818;stroke-width:1;"/><polygon fill="#181818" points="631.74,252.8694,641.3077,250.5329,635.6969,249.8127,636.417,244.2019,631.74,252.8694" style="stroke:#181818;stroke-width:1;stroke-linejoin:miter;stroke-miterlimit:10;"/><text fill="#000000" font-family="sans-serif" font-size="13" lengthAdjust="spacing" textLength="97.5571" x="762.5654" y="190.1045">view dashboards</text><text fill="#000000" font-family="sans-serif" font-size="13" lengthAdjust="spacing" textLength="172.688" x="725" y="206.4561">(secret-backed admin in prod)</text></g><?plantuml-src TLRlJ-Cu4FsUlsB4VZZGDcpBBkYeT2iLQ66FxhLBsRiz2GavoT1OJUt8TifMf_lVxpbEsnIu8f7KVfuVRzvuwgGhc2Q9PRCIYIoaMvDr8brGJ4jsHgQsGuMUuxyes3Wy-QTZeqH1fT49soYo2wbAOSIIBd1mRdIbiajTQ4FlHWF_rqAaUbbgnSgzXjQVDw7QP6mQMAztzckIjM0b38avxu7Epy_VGBpmw8nG5WXuY2AHEYmTJ4esmhyT3hAbL4S7X8-mfCiDObPuSj9SACL5lHqGrgzlGFUiX7BqWSP2PV2L7GHG1PgZRLvqC9X-yIocREs3EiGRAC-vih5YH-zfnaQ2UqI1iwAKUqUBWZJ01Zmf9wHYusrCjNLpmoZJ7MVIFqIIIFVrM-T1tV8wBRHOT6XaS8PLrg71bqbfiJVM2zcXwJQ23XqV7mV7jHVRzZsjaaAcbCCNV8goFFw1N15WU5Okhr-W8rVPun-rbR8-4qLDCUZWQr0NgkFo0tetF1jrHoFw9_9yjdrjGq9slLCGdHfHSeTwfnaPHXPEQeKCGDPAflnLA-bhS7bt5MT6hbY5B3ovjUrCE948ozIsJVUpgmiuEEbUIvh-UHdEE9ibqR-jcCTeX5R0e-7Psm6Z7WMiNGbUQWJcI2eVG0PIhdIwGD5cLtujuzKkEd_ePOI-B3xl9YoqeaYuYANA-2TduMm1p5wKWxfHDt7wAD-AiqOjXS8H0nU-Cyh7P1tQN8ablxUyWW3T6kGQBbcuHmdLu9ueg7UIOrMgN49Sb08bKr74dv-5mUf6iSjNFhtQw9cJNEk5L-lQvLhHn-FU9yXz9An3Hy3mt8YKdwe21E4LVA34ZKsfI_lIx6KXgepfHiX51Qjf_JNE_TVuKtmQdtHFJdlTRY-O2DjxZ0tthxIQjL5ts7tDslVIoINJRRKKy3I3mdsSixfTBND6l-iak5a0yhAS_XZDlesbOo-sjjOyFAYjvUtQY2TK2DWRBfPWe-pu45VIWX3E7bGcR9veOJ8B_zwHrPN1TVAWLbAGbHcdmWG7ys0hYdwXt-eFjJkmMOlGnE5AY-FFjIhzUv-kX_VqePa7qMQvnlWU2PXdg83tDqLunUQJDDnC43hSzTrTXUc3LhL7hRYsNVPcK5xkmMPpFH8MVPyWNUL5PPsfKbSPnlMMmMtgZg9mXxNIyitMnmsLwSf5cuKNzc_kxwUujspUYgtLMzleMlbwTTPS18dJT383SI7lgDdrmA110C6eLw2Fe7HHixndga4uZDssXNhU-7sK9AUB0jSAtQ8NbvWbm4TAEyRUF7UadxPjS_r6O_Mn7jFWZ_kRkydqo-KZMl3nTlWtCI9QUtADU0xt3lB6bG-HEqtr7AnFpiQ3ozl7luONDvF9xUFtk_7kP1CC9JgJRFsnXd5Fs240qotpJGtnR4HFmvybHYSVHHXKvDDfbU55msvAuPieb3XCg4qLPmqEwl1tsfhEkb3S5XrwhqPZ_bjf7IQBhGhKR8jf-FOO9E2JGaZoQRr3-E7UgBrn7mOWn3BdMfTX7BQbliaLCznMO0tbsEJIzEkkoVerMz_6C8M6Y9jkfEqLSBHtf9Pnt_VIzeJ_6VT_y5h4_T2XTTmSwNBNT1jedrQIdtT6FAEMKypXE04_a8Rmlvisy-ue-Wy0?></g></svg>