<svg xmlns="http://www.w3.org/2000/svg" xmlns:xlink="http://www.w3.org/1999/xlink" contentStyleType="text/css" data-diagram-type="DESCRIPTION" height="939px" preserveAspectRatio="none" style="width:1574px;height:939px;background:#FAFAFA;" version="1.1" viewBox="0 0 1574 939" width="1574px" zoomAndPan="magnify"><?plantuml 1.2026.6?><defs/><g><rect fill="#FAFAFA" height="939" style="stroke:none;stroke-width:1;" width="1574" x="0" y="0"/><g class="title" data-source-line="1"><text fill="#000000" font-family="sans-serif" font-size="14" font-weight="700" lengthAdjust="spacing" textLength="384.3848" x="591.5847" y="24.5332">Observability stack - metrics, logs, alerts, external probes</text></g><!--cluster Metrics path--><g class="cluster" data-qualified-name="Metrics path" data-source-line="16" id="ent0007"><path d="M564.5,225.6094 L647.9619,225.6094 A3.75,3.75 0 0 1 650.4619,228.1094 L657.4619,249.2188 L849.5,249.2188 A2.5,2.5 0 0 1 852,251.7188 L852,564.6094 A2.5,2.5 0 0 1 849.5,567.1094 L564.5,567.1094 A2.5,2.5 0 0 1 562,564.6094 L562,228.1094 A2.5,2.5 0 0 1 564.5,225.6094" fill="#E6F0FF" style="stroke:#999999;stroke-width:1.5;"/><line style="stroke:#999999;stroke-width:1.5;" x1="562" x2="657.4619" y1="249.2188" y2="249.2188"/><text fill="#000000" font-family="sans-serif" font-size="14" font-weight="700" lengthAdjust="spacing" textLength="82.4619" x="566" y="242.1426">Metrics path</text></g><!--cluster Logs path--><g class="cluster" data-qualified-name="Logs path" data-source-line="21" id="ent0010"><path d="M1169.5,225.6094 L1237.3828,225.6094 A3.75,3.75 0 0 1 1239.8828,228.1094 L1246.8828,249.2188 L1498.5,249.2188 A2.5,2.5 0 0 1 1501,251.7188 L1501,564.6094 A2.5,2.5 0 0 1 1498.5,567.1094 L1169.5,567.1094 A2.5,2.5 0 0 1 1167,564.6094 L1167,228.1094 A2.5,2.5 0 0 1 1169.5,225.6094" fill="#E6FFE6" style="stroke:#999999;stroke-width:1.5;"/><line style="stroke:#999999;stroke-width:1.5;" x1="1167" x2="1246.8828" y1="249.2188" y2="249.2188"/><text fill="#000000" font-family="sans-serif" font-size="14" font-weight="700" lengthAdjust="spacing" textLength="66.8828" x="1171" y="242.1426">Logs path</text></g><!--cluster Alerts path--><g class="cluster" data-qualified-name="Alerts path" data-source-line="26" id="ent0013"><path d="M880.5,433.1094 L954.624,433.1094 A3.75,3.75 0 0 1 957.124,435.6094 L964.124,456.7188 L1137.5,456.7188 A2.5,2.5 0 0 1 1140,459.2188 L1140,922.1094 A2.5,2.5 0 0 1 1137.5,924.6094 L880.5,924.6094 A2.5,2.5 0 0 1 878,922.1094 L878,435.6094 A2.5,2.5 0 0 1 880.5,433.1094" fill="#FFE6E6" style="stroke:#999999;stroke-width:1.5;"/><line style="stroke:#999999;stroke-width:1.5;" x1="878" x2="964.124" y1="456.7188" y2="456.7188"/><text fill="#000000" font-family="sans-serif" font-size="14" font-weight="700" lengthAdjust="spacing" textLength="73.124" x="882" y="449.6426">Alerts path</text></g><!--cluster External probes--><g class="cluster" data-qualified-name="External probes" data-source-line="32" id="ent0017"><path d="M405.5,633.1094 L512.3135,633.1094 A3.75,3.75 0 0 1 514.8135,635.6094 L521.8135,656.7188 L624.5,656.7188 A2.5,2.5 0 0 1 627,659.2188 L627,921.6094 A2.5,2.5 0 0 1 624.5,924.1094 L405.5,924.1094 A2.5,2.5 0 0 1 403,921.6094 L403,635.6094 A2.5,2.5 0 0 1 405.5,633.1094" fill="#FFF0E0" style="stroke:#999999;stroke-width:1.5;"/><line style="stroke:#999999;stroke-width:1.5;" x1="403" x2="521.8135" y1="656.7188" y2="656.7188"/><text fill="#000000" font-family="sans-serif" font-size="14" font-weight="700" lengthAdjust="spacing" textLength="105.8135" x="407" y="649.6426">External probes</text></g><!--entity prom--><g class="entity" data-qualified-name="Metrics path.prom" data-source-line="17" id="ent0008"><rect fill="#FFFFFF" height="82.8281" rx="2.5" ry="2.5" style="stroke:#1168BD;stroke-width:0.5;" width="257.875" x="578" y="261.6094"/><rect fill="#FFFFFF" height="10" style="stroke:#1168BD;stroke-width:0.5;" width="15" x="815.875" y="266.6094"/><rect fill="#FFFFFF" height="2" style="stroke:#1168BD;stroke-width:0.5;" width="4" x="813.875" y="268.6094"/><rect fill="#FFFFFF" height="2" style="stroke:#1168BD;stroke-width:0.5;" width="4" x="813.875" y="272.6094"/><text fill="#000000" font-family="sans-serif" font-size="14" lengthAdjust="spacing" textLength="75.4824" x="593" y="296.1426">Prometheus</text><text fill="#000000" font-family="sans-serif" font-size="14" lengthAdjust="spacing" textLength="166.5439" x="593" y="313.752">(15s scrape, 15d retention,</text><text fill="#000000" font-family="sans-serif" font-size="14" lengthAdjust="spacing" textLength="217.875" x="593" y="331.3613">scrape wired in chart - no operator)</text></g><!--entity tsdb--><g class="entity" data-qualified-name="Metrics path.tsdb" data-source-line="18" id="ent0009"><path d="M638.5,497.1094 C638.5,487.1094 706.855,487.1094 706.855,487.1094 C706.855,487.1094 775.21,487.1094 775.21,497.1094 L775.21,541.3281 C775.21,551.3281 706.855,551.3281 706.855,551.3281 C706.855,551.3281 638.5,551.3281 638.5,541.3281 L638.5,497.1094" fill="#F1F1F1" style="stroke:#181818;stroke-width:0.5;"/><path d="M638.5,497.1094 C638.5,507.1094 706.855,507.1094 706.855,507.1094 C706.855,507.1094 775.21,507.1094 775.21,497.1094" fill="none" style="stroke:#181818;stroke-width:0.5;"/><text fill="#000000" font-family="sans-serif" font-size="14" lengthAdjust="spacing" textLength="116.71" x="648.5" y="525.6426">Prometheus TSDB</text><text fill="#000000" font-family="sans-serif" font-size="14" lengthAdjust="spacing" textLength="71.5723" x="648.5" y="543.252">(20Gi PVC)</text></g><!--entity promtail--><g class="entity" data-qualified-name="Logs path.promtail" data-source-line="22" id="ent0011"><rect fill="#FFFFFF" height="82.8281" rx="2.5" ry="2.5" style="stroke:#1168BD;stroke-width:0.5;" width="301.8711" x="1183" y="261.6094"/><rect fill="#FFFFFF" height="10" style="stroke:#1168BD;stroke-width:0.5;" width="15" x="1464.8711" y="266.6094"/><rect fill="#FFFFFF" height="2" style="stroke:#1168BD;stroke-width:0.5;" width="4" x="1462.8711" y="268.6094"/><rect fill="#FFFFFF" height="2" style="stroke:#1168BD;stroke-width:0.5;" width="4" x="1462.8711" y="272.6094"/><text fill="#000000" font-family="sans-serif" font-size="14" lengthAdjust="spacing" textLength="51.3447" x="1198" y="296.1426">Promtail</text><text fill="#000000" font-family="sans-serif" font-size="14" lengthAdjust="spacing" textLength="261.8711" x="1198" y="313.752">(DaemonSet + namespaced Role in prod /</text><text fill="#000000" font-family="sans-serif" font-size="14" lengthAdjust="spacing" textLength="113.5928" x="1198" y="331.3613">Docker SD in dev)</text></g><!--entity loki--><g class="entity" data-qualified-name="Logs path.loki" data-source-line="23" id="ent0012"><path d="M1213.5,497.1094 C1213.5,487.1094 1304.8169,487.1094 1304.8169,487.1094 C1304.8169,487.1094 1396.1338,487.1094 1396.1338,497.1094 L1396.1338,541.3281 C1396.1338,551.3281 1304.8169,551.3281 1304.8169,551.3281 C1304.8169,551.3281 1213.5,551.3281 1213.5,541.3281 L1213.5,497.1094" fill="#F1F1F1" style="stroke:#181818;stroke-width:0.5;"/><path d="M1213.5,497.1094 C1213.5,507.1094 1304.8169,507.1094 1304.8169,507.1094 C1304.8169,507.1094 1396.1338,507.1094 1396.1338,497.1094" fill="none" style="stroke:#181818;stroke-width:0.5;"/><text fill="#000000" font-family="sans-serif" font-size="14" lengthAdjust="spacing" textLength="25.6826" x="1223.5" y="525.6426">Loki</text><text fill="#000000" font-family="sans-serif" font-size="14" lengthAdjust="spacing" textLength="162.6338" x="1223.5" y="543.252">(10Gi PVC, label-indexed)</text></g><!--entity am--><g class="entity" data-qualified-name="Alerts path.am" data-source-line="27" id="ent0014"><rect fill="#FFFFFF" height="100.4375" rx="2.5" ry="2.5" style="stroke:#1168BD;stroke-width:0.5;" width="229.4854" x="894.5" y="469.1094"/><rect fill="#FFFFFF" height="10" style="stroke:#1168BD;stroke-width:0.5;" width="15" x="1103.9854" y="474.1094"/><rect fill="#FFFFFF" height="2" style="stroke:#1168BD;stroke-width:0.5;" width="4" x="1101.9854" y="476.1094"/><rect fill="#FFFFFF" height="2" style="stroke:#1168BD;stroke-width:0.5;" width="4" x="1101.9854" y="480.1094"/><text fill="#000000" font-family="sans-serif" font-size="14" lengthAdjust="spacing" textLength="84.041" x="909.5" y="503.6426">Alertmanager</text><text fill="#000000" font-family="sans-serif" font-size="14" lengthAdjust="spacing" textLength="189.4854" x="909.5" y="521.252">(group_by alertname+severity,</text><text fill="#000000" font-family="sans-serif" font-size="14" lengthAdjust="spacing" textLength="123.751" x="909.5" y="538.8613">repeat_interval 12h,</text><text fill="#000000" font-family="sans-serif" font-size="14" lengthAdjust="spacing" textLength="146.665" x="909.5" y="556.4707">inhibit critical-&gt;warning)</text></g><!--entity aiops--><g class="entity" data-qualified-name="Alerts path.aiops" data-source-line="28" id="ent0015"><rect fill="#FFFFFF" height="82.8281" rx="2.5" ry="2.5" style="stroke:#1168BD;stroke-width:0.5;" width="189.0234" x="897.5" y="660.1094"/><rect fill="#FFFFFF" height="10" style="stroke:#1168BD;stroke-width:0.5;" width="15" x="1066.5234" y="665.1094"/><rect fill="#FFFFFF" height="2" style="stroke:#1168BD;stroke-width:0.5;" width="4" x="1064.5234" y="667.1094"/><rect fill="#FFFFFF" height="2" style="stroke:#1168BD;stroke-width:0.5;" width="4" x="1064.5234" y="671.1094"/><text fill="#000000" font-family="sans-serif" font-size="14" lengthAdjust="spacing" textLength="98.834" x="912.5" y="694.6426">AIOps webhook</text><text fill="#000000" font-family="sans-serif" font-size="14" lengthAdjust="spacing" textLength="149.0234" x="912.5" y="712.252">(Python 3.14 + FastAPI,</text><text fill="#000000" font-family="sans-serif" font-size="14" lengthAdjust="spacing" textLength="132.3096" x="912.5" y="729.8613">graceful degradation)</text></g><!--entity claude--><g class="entity" data-qualified-name="Alerts path.claude" data-source-line="29" id="ent0016"><rect fill="#FFFFFF" height="65.2188" rx="2.5" ry="2.5" style="stroke:#1168BD;stroke-width:0.5;" width="220.5576" x="898.5" y="843.6094"/><rect fill="#FFFFFF" height="10" style="stroke:#1168BD;stroke-width:0.5;" width="15" x="1099.0576" y="848.6094"/><rect fill="#FFFFFF" height="2" style="stroke:#1168BD;stroke-width:0.5;" width="4" x="1097.0576" y="850.6094"/><rect fill="#FFFFFF" height="2" style="stroke:#1168BD;stroke-width:0.5;" width="4" x="1097.0576" y="854.6094"/><text fill="#000000" font-family="sans-serif" font-size="14" lengthAdjust="spacing" textLength="84.0479" x="913.5" y="878.1426">Claude Haiku</text><text fill="#000000" font-family="sans-serif" font-size="14" lengthAdjust="spacing" textLength="180.5576" x="913.5" y="895.752">(claude-haiku-4-5-20251001)</text></g><!--entity kuma--><g class="entity" data-qualified-name="External probes.kuma" data-source-line="33" id="ent0018"><rect fill="#FFFFFF" height="65.2188" rx="2.5" ry="2.5" style="stroke:#1168BD;stroke-width:0.5;" width="190.5889" x="419.5" y="669.1094"/><rect fill="#FFFFFF" height="10" style="stroke:#1168BD;stroke-width:0.5;" width="15" x="590.0889" y="674.1094"/><rect fill="#FFFFFF" height="2" style="stroke:#1168BD;stroke-width:0.5;" width="4" x="588.0889" y="676.1094"/><rect fill="#FFFFFF" height="2" style="stroke:#1168BD;stroke-width:0.5;" width="4" x="588.0889" y="680.1094"/><text fill="#000000" font-family="sans-serif" font-size="14" lengthAdjust="spacing" textLength="84.8066" x="434.5" y="703.6426">Uptime Kuma</text><text fill="#000000" font-family="sans-serif" font-size="14" lengthAdjust="spacing" textLength="150.5889" x="434.5" y="721.252">(StatefulSet + seed Job)</text></g><!--entity kumadb--><g class="entity" data-qualified-name="External probes.kumadb" data-source-line="34" id="ent0019"><path d="M442.5,854.1094 C442.5,844.1094 494.1309,844.1094 494.1309,844.1094 C494.1309,844.1094 545.7617,844.1094 545.7617,854.1094 L545.7617,898.3281 C545.7617,908.3281 494.1309,908.3281 494.1309,908.3281 C494.1309,908.3281 442.5,908.3281 442.5,898.3281 L442.5,854.1094" fill="#F1F1F1" style="stroke:#181818;stroke-width:0.5;"/><path d="M442.5,854.1094 C442.5,864.1094 494.1309,864.1094 494.1309,864.1094 C494.1309,864.1094 545.7617,864.1094 545.7617,854.1094" fill="none" style="stroke:#181818;stroke-width:0.5;"/><text fill="#000000" font-family="sans-serif" font-size="14" lengthAdjust="spacing" textLength="83.2617" x="452.5" y="882.6426">Kuma SQLite</text><text fill="#000000" font-family="sans-serif" font-size="14" lengthAdjust="spacing" textLength="63.7861" x="452.5" y="900.252">(2Gi PVC)</text></g><!--entity op--><g class="entity" data-qualified-name="op" data-source-line="9" id="ent0001"><ellipse cx="922.0723" cy="65.1094" fill="#F1F1F1" rx="8" ry="8" style="stroke:#181818;stroke-width:0.5;"/><path d="M922.0723,73.1094 L922.0723,100.1094 M909.0723,81.1094 L935.0723,81.1094 M922.0723,100.1094 L909.0723,115.1094 M922.0723,100.1094 L935.0723,115.1094" fill="none" style="stroke:#181818;stroke-width:0.5;"/><text fill="#000000" font-family="sans-serif" font-size="14" lengthAdjust="spacing" textLength="108.1445" x="868" y="131.1426">Operator (Admin)</text></g><!--entity discord--><g class="entity" data-qualified-name="discord" data-source-line="10" id="ent0002"><ellipse cx="744.1929" cy="845.6094" fill="#F1F1F1" rx="8" ry="8" style="stroke:#181818;stroke-width:0.5;"/><path d="M744.1929,853.6094 L744.1929,880.6094 M731.1929,861.6094 L757.1929,861.6094 M744.1929,880.6094 L731.1929,895.6094 M744.1929,880.6094 L757.1929,895.6094" fill="none" style="stroke:#181818;stroke-width:0.5;"/><text fill="#000000" font-family="sans-serif" font-size="14" lengthAdjust="spacing" textLength="107.3857" x="690.5" y="911.6426">Discord channels</text></g><!--entity user--><g class="entity" data-qualified-name="user" data-source-line="11" id="ent0003"><ellipse cx="60.8721" cy="845.6094" fill="#F1F1F1" rx="8" ry="8" style="stroke:#181818;stroke-width:0.5;"/><path d="M60.8721,853.6094 L60.8721,880.6094 M47.8721,861.6094 L73.8721,861.6094 M60.8721,880.6094 L47.8721,895.6094 M60.8721,880.6094 L73.8721,895.6094" fill="none" style="stroke:#181818;stroke-width:0.5;"/><text fill="#000000" font-family="sans-serif" font-size="14" lengthAdjust="spacing" textLength="109.7441" x="6" y="911.6426">Tenant / Landlord</text></g><!--entity api--><g class="entity" data-qualified-name="api" data-source-line="12" id="ent0004"><rect fill="#FFFFFF" height="65.2188" rx="2.5" ry="2.5" style="stroke:#1168BD;stroke-width:0.5;" width="206.9131" x="1047.5" y="63.1094"/><rect fill="#FFFFFF" height="10" style="stroke:#1168BD;stroke-width:0.5;" width="15" x="1234.4131" y="68.1094"/><rect fill="#FFFFFF" height="2" style="stroke:#1168BD;stroke-width:0.5;" width="4" x="1232.4131" y="70.1094"/><rect fill="#FFFFFF" height="2" style="stroke:#1168BD;stroke-width:0.5;" width="4" x="1232.4131" y="74.1094"/><text fill="#000000" font-family="sans-serif" font-size="14" lengthAdjust="spacing" textLength="75.4756" x="1062.5" y="97.6426">API process</text><text fill="#000000" font-family="sans-serif" font-size="14" lengthAdjust="spacing" textLength="166.9131" x="1062.5" y="115.252">(prometheus-net + Serilog)</text></g><!--entity others--><g class="entity" data-qualified-name="others" data-source-line="13" id="ent0005"><rect fill="#FFFFFF" height="100.4375" rx="2.5" ry="2.5" style="stroke:#1168BD;stroke-width:0.5;" width="218.1719" x="1305" y="45.6094"/><rect fill="#FFFFFF" height="10" style="stroke:#1168BD;stroke-width:0.5;" width="15" x="1503.1719" y="50.6094"/><rect fill="#FFFFFF" height="2" style="stroke:#1168BD;stroke-width:0.5;" width="4" x="1501.1719" y="52.6094"/><rect fill="#FFFFFF" height="2" style="stroke:#1168BD;stroke-width:0.5;" width="4" x="1501.1719" y="56.6094"/><text fill="#000000" font-family="sans-serif" font-size="14" lengthAdjust="spacing" textLength="119.8408" x="1320" y="80.1426">All other containers</text><text fill="#000000" font-family="sans-serif" font-size="14" lengthAdjust="spacing" textLength="178.1719" x="1320" y="97.752">(Postgres, Redis, RabbitMQ,</text><text fill="#000000" font-family="sans-serif" font-size="14" lengthAdjust="spacing" textLength="171.1924" x="1320" y="115.3613">Keycloak, Frontend, AIOps,</text><text fill="#000000" font-family="sans-serif" font-size="14" lengthAdjust="spacing" textLength="133.0547" x="1320" y="132.9707">Loki, Prometheus, ...)</text></g><!--entity public--><g class="entity" data-qualified-name="public" data-source-line="14" id="ent0006"><rect fill="#FFFFFF" height="65.2188" rx="2.5" ry="2.5" style="stroke:#1168BD;stroke-width:0.5;" width="234.5576" x="151.5" y="843.6094"/><rect fill="#FFFFFF" height="10" style="stroke:#1168BD;stroke-width:0.5;" width="15" x="366.0576" y="848.6094"/><rect fill="#FFFFFF" height="2" style="stroke:#1168BD;stroke-width:0.5;" width="4" x="364.0576" y="850.6094"/><rect fill="#FFFFFF" height="2" style="stroke:#1168BD;stroke-width:0.5;" width="4" x="364.0576" y="854.6094"/><text fill="#000000" font-family="sans-serif" font-size="14" lengthAdjust="spacing" textLength="75.4824" x="166.5" y="878.1426">Public hosts</text><text fill="#000000" font-family="sans-serif" font-size="14" lengthAdjust="spacing" textLength="194.5576" x="166.5" y="895.752">app.X / api.X / auth.X / status.X</text></g><!--entity grafana--><g class="entity" data-qualified-name="grafana" data-source-line="37" id="ent0020"><rect fill="#FFFFFF" height="100.4375" rx="2.5" ry="2.5" style="stroke:#1168BD;stroke-width:0.5;" width="205.3887" x="906.5" y="253.1094"/><rect fill="#FFFFFF" height="10" style="stroke:#1168BD;stroke-width:0.5;" width="15" x="1091.8887" y="258.1094"/><rect fill="#FFFFFF" height="2" style="stroke:#1168BD;stroke-width:0.5;" width="4" x="1089.8887" y="260.1094"/><rect fill="#FFFFFF" height="2" style="stroke:#1168BD;stroke-width:0.5;" width="4" x="1089.8887" y="264.1094"/><text fill="#000000" font-family="sans-serif" font-size="14" lengthAdjust="spacing" textLength="50.5859" x="921.5" y="287.6426">Grafana</text><text fill="#000000" font-family="sans-serif" font-size="14" lengthAdjust="spacing" textLength="112.0479" x="921.5" y="305.252">(chart-provisioned</text><text fill="#000000" font-family="sans-serif" font-size="14" lengthAdjust="spacing" textLength="165.3887" x="921.5" y="322.8613">dashboards + datasources</text><text fill="#000000" font-family="sans-serif" font-size="14" lengthAdjust="spacing" textLength="98.8135" x="921.5" y="340.4707">via file provider)</text></g><g class="entity" data-qualified-name="GMN31" data-source-line="55" id="ent0032"><path d="M1156,664.1094 L1156,697.6094 L1086.72,701.6094 L1156,705.6094 L1156,739.5156 A0,0 0 0 0 1156,739.5156 L1559.5542,739.5156 A0,0 0 0 0 1559.5542,739.5156 L1559.5542,674.1094 L1549.5542,664.1094 L1156,664.1094 A0,0 0 0 0 1156,664.1094" fill="#FEFFDD" style="stroke:#181818;stroke-width:0.5;"/><path d="M1549.5542,664.1094 L1549.5542,674.1094 L1559.5542,674.1094 L1549.5542,664.1094" fill="#FEFFDD" style="stroke:#181818;stroke-width:0.5;"/><text fill="#000000" font-family="sans-serif" font-size="13" lengthAdjust="spacing" textLength="125.0234" x="1162" y="682.6045">Graceful degradation:</text><text fill="#000000" font-family="sans-serif" font-size="13" lengthAdjust="spacing" textLength="367.3833" x="1162" y="698.9561">- ANTHROPIC_API_KEY empty -&gt; raw labels posted to Discord</text><text fill="#000000" font-family="sans-serif" font-size="13" lengthAdjust="spacing" textLength="382.5542" x="1162" y="715.3076">- DISCORD_WEBHOOK_URL empty -&gt; message bodies to stdout</text><text fill="#000000" font-family="sans-serif" font-size="13" lengthAdjust="spacing" textLength="228.668" x="1169.2236" y="731.6592">(-&gt; Promtail -&gt; Loki -&gt; Grafana Explore)</text></g><!--link api to prom--><g class="link" data-entity-1="ent0004" data-entity-2="ent0008" data-link-type="dependency" data-source-line="40" id="lnk21"><path d="M1145.24,128.1494 C1138.56,154.7794 1124.7,191.3894 1097,209.6094 C1077.68,222.3194 911.48,212.1894 889,217.6094 C850.39,226.9194 814.5283,242.4063 781.6783,259.2663" fill="none" id="api-to-prom" style="stroke:#181818;stroke-width:1;"/><polygon fill="#181818" points="777.23,261.5494,787.0634,260.9985,781.6783,259.2663,783.4105,253.8812,777.23,261.5494" style="stroke:#181818;stroke-width:1;stroke-linejoin:miter;stroke-miterlimit:10;"/><text fill="#000000" font-family="sans-serif" font-size="13" lengthAdjust="spacing" textLength="75.8354" x="1126" y="198.1045">GET /metrics</text></g><!--link prom to tsdb--><g class="link" data-entity-1="ent0008" data-entity-2="ent0009" data-link-type="dependency" data-source-line="41" id="lnk22"><path d="M659.67,344.7394 C649.63,356.0394 640.43,369.0894 635,383.1094 C629.54,397.1994 630.4,402.7194 635,417.1094 C643.33,443.1594 657.8858,464.4062 673.6958,483.0462" fill="none" id="prom-to-tsdb" style="stroke:#181818;stroke-width:1;"/><polygon fill="#181818" points="676.93,486.8594,674.1589,477.4084,673.6958,483.0462,668.0579,482.5831,676.93,486.8594" style="stroke:#181818;stroke-width:1;stroke-linejoin:miter;stroke-miterlimit:10;"/><text fill="#000000" font-family="sans-serif" font-size="13" lengthAdjust="spacing" textLength="27.4473" x="636" y="405.6045">write</text></g><!--link prom to am--><g class="link" data-entity-1="ent0008" data-entity-2="ent0014" data-link-type="dependency" data-source-line="42" id="lnk23"><path d="M693.03,344.7294 C687.54,368.8494 686.18,398.2994 704,417.1094 C715.33,429.0694 836.24,420.3294 852,425.1094 C883.68,434.7194 911.4444,449.2908 938.1944,466.3508" fill="none" id="prom-to-am" style="stroke:#181818;stroke-width:1;"/><polygon fill="#181818" points="942.41,469.0394,936.9727,460.8275,938.1944,466.3508,932.671,467.5725,942.41,469.0394" style="stroke:#181818;stroke-width:1;stroke-linejoin:miter;stroke-miterlimit:10;"/><text fill="#000000" font-family="sans-serif" font-size="13" lengthAdjust="spacing" textLength="146.6499" x="705" y="405.6045">fire alerts (chart rule files)</text></g><!--link api to promtail--><g class="link" data-entity-1="ent0004" data-entity-2="ent0011" data-link-type="dependency" data-source-line="45" id="lnk24"><path d="M1176.7,128.2294 C1195.53,151.1294 1221.91,182.6794 1246,209.6094 C1261.37,226.7894 1275.309,241.6709 1290.559,257.5709" fill="none" id="api-to-promtail" style="stroke:#181818;stroke-width:1;"/><polygon fill="#181818" points="1294.02,261.1794,1290.677,251.9152,1290.559,257.5709,1284.9034,257.4528,1294.02,261.1794" style="stroke:#181818;stroke-width:1;stroke-linejoin:miter;stroke-miterlimit:10;"/><text fill="#000000" font-family="sans-serif" font-size="13" lengthAdjust="spacing" textLength="119.1963" x="1247" y="190.1045">stdout (CLEF JSON)</text><text fill="#000000" font-family="sans-serif" font-size="13" lengthAdjust="spacing" textLength="104.0508" x="1254.5728" y="206.4561">no direct Loki sink</text></g><!--link others to promtail--><g class="link" data-entity-1="ent0005" data-entity-2="ent0011" data-link-type="dependency" data-source-line="46" id="lnk25"><path d="M1398.01,145.8894 C1391.28,165.8094 1383.13,188.9394 1375,209.6094 C1368.25,226.7694 1362.1944,240.8609 1354.9744,256.8809" fill="none" id="others-to-promtail" style="stroke:#181818;stroke-width:1;"/><polygon fill="#181818" points="1352.92,261.4394,1360.2647,254.8777,1354.9744,256.8809,1352.9712,251.5907,1352.92,261.4394" style="stroke:#181818;stroke-width:1;stroke-linejoin:miter;stroke-miterlimit:10;"/><text fill="#000000" font-family="sans-serif" font-size="13" lengthAdjust="spacing" textLength="35.4136" x="1388" y="198.1045">stdout</text></g><!--link promtail to loki--><g class="link" data-entity-1="ent0011" data-entity-2="ent0012" data-link-type="dependency" data-source-line="47" id="lnk26"><path d="M1328.51,344.6094 C1322.91,385.9294 1315.0113,444.2146 1309.9113,481.8546" fill="none" id="promtail-to-loki" style="stroke:#181818;stroke-width:1;"/><polygon fill="#181818" points="1309.24,486.8094,1314.4122,478.4279,1309.9113,481.8546,1306.4846,477.3538,1309.24,486.8094" style="stroke:#181818;stroke-width:1;stroke-linejoin:miter;stroke-miterlimit:10;"/><text fill="#000000" font-family="sans-serif" font-size="13" lengthAdjust="spacing" textLength="65.7427" x="1323" y="405.6045">HTTP push</text></g><!--link am to aiops--><g class="link" data-entity-1="ent0014" data-entity-2="ent0015" data-link-type="dependency" data-source-line="50" id="lnk27"><path d="M1004.35,569.4294 C1001.68,597.8194 998.8279,628.0913 996.3079,654.9013" fill="none" id="am-to-aiops" style="stroke:#181818;stroke-width:1;"/><polygon fill="#181818" points="995.84,659.8794,1000.6647,651.2932,996.3079,654.9013,992.6998,650.5445,995.84,659.8794" style="stroke:#181818;stroke-width:1;stroke-linejoin:miter;stroke-miterlimit:10;"/><text fill="#000000" font-family="sans-serif" font-size="13" lengthAdjust="spacing" textLength="130.0571" x="1002" y="613.6045">webhook POST /alerts</text></g><!--link aiops to claude--><g class="link" data-entity-1="ent0015" data-entity-2="ent0016" data-link-type="dependency" data-source-line="51" id="lnk28"><path d="M956.74,743.1494 C944.35,762.3494 935.42,785.7094 944,807.1094 C949.41,820.5994 955.428,829.3508 965.518,839.6908" fill="none" id="aiops-to-claude" style="stroke:#181818;stroke-width:1;"/><polygon fill="#181818" points="969.01,843.2694,965.5872,834.0344,965.518,839.6908,959.8616,839.6216,969.01,843.2694" style="stroke:#181818;stroke-width:1;stroke-linejoin:miter;stroke-miterlimit:10;"/><text fill="#000000" font-family="sans-serif" font-size="13" lengthAdjust="spacing" textLength="76.5908" x="945" y="795.6045">triage prompt</text></g><!--link claude to aiops--><g class="link" data-entity-1="ent0016" data-entity-2="ent0015" data-link-type="dependency" data-source-line="52" id="lnk29"><path d="M1020.69,843.2194 C1026.52,823.0094 1031.32,796.3894 1026,773.1094 C1023.7,763.0394 1021.8656,757.279 1017.4756,747.769" fill="none" id="claude-to-aiops" style="stroke:#181818;stroke-width:1;"/><polygon fill="#181818" points="1015.38,743.2294,1015.5203,753.0772,1017.4756,747.769,1022.7838,749.7243,1015.38,743.2294" style="stroke:#181818;stroke-width:1;stroke-linejoin:miter;stroke-miterlimit:10;"/><text fill="#000000" font-family="sans-serif" font-size="13" lengthAdjust="spacing" textLength="57.0845" x="1029" y="795.6045">triage text</text></g><!--link aiops to discord--><g class="link" data-entity-1="ent0015" data-entity-2="ent0002" data-link-type="dependency" data-source-line="53" id="lnk30"><path d="M897.41,728.6994 C869.04,739.4494 839.09,753.9894 815,773.1094 C793.37,790.2794 778.1344,811.4576 765.7944,832.6676" fill="none" id="aiops-to-discord" style="stroke:#181818;stroke-width:1;"/><polygon fill="#181818" points="763.28,836.9894,771.2634,831.2217,765.7944,832.6676,764.3485,827.1987,763.28,836.9894" style="stroke:#181818;stroke-width:1;stroke-linejoin:miter;stroke-miterlimit:10;"/><text fill="#000000" font-family="sans-serif" font-size="13" lengthAdjust="spacing" textLength="115.5972" x="816" y="795.6045">rich embed (#alerts)</text></g><!--link kuma to public--><g class="link" data-entity-1="ent0018" data-entity-2="ent0006" data-link-type="dependency" data-source-line="62" id="lnk34"><path d="M455.77,734.2394 C435.43,745.7794 412.8,759.3794 393,773.1094 C361.61,794.8694 332.0827,819.2681 307.9027,840.2981" fill="none" id="kuma-to-public" style="stroke:#181818;stroke-width:1;"/><polygon fill="#181818" points="304.13,843.5794,313.5459,840.6913,307.9027,840.2981,308.2959,834.655,304.13,843.5794" style="stroke:#181818;stroke-width:1;stroke-linejoin:miter;stroke-miterlimit:10;"/><text fill="#000000" font-family="sans-serif" font-size="13" lengthAdjust="spacing" textLength="85.9727" x="394" y="787.6045">HTTPS probes</text><text fill="#000000" font-family="sans-serif" font-size="13" lengthAdjust="spacing" textLength="65.019" x="404.4768" y="803.9561">(every 60s)</text></g><!--link kuma to kumadb--><g class="link" data-entity-1="ent0018" data-entity-2="ent0019" data-link-type="dependency" data-source-line="63" id="lnk35"><path d="M501.73,734.3294 C497.4,746.2594 493.15,760.0994 491,773.1094 C487.09,796.7094 487.6842,818.8002 489.5442,839.1202" fill="none" id="kuma-to-kumadb" style="stroke:#181818;stroke-width:1;"/><polygon fill="#181818" points="490,844.0994,493.163,834.7722,489.5442,839.1202,485.1963,835.5015,490,844.0994" style="stroke:#181818;stroke-width:1;stroke-linejoin:miter;stroke-miterlimit:10;"/><text fill="#000000" font-family="sans-serif" font-size="13" lengthAdjust="spacing" textLength="80.1899" x="492" y="795.6045">persist results</text></g><!--link kuma to discord--><g class="link" data-entity-1="ent0018" data-entity-2="ent0002" data-link-type="dependency" data-source-line="64" id="lnk36"><path d="M542.46,734.1694 C565.79,760.5394 597.83,795.6194 613,807.1094 C636.59,824.9794 661.0434,838.4145 685.7434,850.1445" fill="none" id="kuma-to-discord" style="stroke:#181818;stroke-width:1;"/><polygon fill="#181818" points="690.26,852.2894,683.8461,844.8153,685.7434,850.1445,680.4143,852.0418,690.26,852.2894" style="stroke:#181818;stroke-width:1;stroke-linejoin:miter;stroke-miterlimit:10;"/><text fill="#000000" font-family="sans-serif" font-size="13" lengthAdjust="spacing" textLength="132.9644" x="614" y="795.6045">outage notify (#uptime)</text></g><!--link kuma to user--><g class="link" data-entity-1="ent0018" data-entity-2="ent0003" data-link-type="dependency" data-source-line="65" id="lnk37"><path d="M419.3,720.0294 C364.71,731.6494 295.68,749.2094 237,773.1094 C194.48,790.4294 153.9799,813.7775 120.2599,835.2075" fill="none" id="kuma-to-user" style="stroke:#181818;stroke-width:1;"/><polygon fill="#181818" points="116.04,837.8894,125.7813,836.4379,120.2599,835.2075,121.4903,829.6861,116.04,837.8894" style="stroke:#181818;stroke-width:1;stroke-linejoin:miter;stroke-miterlimit:10;"/><text fill="#000000" font-family="sans-serif" font-size="13" lengthAdjust="spacing" textLength="104.7935" x="238" y="787.6045">public status page</text><text fill="#000000" font-family="sans-serif" font-size="13" lengthAdjust="spacing" textLength="55.6245" x="262.5845" y="803.9561">(status.X)</text></g><!--link grafana to tsdb--><g class="link" data-entity-1="ent0020" data-entity-2="ent0009" data-link-type="dependency" data-source-line="68" id="lnk38"><path d="M928,353.1494 C914.24,362.5494 900.41,372.7194 888,383.1094 C872.09,396.4294 871.8,403.6494 856,417.1094 C825.55,443.0494 792.5242,465.6243 762.8842,484.3943" fill="none" id="grafana-to-tsdb" style="stroke:#181818;stroke-width:1;"/><polygon fill="#181818" points="758.66,487.0694,768.4036,485.6337,762.8842,484.3943,764.1236,478.8749,758.66,487.0694" style="stroke:#181818;stroke-width:1;stroke-linejoin:miter;stroke-miterlimit:10;"/><text fill="#000000" font-family="sans-serif" font-size="13" lengthAdjust="spacing" textLength="48.4009" x="933.4368" y="397.6045">PromQL</text><text fill="#000000" font-family="sans-serif" font-size="13" lengthAdjust="spacing" textLength="137.2744" x="889" y="413.9561">(api-metrics dashboard)</text></g><!--link grafana to loki--><g class="link" data-entity-1="ent0020" data-entity-2="ent0012" data-link-type="dependency" data-source-line="69" id="lnk39"><path d="M1076.91,353.2094 C1133.75,394.2994 1209.0779,448.7602 1257.6479,483.8702" fill="none" id="grafana-to-loki" style="stroke:#181818;stroke-width:1;"/><polygon fill="#181818" points="1261.7,486.7994,1256.7495,478.2851,1257.6479,483.8702,1252.0628,484.7685,1261.7,486.7994" style="stroke:#181818;stroke-width:1;stroke-linejoin:miter;stroke-miterlimit:10;"/><text fill="#000000" font-family="sans-serif" font-size="13" lengthAdjust="spacing" textLength="39.0317" x="1198.1013" y="397.6045">LogQL</text><text fill="#000000" font-family="sans-serif" font-size="13" lengthAdjust="spacing" textLength="119.2344" x="1158" y="413.9561">(api-logs dashboard)</text></g><!--link grafana to am--><g class="link" data-entity-1="ent0020" data-entity-2="ent0014" data-link-type="dependency" data-source-line="70" id="lnk40"><path d="M1027.83,353.2394 C1030.81,362.9994 1033.42,373.2694 1035,383.1094 C1039.57,411.6294 1035.3554,438.5338 1028.2254,464.0538" fill="none" id="grafana-to-am" style="stroke:#181818;stroke-width:1;"/><polygon fill="#181818" points="1026.88,468.8694,1033.1542,461.2777,1028.2254,464.0538,1025.4493,459.125,1026.88,468.8694" style="stroke:#181818;stroke-width:1;stroke-linejoin:miter;stroke-miterlimit:10;"/><text fill="#000000" font-family="sans-serif" font-size="13" lengthAdjust="spacing" textLength="57.0845" x="1037" y="405.6045">alert state</text></g><!--link op to grafana--><g class="link" data-entity-1="ent0001" data-entity-2="ent0020" data-link-type="dependency" data-source-line="71" id="lnk41"><path d="M913.52,134.8694 C910.32,157.4194 909.44,186.0594 919,209.6094 C925.41,225.3894 932.5572,236.2675 944.2072,248.9475" fill="none" id="op-to-grafana" style="stroke:#181818;stroke-width:1;"/><polygon fill="#181818" points="947.59,252.6294,944.4464,243.2957,944.2072,248.9475,938.5554,248.7082,947.59,252.6294" style="stroke:#181818;stroke-width:1;stroke-linejoin:miter;stroke-miterlimit:10;"/><text fill="#000000" font-family="sans-serif" font-size="13" lengthAdjust="spacing" textLength="97.5571" x="957.5654" y="190.1045">view dashboards</text><text fill="#000000" font-family="sans-serif" font-size="13" lengthAdjust="spacing" textLength="172.688" x="920" y="206.4561">(secret-backed admin in prod)</text></g><?plantuml-src TLPXJ-Cu4FsUNp623qUr3Tjo2xgjT4X0Ms3fRWjbx_Oa9EGafh6Qsf7j5AhJ_VTxjfEIicoGIEeypxoPUJEE5RRWD4qCrskMY4BO3HdBqYN5jE9MYzHqgL0B_6S5rnPt_cAvbgoWKgk4coWoIo5BfjcAph5neLKbimjLA4txupFtrqAaQbKgoQNz6UglTw5APrpNi7x_v8yaQy5A668BlWFw_FdpEuWt7grcqW013r74KekblMd9DNDF1sVPIiZE7k5YXbJP88R2f715QSwav8Lf45bORs3tN39fwIDDcCpWBTiBi0g9ZhQHqTxPxDhbCUN6FCW3F27fEQzCBBcb3pJdMY3xu86zh1GxMuk25C0QcPAM2Scrip5JnYuqHw7kE4ZXnf94sA-ttGTvmpTfeTYoIsEDFLncNJgxdfO6xoPgAReqspBeqk7XON3ilPYsxrcL52Ab7BxWavNbuG_42eBXNjdSFq19jZA7FxoLqk-9eheSjFSrw0lriVaUxOzEnhtncFwDN4RRlhQK45t_s919DIjvb_h76McEAAnG4X64TNeMccSaf2kHjj2nLAXVg6k8nwNPUycOPGapdDfUw7u-F8UhezwbeDbV5s6FDLaI_TTYFq5JjAYFHoVlKqTb2bWRChvISkwhAjcAGtafQDufj1-uWb967n_aKALBL7G-T8iPNxyITdRUadOrSqcfcQ9JMSABMCYCl_0ix2s0sI5-vlkueUw8lqVTerPCOek62zSuvMEo2LF01V31y3NKQJV8lEObP_PHG58O8mNrZtAi2faBA8zIe4JAYlZqcMciDd9U_UJJIP6UUP8hjNHItjXSIVhziFy9MHipOz4kCBpGoDrJLI11U4G-KF_Qfb2bUMlsec1LnkcAYMK5gwd_6UVkP_mfFewFUaV7_Lwl7qo4rpiP6-rEF9-rSM_K-pbhtqihLfnkgXM3fpdaxtY6gXkEUdzHIN2p1EHjETqscjzEXELEVstvENWGOClRfMPFg92BoKaz1hsrC4W6pnvanaoUAAOp0z_EYL6Lnfnva6l1w4b0TnwFgHbSB8ArAFgD_lGNjHkqNelGu-IlE3xrkdJF0xeStTF7-i28ccMFSOqJCC_G0TzzoS8ZNZwXQ-iZXa8uf2jmT4HDfqLgstU_PEGwPO3PawdAqi75P3IcB_Ffjyw3n2J8u2Urv3g7Z93BA0otNsoFcWN_rhLIO7jrVp_3G3DvYrYhhxRKMf4wPVei17dJR3f7oaB4KVtM0OF-04GkdVeSWz96zVAEgHfXSIAtBTH74G2eHavybK1u1_l1LIUIodAyMUIMrDEsOoxVwQa1rcCw-tP_TJUTNLyyeliURqR_m6A9pmHuqkmvZ1o4ZQC0RgoY-eJqUuVNyulftV3nxz7vrNHwy_ZzRlAw6qFGEFw9oWGtRckTT9Up0m1cs-IVXeBXNckUHYybZbNUYN28aGkfLOat_TfKm_LGg78ulPf2pciS-iYDj0sTz92cBJgqdaVZ5372G9dSL0NAjiKqAGS60RYWG4ayRP3soe-4bZtt2L2BlYOIZaaeP-7wlZaqsw9leiP9Roha3yLfeghRzhNN1ZvljnEOGcl4TLFITXvqThPuJGzSLsrtkC-zNy6zeWUXKJrl7gdojVqQw83MWZ-_6d6vDJp5QHqdcAeG2dFVLyt9rud-1m00?></g></svg>