<svg xmlns="http://www.w3.org/2000/svg" xmlns:xlink="http://www.w3.org/1999/xlink" contentStyleType="text/css" data-diagram-type="DESCRIPTION" height="939px" preserveAspectRatio="none" style="width:1832px;height:939px;background:#FAFAFA;" version="1.1" viewBox="0 0 1832 939" width="1832px" zoomAndPan="magnify"><?plantuml 1.2026.5?><defs/><g><rect fill="#FAFAFA" height="939" style="stroke:none;stroke-width:1;" width="1832" x="0" y="0"/><g class="title" data-source-line="1"><text fill="#000000" font-family="sans-serif" font-size="14" font-weight="700" lengthAdjust="spacing" textLength="384.3848" x="720.5847" y="24.5332">Observability stack - metrics, logs, alerts, external probes</text></g><!--cluster Metrics path--><g class="cluster" data-qualified-name="Metrics path" data-source-line="16" id="ent0007"><path d="M8.5,225.6094 L91.9619,225.6094 A3.75,3.75 0 0 1 94.4619,228.1094 L101.4619,249.2188 L293.5,249.2188 A2.5,2.5 0 0 1 296,251.7188 L296,564.6094 A2.5,2.5 0 0 1 293.5,567.1094 L8.5,567.1094 A2.5,2.5 0 0 1 6,564.6094 L6,228.1094 A2.5,2.5 0 0 1 8.5,225.6094" fill="#E6F0FF" style="stroke:#999999;stroke-width:1.5;"/><line style="stroke:#999999;stroke-width:1.5;" x1="6" x2="101.4619" y1="249.2188" y2="249.2188"/><text fill="#000000" font-family="sans-serif" font-size="14" font-weight="700" lengthAdjust="spacing" textLength="82.4619" x="10" y="242.1426">Metrics path</text></g><!--cluster Logs path--><g class="cluster" data-qualified-name="Logs path" data-source-line="21" id="ent0010"><path d="M876.5,225.6094 L944.3828,225.6094 A3.75,3.75 0 0 1 946.8828,228.1094 L953.8828,249.2188 L1205.5,249.2188 A2.5,2.5 0 0 1 1208,251.7188 L1208,564.6094 A2.5,2.5 0 0 1 1205.5,567.1094 L876.5,567.1094 A2.5,2.5 0 0 1 874,564.6094 L874,228.1094 A2.5,2.5 0 0 1 876.5,225.6094" fill="#E6FFE6" style="stroke:#999999;stroke-width:1.5;"/><line style="stroke:#999999;stroke-width:1.5;" x1="874" x2="953.8828" y1="249.2188" y2="249.2188"/><text fill="#000000" font-family="sans-serif" font-size="14" font-weight="700" lengthAdjust="spacing" textLength="66.8828" x="878" y="242.1426">Logs path</text></g><!--cluster Alerts path--><g class="cluster" data-qualified-name="Alerts path" data-source-line="26" id="ent0013"><path d="M356.5,433.1094 L430.624,433.1094 A3.75,3.75 0 0 1 433.124,435.6094 L440.124,456.7188 L613.5,456.7188 A2.5,2.5 0 0 1 616,459.2188 L616,922.1094 A2.5,2.5 0 0 1 613.5,924.6094 L356.5,924.6094 A2.5,2.5 0 0 1 354,922.1094 L354,435.6094 A2.5,2.5 0 0 1 356.5,433.1094" fill="#FFE6E6" style="stroke:#999999;stroke-width:1.5;"/><line style="stroke:#999999;stroke-width:1.5;" x1="354" x2="440.124" y1="456.7188" y2="456.7188"/><text fill="#000000" font-family="sans-serif" font-size="14" font-weight="700" lengthAdjust="spacing" textLength="73.124" x="358" y="449.6426">Alerts path</text></g><!--cluster External probes--><g class="cluster" data-qualified-name="External probes" data-source-line="32" id="ent0017"><path d="M1173.5,633.1094 L1280.3135,633.1094 A3.75,3.75 0 0 1 1282.8135,635.6094 L1289.8135,656.7188 L1392.5,656.7188 A2.5,2.5 0 0 1 1395,659.2188 L1395,921.6094 A2.5,2.5 0 0 1 1392.5,924.1094 L1173.5,924.1094 A2.5,2.5 0 0 1 1171,921.6094 L1171,635.6094 A2.5,2.5 0 0 1 1173.5,633.1094" fill="#FFF0E0" style="stroke:#999999;stroke-width:1.5;"/><line style="stroke:#999999;stroke-width:1.5;" x1="1171" x2="1289.8135" y1="656.7188" y2="656.7188"/><text fill="#000000" font-family="sans-serif" font-size="14" font-weight="700" lengthAdjust="spacing" textLength="105.8135" x="1175" y="649.6426">External probes</text></g><!--entity prom--><g class="entity" data-qualified-name="Metrics path.prom" data-source-line="17" id="ent0008"><rect fill="#FFFFFF" height="82.8281" rx="2.5" ry="2.5" style="stroke:#1168BD;stroke-width:0.5;" width="257.875" x="22" y="261.6094"/><rect fill="#FFFFFF" height="10" style="stroke:#1168BD;stroke-width:0.5;" width="15" x="259.875" y="266.6094"/><rect fill="#FFFFFF" height="2" style="stroke:#1168BD;stroke-width:0.5;" width="4" x="257.875" y="268.6094"/><rect fill="#FFFFFF" height="2" style="stroke:#1168BD;stroke-width:0.5;" width="4" x="257.875" y="272.6094"/><text fill="#000000" font-family="sans-serif" font-size="14" lengthAdjust="spacing" textLength="75.4824" x="37" y="296.1426">Prometheus</text><text fill="#000000" font-family="sans-serif" font-size="14" lengthAdjust="spacing" textLength="166.5439" x="37" y="313.752">(15s scrape, 15d retention,</text><text fill="#000000" font-family="sans-serif" font-size="14" lengthAdjust="spacing" textLength="217.875" x="37" y="331.3613">scrape wired in chart - no operator)</text></g><!--entity tsdb--><g class="entity" data-qualified-name="Metrics path.tsdb" data-source-line="18" id="ent0009"><path d="M82.5,497.1094 C82.5,487.1094 150.855,487.1094 150.855,487.1094 C150.855,487.1094 219.21,487.1094 219.21,497.1094 L219.21,541.3281 C219.21,551.3281 150.855,551.3281 150.855,551.3281 C150.855,551.3281 82.5,551.3281 82.5,541.3281 L82.5,497.1094" fill="#F1F1F1" style="stroke:#181818;stroke-width:0.5;"/><path d="M82.5,497.1094 C82.5,507.1094 150.855,507.1094 150.855,507.1094 C150.855,507.1094 219.21,507.1094 219.21,497.1094" fill="none" style="stroke:#181818;stroke-width:0.5;"/><text fill="#000000" font-family="sans-serif" font-size="14" lengthAdjust="spacing" textLength="116.71" x="92.5" y="525.6426">Prometheus TSDB</text><text fill="#000000" font-family="sans-serif" font-size="14" lengthAdjust="spacing" textLength="71.5723" x="92.5" y="543.252">(20Gi PVC)</text></g><!--entity promtail--><g class="entity" data-qualified-name="Logs path.promtail" data-source-line="22" id="ent0011"><rect fill="#FFFFFF" height="82.8281" rx="2.5" ry="2.5" style="stroke:#1168BD;stroke-width:0.5;" width="301.8711" x="890" y="261.6094"/><rect fill="#FFFFFF" height="10" style="stroke:#1168BD;stroke-width:0.5;" width="15" x="1171.8711" y="266.6094"/><rect fill="#FFFFFF" height="2" style="stroke:#1168BD;stroke-width:0.5;" width="4" x="1169.8711" y="268.6094"/><rect fill="#FFFFFF" height="2" style="stroke:#1168BD;stroke-width:0.5;" width="4" x="1169.8711" y="272.6094"/><text fill="#000000" font-family="sans-serif" font-size="14" lengthAdjust="spacing" textLength="51.3447" x="905" y="296.1426">Promtail</text><text fill="#000000" font-family="sans-serif" font-size="14" lengthAdjust="spacing" textLength="261.8711" x="905" y="313.752">(DaemonSet + namespaced Role in prod /</text><text fill="#000000" font-family="sans-serif" font-size="14" lengthAdjust="spacing" textLength="113.5928" x="905" y="331.3613">Docker SD in dev)</text></g><!--entity loki--><g class="entity" data-qualified-name="Logs path.loki" data-source-line="23" id="ent0012"><path d="M890.5,497.1094 C890.5,487.1094 981.8169,487.1094 981.8169,487.1094 C981.8169,487.1094 1073.1338,487.1094 1073.1338,497.1094 L1073.1338,541.3281 C1073.1338,551.3281 981.8169,551.3281 981.8169,551.3281 C981.8169,551.3281 890.5,551.3281 890.5,541.3281 L890.5,497.1094" fill="#F1F1F1" style="stroke:#181818;stroke-width:0.5;"/><path d="M890.5,497.1094 C890.5,507.1094 981.8169,507.1094 981.8169,507.1094 C981.8169,507.1094 1073.1338,507.1094 1073.1338,497.1094" fill="none" style="stroke:#181818;stroke-width:0.5;"/><text fill="#000000" font-family="sans-serif" font-size="14" lengthAdjust="spacing" textLength="25.6826" x="900.5" y="525.6426">Loki</text><text fill="#000000" font-family="sans-serif" font-size="14" lengthAdjust="spacing" textLength="162.6338" x="900.5" y="543.252">(10Gi PVC, label-indexed)</text></g><!--entity am--><g class="entity" data-qualified-name="Alerts path.am" data-source-line="27" id="ent0014"><rect fill="#FFFFFF" height="100.4375" rx="2.5" ry="2.5" style="stroke:#1168BD;stroke-width:0.5;" width="229.4854" x="370.5" y="469.1094"/><rect fill="#FFFFFF" height="10" style="stroke:#1168BD;stroke-width:0.5;" width="15" x="579.9854" y="474.1094"/><rect fill="#FFFFFF" height="2" style="stroke:#1168BD;stroke-width:0.5;" width="4" x="577.9854" y="476.1094"/><rect fill="#FFFFFF" height="2" style="stroke:#1168BD;stroke-width:0.5;" width="4" x="577.9854" y="480.1094"/><text fill="#000000" font-family="sans-serif" font-size="14" lengthAdjust="spacing" textLength="84.041" x="385.5" y="503.6426">Alertmanager</text><text fill="#000000" font-family="sans-serif" font-size="14" lengthAdjust="spacing" textLength="189.4854" x="385.5" y="521.252">(group_by alertname+severity,</text><text fill="#000000" font-family="sans-serif" font-size="14" lengthAdjust="spacing" textLength="123.751" x="385.5" y="538.8613">repeat_interval 12h,</text><text fill="#000000" font-family="sans-serif" font-size="14" lengthAdjust="spacing" textLength="146.665" x="385.5" y="556.4707">inhibit critical-&gt;warning)</text></g><!--entity aiops--><g class="entity" data-qualified-name="Alerts path.aiops" data-source-line="28" id="ent0015"><rect fill="#FFFFFF" height="82.8281" rx="2.5" ry="2.5" style="stroke:#1168BD;stroke-width:0.5;" width="189.0234" x="410.5" y="660.1094"/><rect fill="#FFFFFF" height="10" style="stroke:#1168BD;stroke-width:0.5;" width="15" x="579.5234" y="665.1094"/><rect fill="#FFFFFF" height="2" style="stroke:#1168BD;stroke-width:0.5;" width="4" x="577.5234" y="667.1094"/><rect fill="#FFFFFF" height="2" style="stroke:#1168BD;stroke-width:0.5;" width="4" x="577.5234" y="671.1094"/><text fill="#000000" font-family="sans-serif" font-size="14" lengthAdjust="spacing" textLength="98.834" x="425.5" y="694.6426">AIOps webhook</text><text fill="#000000" font-family="sans-serif" font-size="14" lengthAdjust="spacing" textLength="149.0234" x="425.5" y="712.252">(Python 3.14 + FastAPI,</text><text fill="#000000" font-family="sans-serif" font-size="14" lengthAdjust="spacing" textLength="132.3096" x="425.5" y="729.8613">graceful degradation)</text></g><!--entity claude--><g class="entity" data-qualified-name="Alerts path.claude" data-source-line="29" id="ent0016"><rect fill="#FFFFFF" height="65.2188" rx="2.5" ry="2.5" style="stroke:#1168BD;stroke-width:0.5;" width="220.5576" x="373.5" y="843.6094"/><rect fill="#FFFFFF" height="10" style="stroke:#1168BD;stroke-width:0.5;" width="15" x="574.0576" y="848.6094"/><rect fill="#FFFFFF" height="2" style="stroke:#1168BD;stroke-width:0.5;" width="4" x="572.0576" y="850.6094"/><rect fill="#FFFFFF" height="2" style="stroke:#1168BD;stroke-width:0.5;" width="4" x="572.0576" y="854.6094"/><text fill="#000000" font-family="sans-serif" font-size="14" lengthAdjust="spacing" textLength="84.0479" x="388.5" y="878.1426">Claude Haiku</text><text fill="#000000" font-family="sans-serif" font-size="14" lengthAdjust="spacing" textLength="180.5576" x="388.5" y="895.752">(claude-haiku-4-5-20251001)</text></g><!--entity kuma--><g class="entity" data-qualified-name="External probes.kuma" data-source-line="33" id="ent0018"><rect fill="#FFFFFF" height="65.2188" rx="2.5" ry="2.5" style="stroke:#1168BD;stroke-width:0.5;" width="190.5889" x="1187.5" y="669.1094"/><rect fill="#FFFFFF" height="10" style="stroke:#1168BD;stroke-width:0.5;" width="15" x="1358.0889" y="674.1094"/><rect fill="#FFFFFF" height="2" style="stroke:#1168BD;stroke-width:0.5;" width="4" x="1356.0889" y="676.1094"/><rect fill="#FFFFFF" height="2" style="stroke:#1168BD;stroke-width:0.5;" width="4" x="1356.0889" y="680.1094"/><text fill="#000000" font-family="sans-serif" font-size="14" lengthAdjust="spacing" textLength="84.8066" x="1202.5" y="703.6426">Uptime Kuma</text><text fill="#000000" font-family="sans-serif" font-size="14" lengthAdjust="spacing" textLength="150.5889" x="1202.5" y="721.252">(StatefulSet + seed Job)</text></g><!--entity kumadb--><g class="entity" data-qualified-name="External probes.kumadb" data-source-line="34" id="ent0019"><path d="M1231.5,854.1094 C1231.5,844.1094 1283.1309,844.1094 1283.1309,844.1094 C1283.1309,844.1094 1334.7617,844.1094 1334.7617,854.1094 L1334.7617,898.3281 C1334.7617,908.3281 1283.1309,908.3281 1283.1309,908.3281 C1283.1309,908.3281 1231.5,908.3281 1231.5,898.3281 L1231.5,854.1094" fill="#F1F1F1" style="stroke:#181818;stroke-width:0.5;"/><path d="M1231.5,854.1094 C1231.5,864.1094 1283.1309,864.1094 1283.1309,864.1094 C1283.1309,864.1094 1334.7617,864.1094 1334.7617,854.1094" fill="none" style="stroke:#181818;stroke-width:0.5;"/><text fill="#000000" font-family="sans-serif" font-size="14" lengthAdjust="spacing" textLength="83.2617" x="1241.5" y="882.6426">Kuma SQLite</text><text fill="#000000" font-family="sans-serif" font-size="14" lengthAdjust="spacing" textLength="63.7861" x="1241.5" y="900.252">(2Gi PVC)</text></g><!--entity op--><g class="entity" data-qualified-name="op" data-source-line="9" id="ent0001"><ellipse cx="801.0723" cy="65.1094" fill="#F1F1F1" rx="8" ry="8" style="stroke:#181818;stroke-width:0.5;"/><path d="M801.0723,73.1094 L801.0723,100.1094 M788.0723,81.1094 L814.0723,81.1094 M801.0723,100.1094 L788.0723,115.1094 M801.0723,100.1094 L814.0723,115.1094" fill="none" style="stroke:#181818;stroke-width:0.5;"/><text fill="#000000" font-family="sans-serif" font-size="14" lengthAdjust="spacing" textLength="108.1445" x="747" y="131.1426">Operator (Admin)</text></g><!--entity discord--><g class="entity" data-qualified-name="discord" data-source-line="10" id="ent0002"><ellipse cx="686.1929" cy="845.6094" fill="#F1F1F1" rx="8" ry="8" style="stroke:#181818;stroke-width:0.5;"/><path d="M686.1929,853.6094 L686.1929,880.6094 M673.1929,861.6094 L699.1929,861.6094 M686.1929,880.6094 L673.1929,895.6094 M686.1929,880.6094 L699.1929,895.6094" fill="none" style="stroke:#181818;stroke-width:0.5;"/><text fill="#000000" font-family="sans-serif" font-size="14" lengthAdjust="spacing" textLength="107.3857" x="632.5" y="911.6426">Discord channels</text></g><!--entity user--><g class="entity" data-qualified-name="user" data-source-line="11" id="ent0003"><ellipse cx="1099.8721" cy="845.6094" fill="#F1F1F1" rx="8" ry="8" style="stroke:#181818;stroke-width:0.5;"/><path d="M1099.8721,853.6094 L1099.8721,880.6094 M1086.8721,861.6094 L1112.8721,861.6094 M1099.8721,880.6094 L1086.8721,895.6094 M1099.8721,880.6094 L1112.8721,895.6094" fill="none" style="stroke:#181818;stroke-width:0.5;"/><text fill="#000000" font-family="sans-serif" font-size="14" lengthAdjust="spacing" textLength="109.7441" x="1045" y="911.6426">Tenant / Landlord</text></g><!--entity api--><g class="entity" data-qualified-name="api" data-source-line="12" id="ent0004"><rect fill="#FFFFFF" height="65.2188" rx="2.5" ry="2.5" style="stroke:#1168BD;stroke-width:0.5;" width="206.9131" x="394.5" y="63.1094"/><rect fill="#FFFFFF" height="10" style="stroke:#1168BD;stroke-width:0.5;" width="15" x="581.4131" y="68.1094"/><rect fill="#FFFFFF" height="2" style="stroke:#1168BD;stroke-width:0.5;" width="4" x="579.4131" y="70.1094"/><rect fill="#FFFFFF" height="2" style="stroke:#1168BD;stroke-width:0.5;" width="4" x="579.4131" y="74.1094"/><text fill="#000000" font-family="sans-serif" font-size="14" lengthAdjust="spacing" textLength="75.4756" x="409.5" y="97.6426">API process</text><text fill="#000000" font-family="sans-serif" font-size="14" lengthAdjust="spacing" textLength="166.9131" x="409.5" y="115.252">(prometheus-net + Serilog)</text></g><!--entity others--><g class="entity" data-qualified-name="others" data-source-line="13" id="ent0005"><rect fill="#FFFFFF" height="100.4375" rx="2.5" ry="2.5" style="stroke:#1168BD;stroke-width:0.5;" width="218.1719" x="932" y="45.6094"/><rect fill="#FFFFFF" height="10" style="stroke:#1168BD;stroke-width:0.5;" width="15" x="1130.1719" y="50.6094"/><rect fill="#FFFFFF" height="2" style="stroke:#1168BD;stroke-width:0.5;" width="4" x="1128.1719" y="52.6094"/><rect fill="#FFFFFF" height="2" style="stroke:#1168BD;stroke-width:0.5;" width="4" x="1128.1719" y="56.6094"/><text fill="#000000" font-family="sans-serif" font-size="14" lengthAdjust="spacing" textLength="119.8408" x="947" y="80.1426">All other containers</text><text fill="#000000" font-family="sans-serif" font-size="14" lengthAdjust="spacing" textLength="178.1719" x="947" y="97.752">(Postgres, Redis, RabbitMQ,</text><text fill="#000000" font-family="sans-serif" font-size="14" lengthAdjust="spacing" textLength="171.1924" x="947" y="115.3613">Keycloak, Frontend, AIOps,</text><text fill="#000000" font-family="sans-serif" font-size="14" lengthAdjust="spacing" textLength="133.0547" x="947" y="132.9707">Loki, Prometheus, ...)</text></g><!--entity public--><g class="entity" data-qualified-name="public" data-source-line="14" id="ent0006"><rect fill="#FFFFFF" height="65.2188" rx="2.5" ry="2.5" style="stroke:#1168BD;stroke-width:0.5;" width="234.5576" x="774.5" y="843.6094"/><rect fill="#FFFFFF" height="10" style="stroke:#1168BD;stroke-width:0.5;" width="15" x="989.0576" y="848.6094"/><rect fill="#FFFFFF" height="2" style="stroke:#1168BD;stroke-width:0.5;" width="4" x="987.0576" y="850.6094"/><rect fill="#FFFFFF" height="2" style="stroke:#1168BD;stroke-width:0.5;" width="4" x="987.0576" y="854.6094"/><text fill="#000000" font-family="sans-serif" font-size="14" lengthAdjust="spacing" textLength="75.4824" x="789.5" y="878.1426">Public hosts</text><text fill="#000000" font-family="sans-serif" font-size="14" lengthAdjust="spacing" textLength="194.5576" x="789.5" y="895.752">app.X / api.X / auth.X / status.X</text></g><!--entity grafana--><g class="entity" data-qualified-name="grafana" data-source-line="37" id="ent0020"><rect fill="#FFFFFF" height="100.4375" rx="2.5" ry="2.5" style="stroke:#1168BD;stroke-width:0.5;" width="205.3887" x="432.5" y="253.1094"/><rect fill="#FFFFFF" height="10" style="stroke:#1168BD;stroke-width:0.5;" width="15" x="617.8887" y="258.1094"/><rect fill="#FFFFFF" height="2" style="stroke:#1168BD;stroke-width:0.5;" width="4" x="615.8887" y="260.1094"/><rect fill="#FFFFFF" height="2" style="stroke:#1168BD;stroke-width:0.5;" width="4" x="615.8887" y="264.1094"/><text fill="#000000" font-family="sans-serif" font-size="14" lengthAdjust="spacing" textLength="50.5859" x="447.5" y="287.6426">Grafana</text><text fill="#000000" font-family="sans-serif" font-size="14" lengthAdjust="spacing" textLength="112.0479" x="447.5" y="305.252">(chart-provisioned</text><text fill="#000000" font-family="sans-serif" font-size="14" lengthAdjust="spacing" textLength="165.3887" x="447.5" y="322.8613">dashboards + datasources</text><text fill="#000000" font-family="sans-serif" font-size="14" lengthAdjust="spacing" textLength="71.5791" x="447.5" y="340.4707">via sidecar)</text></g><g class="entity" data-qualified-name="GMN31" data-source-line="55" id="ent0032"><path d="M1414,664.1094 L1414,739.5156 L1817.5542,739.5156 L1817.5542,674.1094 L1807.5542,664.1094 L1414,664.1094" fill="#FEFFDD" style="stroke:#181818;stroke-width:0.5;"/><path d="M1807.5542,664.1094 L1807.5542,674.1094 L1817.5542,674.1094 L1807.5542,664.1094" fill="#FEFFDD" style="stroke:#181818;stroke-width:1;"/><text fill="#000000" font-family="sans-serif" font-size="13" lengthAdjust="spacing" textLength="125.0234" x="1420" y="682.6045">Graceful degradation:</text><text fill="#000000" font-family="sans-serif" font-size="13" lengthAdjust="spacing" textLength="367.3833" x="1420" y="698.9561">- ANTHROPIC_API_KEY empty -&gt; raw labels posted to Discord</text><text fill="#000000" font-family="sans-serif" font-size="13" lengthAdjust="spacing" textLength="382.5542" x="1420" y="715.3076">- DISCORD_WEBHOOK_URL empty -&gt; message bodies to stdout</text><text fill="#000000" font-family="sans-serif" font-size="13" lengthAdjust="spacing" textLength="228.668" x="1427.2236" y="731.6592">(-&gt; Promtail -&gt; Loki -&gt; Grafana Explore)</text></g><!--link api to prom--><g class="link" data-entity-1="ent0004" data-entity-2="ent0008" data-link-type="dependency" data-source-line="40" id="lnk21"><path d="M444.54,128.2694 C384.09,164.0694 289.792,219.9113 223.762,259.0213" fill="none" id="api-to-prom" style="stroke:#181818;stroke-width:1;"/><polygon fill="#181818" points="219.46,261.5694,229.2421,260.4244,223.762,259.0213,225.1651,253.5412,219.46,261.5694" style="stroke:#181818;stroke-width:1;stroke-linejoin:miter;stroke-miterlimit:10;"/><text fill="#000000" font-family="sans-serif" font-size="13" lengthAdjust="spacing" textLength="75.8354" x="356" y="198.1045">GET /metrics</text></g><!--link prom to tsdb--><g class="link" data-entity-1="ent0008" data-entity-2="ent0009" data-link-type="dependency" data-source-line="41" id="lnk22"><path d="M103.67,344.7394 C93.63,356.0394 84.43,369.0894 79,383.1094 C73.54,397.1994 74.4,402.7194 79,417.1094 C87.33,443.1594 101.8858,464.4062 117.6958,483.0462" fill="none" id="prom-to-tsdb" style="stroke:#181818;stroke-width:1;"/><polygon fill="#181818" points="120.93,486.8594,118.1589,477.4084,117.6958,483.0462,112.0579,482.5831,120.93,486.8594" style="stroke:#181818;stroke-width:1;stroke-linejoin:miter;stroke-miterlimit:10;"/><text fill="#000000" font-family="sans-serif" font-size="13" lengthAdjust="spacing" textLength="27.4473" x="80" y="405.6045">write</text></g><!--link prom to am--><g class="link" data-entity-1="ent0008" data-entity-2="ent0014" data-link-type="dependency" data-source-line="42" id="lnk23"><path d="M137.03,344.7294 C131.54,368.8494 130.18,398.2994 148,417.1094 C159.33,429.0694 280.07,420.9494 296,425.1094 C332.97,434.7694 366.827,449.7076 399.187,466.7676" fill="none" id="prom-to-am" style="stroke:#181818;stroke-width:1;"/><polygon fill="#181818" points="403.61,469.0994,397.514,461.3638,399.187,466.7676,393.7832,468.4406,403.61,469.0994" style="stroke:#181818;stroke-width:1;stroke-linejoin:miter;stroke-miterlimit:10;"/><text fill="#000000" font-family="sans-serif" font-size="13" lengthAdjust="spacing" textLength="146.6499" x="149" y="405.6045">fire alerts (chart rule files)</text></g><!--link api to loki--><g class="link" data-entity-1="ent0004" data-entity-2="ent0012" data-link-type="dependency" data-source-line="45" id="lnk24"><path d="M545.13,128.2094 C577.69,151.1294 621.05,183.9094 655,217.6094 C709.26,271.4794 706.33,299.6594 761,353.1094 C814.92,405.8294 881.9769,453.3852 928.7969,484.2852" fill="none" id="api-to-loki" style="stroke:#181818;stroke-width:1;"/><polygon fill="#181818" points="932.97,487.0394,927.6617,478.7435,928.7969,484.2852,923.2551,485.4204,932.97,487.0394" style="stroke:#181818;stroke-width:1;stroke-linejoin:miter;stroke-miterlimit:10;"/><text fill="#000000" font-family="sans-serif" font-size="13" lengthAdjust="spacing" textLength="110.189" x="762" y="300.6045">Serilog -&gt; Loki sink</text><text fill="#000000" font-family="sans-serif" font-size="13" lengthAdjust="spacing" textLength="105.4727" x="764.3582" y="316.9561">(structured, direct)</text></g><!--link others to promtail--><g class="link" data-entity-1="ent0005" data-entity-2="ent0011" data-link-type="dependency" data-source-line="46" id="lnk25"><path d="M1041,145.8294 C1041,181.2194 1041,223.3494 1041,256.5694" fill="none" id="others-to-promtail" style="stroke:#181818;stroke-width:1;"/><polygon fill="#181818" points="1041,261.5694,1045,252.5694,1041,256.5694,1037,252.5694,1041,261.5694" style="stroke:#181818;stroke-width:1;stroke-linejoin:miter;stroke-miterlimit:10;"/><text fill="#000000" font-family="sans-serif" font-size="13" lengthAdjust="spacing" textLength="35.4136" x="1042" y="198.1045">stdout</text></g><!--link promtail to loki--><g class="link" data-entity-1="ent0011" data-entity-2="ent0012" data-link-type="dependency" data-source-line="47" id="lnk26"><path d="M1029.83,344.6094 C1018.44,385.9294 1002.3392,444.3493 991.9592,481.9893" fill="none" id="promtail-to-loki" style="stroke:#181818;stroke-width:1;"/><polygon fill="#181818" points="990.63,486.8094,996.8787,479.1966,991.9592,481.9893,989.1666,477.0698,990.63,486.8094" style="stroke:#181818;stroke-width:1;stroke-linejoin:miter;stroke-miterlimit:10;"/><text fill="#000000" font-family="sans-serif" font-size="13" lengthAdjust="spacing" textLength="65.7427" x="1019" y="405.6045">HTTP push</text></g><!--link am to aiops--><g class="link" data-entity-1="ent0014" data-entity-2="ent0015" data-link-type="dependency" data-source-line="50" id="lnk27"><path d="M490.47,569.4294 C493.61,597.8194 496.9695,628.0998 499.9395,654.9098" fill="none" id="am-to-aiops" style="stroke:#181818;stroke-width:1;"/><polygon fill="#181818" points="500.49,659.8794,503.4747,650.4937,499.9395,654.9098,495.5234,651.3745,500.49,659.8794" style="stroke:#181818;stroke-width:1;stroke-linejoin:miter;stroke-miterlimit:10;"/><text fill="#000000" font-family="sans-serif" font-size="13" lengthAdjust="spacing" textLength="130.0571" x="496" y="613.6045">webhook POST /alerts</text></g><!--link aiops to claude--><g class="link" data-entity-1="ent0015" data-entity-2="ent0016" data-link-type="dependency" data-source-line="51" id="lnk28"><path d="M426.49,743.5094 C416.65,751.9594 407.96,761.7994 402,773.1094 C388.43,798.8394 405.0209,821.2219 428.9209,840.2819" fill="none" id="aiops-to-claude" style="stroke:#181818;stroke-width:1;"/><polygon fill="#181818" points="432.83,843.3994,428.2876,834.6606,428.9209,840.2819,423.2996,840.9152,432.83,843.3994" style="stroke:#181818;stroke-width:1;stroke-linejoin:miter;stroke-miterlimit:10;"/><text fill="#000000" font-family="sans-serif" font-size="13" lengthAdjust="spacing" textLength="76.5908" x="403" y="795.6045">triage prompt</text></g><!--link claude to aiops--><g class="link" data-entity-1="ent0016" data-entity-2="ent0015" data-link-type="dependency" data-source-line="52" id="lnk29"><path d="M487.86,843.4194 C491.28,815.2994 495.6964,779.0428 499.4164,748.4528" fill="none" id="claude-to-aiops" style="stroke:#181818;stroke-width:1;"/><polygon fill="#181818" points="500.02,743.4894,494.9628,751.9407,499.4164,748.4528,502.9043,752.9064,500.02,743.4894" style="stroke:#181818;stroke-width:1;stroke-linejoin:miter;stroke-miterlimit:10;"/><text fill="#000000" font-family="sans-serif" font-size="13" lengthAdjust="spacing" textLength="57.0845" x="497" y="795.6045">triage text</text></g><!--link aiops to discord--><g class="link" data-entity-1="ent0015" data-entity-2="ent0002" data-link-type="dependency" data-source-line="53" id="lnk30"><path d="M547.89,743.4894 C577.58,771.7894 613.2108,805.7395 642.2708,833.4395" fill="none" id="aiops-to-discord" style="stroke:#181818;stroke-width:1;"/><polygon fill="#181818" points="645.89,836.8894,642.1353,827.7843,642.2708,833.4395,636.6156,833.575,645.89,836.8894" style="stroke:#181818;stroke-width:1;stroke-linejoin:miter;stroke-miterlimit:10;"/><text fill="#000000" font-family="sans-serif" font-size="13" lengthAdjust="spacing" textLength="115.5972" x="612" y="795.6045">rich embed (#alerts)</text></g><!--link aiops to GMN31--><g class="link" data-entity-1="ent0015" data-entity-2="ent0032" data-link-type="association" data-source-line="55" id="lnk33"><path d="M599.77,671.1394 C760.87,623.6594 1097.89,543.0894 1377.5,600.1094 C1437.8,612.4094 1501.73,640.5294 1548.21,664.0594" fill="none" id="aiops-GMN31" style="stroke:#181818;stroke-width:1;stroke-dasharray:7,7;"/></g><!--link kuma to public--><g class="link" data-entity-1="ent0018" data-entity-2="ent0006" data-link-type="dependency" data-source-line="62" id="lnk34"><path d="M1187.36,723.9294 C1142.92,735.5894 1090.08,751.9994 1045,773.1094 C1004.24,792.1994 965.9666,818.2082 936.2166,840.4182" fill="none" id="kuma-to-public" style="stroke:#181818;stroke-width:1;"/><polygon fill="#181818" points="932.21,843.4094,941.8148,841.2306,936.2166,840.4182,937.029,834.82,932.21,843.4094" style="stroke:#181818;stroke-width:1;stroke-linejoin:miter;stroke-miterlimit:10;"/><text fill="#000000" font-family="sans-serif" font-size="13" lengthAdjust="spacing" textLength="85.9727" x="1046" y="787.6045">HTTPS probes</text><text fill="#000000" font-family="sans-serif" font-size="13" lengthAdjust="spacing" textLength="65.019" x="1056.4768" y="803.9561">(every 60s)</text></g><!--link kuma to kumadb--><g class="link" data-entity-1="ent0018" data-entity-2="ent0019" data-link-type="dependency" data-source-line="63" id="lnk35"><path d="M1283,734.2494 C1283,765.4694 1283,807.9094 1283,838.9594" fill="none" id="kuma-to-kumadb" style="stroke:#181818;stroke-width:1;"/><polygon fill="#181818" points="1283,843.9594,1287,834.9594,1283,838.9594,1279,834.9594,1283,843.9594" style="stroke:#181818;stroke-width:1;stroke-linejoin:miter;stroke-miterlimit:10;"/><text fill="#000000" font-family="sans-serif" font-size="13" lengthAdjust="spacing" textLength="80.1899" x="1284" y="795.6045">persist results</text></g><!--link kuma to discord--><g class="link" data-entity-1="ent0018" data-entity-2="ent0002" data-link-type="dependency" data-source-line="64" id="lnk36"><path d="M1187.4,706.7494 C1096.66,713.2594 957.78,730.0194 845,773.1094 C804.87,788.4394 768.2049,811.8364 738.0349,833.9164" fill="none" id="kuma-to-discord" style="stroke:#181818;stroke-width:1;"/><polygon fill="#181818" points="734,836.8694,743.6251,834.782,738.0349,833.9164,738.9004,828.3262,734,836.8694" style="stroke:#181818;stroke-width:1;stroke-linejoin:miter;stroke-miterlimit:10;"/><text fill="#000000" font-family="sans-serif" font-size="13" lengthAdjust="spacing" textLength="132.9644" x="846" y="795.6045">outage notify (#uptime)</text></g><!--link kuma to user--><g class="link" data-entity-1="ent0018" data-entity-2="ent0003" data-link-type="dependency" data-source-line="65" id="lnk37"><path d="M1221.31,734.2594 C1203.3,745.1494 1184.36,758.3594 1169,773.1094 C1149.72,791.6194 1135.3857,812.0779 1123.1357,832.5679" fill="none" id="kuma-to-user" style="stroke:#181818;stroke-width:1;"/><polygon fill="#181818" points="1120.57,836.8594,1128.6215,831.1872,1123.1357,832.5679,1121.755,827.0821,1120.57,836.8594" style="stroke:#181818;stroke-width:1;stroke-linejoin:miter;stroke-miterlimit:10;"/><text fill="#000000" font-family="sans-serif" font-size="13" lengthAdjust="spacing" textLength="104.7935" x="1170" y="787.6045">public status page</text><text fill="#000000" font-family="sans-serif" font-size="13" lengthAdjust="spacing" textLength="55.6245" x="1194.5845" y="803.9561">(status.X)</text></g><!--link grafana to tsdb--><g class="link" data-entity-1="ent0020" data-entity-2="ent0009" data-link-type="dependency" data-source-line="68" id="lnk38"><path d="M432.42,347.3294 C408.32,358.3194 382.98,370.5894 360,383.1094 C301.01,415.2394 240.681,455.3034 199.181,484.0334" fill="none" id="grafana-to-tsdb" style="stroke:#181818;stroke-width:1;"/><polygon fill="#181818" points="195.07,486.8794,204.7466,485.0454,199.181,484.0334,200.193,478.4678,195.07,486.8794" style="stroke:#181818;stroke-width:1;stroke-linejoin:miter;stroke-miterlimit:10;"/><text fill="#000000" font-family="sans-serif" font-size="13" lengthAdjust="spacing" textLength="48.4009" x="405.4368" y="397.6045">PromQL</text><text fill="#000000" font-family="sans-serif" font-size="13" lengthAdjust="spacing" textLength="137.2744" x="361" y="413.9561">(api-metrics dashboard)</text></g><!--link grafana to loki--><g class="link" data-entity-1="ent0020" data-entity-2="ent0012" data-link-type="dependency" data-source-line="69" id="lnk39"><path d="M559.17,353.3094 C572.49,375.7594 591.02,400.8994 614,417.1094 C696.43,475.2494 806.0131,499.3044 885.3231,509.7844" fill="none" id="grafana-to-loki" style="stroke:#181818;stroke-width:1;"/><polygon fill="#181818" points="890.28,510.4394,881.8816,505.2948,885.3231,509.7844,880.8336,513.2259,890.28,510.4394" style="stroke:#181818;stroke-width:1;stroke-linejoin:miter;stroke-miterlimit:10;"/><text fill="#000000" font-family="sans-serif" font-size="13" lengthAdjust="spacing" textLength="39.0317" x="655.1013" y="397.6045">LogQL</text><text fill="#000000" font-family="sans-serif" font-size="13" lengthAdjust="spacing" textLength="119.2344" x="615" y="413.9561">(api-logs dashboard)</text></g><!--link grafana to am--><g class="link" data-entity-1="ent0020" data-entity-2="ent0014" data-link-type="dependency" data-source-line="70" id="lnk40"><path d="M522.29,353.3594 C519.82,363.1994 517.29,373.4694 515,383.1094 C508.26,411.4894 502.2269,438.4545 496.6269,464.0945" fill="none" id="grafana-to-am" style="stroke:#181818;stroke-width:1;"/><polygon fill="#181818" points="495.56,468.9794,501.3883,461.0402,496.6269,464.0945,493.5725,459.3331,495.56,468.9794" style="stroke:#181818;stroke-width:1;stroke-linejoin:miter;stroke-miterlimit:10;"/><text fill="#000000" font-family="sans-serif" font-size="13" lengthAdjust="spacing" textLength="57.0845" x="516" y="405.6045">alert state</text></g><!--link op to grafana--><g class="link" data-entity-1="ent0001" data-entity-2="ent0020" data-link-type="dependency" data-source-line="71" id="lnk41"><path d="M751.59,134.7794 C708.47,168.0894 649.5969,213.5827 602.6969,249.8127" fill="none" id="op-to-grafana" style="stroke:#181818;stroke-width:1;"/><polygon fill="#181818" points="598.74,252.8694,608.3077,250.5329,602.6969,249.8127,603.417,244.2019,598.74,252.8694" style="stroke:#181818;stroke-width:1;stroke-linejoin:miter;stroke-miterlimit:10;"/><text fill="#000000" font-family="sans-serif" font-size="13" lengthAdjust="spacing" textLength="97.5571" x="729.5654" y="190.1045">view dashboards</text><text fill="#000000" font-family="sans-serif" font-size="13" lengthAdjust="spacing" textLength="172.688" x="692" y="206.4561">(secret-backed admin in prod)</text></g><?plantuml-src TLPjJzj84FxkNp6Y7uweCKreGKUagqH90Xpq4WYzwqb8Q6qFyIhEhhMxXaQd--_thDSE3kMCX9trC-_FpDX9Lp3D4ilcIIIoa6v3rebqHJ6jsHcPsZuLUed_ec3ZSESVZeqI1PL69soZoAwaAeKHQ_e2mQNHbShETA4DlPkU-hyE8jNhKYjMxcTeVRq9rIPZqy26m-DVawm3Aw58B7a7T79oyWRYbKLdXB90m48KYTJXQ6zMiX7-QVyqMqlLsoDSmf8kMyHOsXIcACs5KbpO5f65ynPsnqeeHn_eMgWCrhAz0AkGw6WR6UsTpYzz7bEszbxjumb9pxcoiM97xsd1HYBxy0EoefGxeaL16c23J2adf6BZTSorTKl3ADGjmodSH998z_McVw-kU9CMMgpwD3MGOPNrwVHoLbgykzOhsQVvreC-7HmS1CEr5TkrFQ-IGgQKmnPiYh8y-8vOuM2uLowl7y0aLzc3xxMMifQ9egOSjFSry0lrSVaUlPiSJmVJAVqJ-OnsRMrTGdJ38qisDQBaFWsFCZACA9pK2X64StgMXZEIofV8EF1OQTGlr3N4uzDSMyc44ucmJ5qhTBSOVu6fmy6vfFcVPq76sIo9_kruVuscwBW-dHo_xJegKq3RMF1QgqLTLINM3EQbSFDMe_tWArpAwCEz6kjqXOeknlumuwSNXxsUrqxxclcaD9wYKqN2HInLnZyu2x85C3kEdzPztBhk7N_BzHgr5WeY1YPyuvGFoIPC0H_0UyjFOAVR8FE6InRkGO9I62C53Gzpd4gLIp2FKg1aAehuyxCmE6tflFx9fgSYFNEIQxtoLDwuN2lwU33yXAnDXNLe5oXU6kJkiIgG83mY7wX_erFgqhvMUrQ8AcEw479LGMjQ_unp_pF-51_5XuF3e-5WC0mgmkkTZ4rs9rwTjUbWClWvQzzA9zTCLzLQmD82zFT-XgfRHhr_rqamimBaTJcz62rkhgLZpxyk_Jmy4B1ZxTo8HrJ8n-If7iEz9scH3CxkLIPidcXXCWlRteZLbS6SkLTFKf2L6QUYwOTbq1D5lz1lzKNTrcpE8dGtrLSSVwuPwPz7T3wvem_DgeZQunhZMoPWdi40tdqfmYDUFg9Vc-L28H0o5RhYKHPiUnsdjXttfaUUvq5XCpG9Xxv14AloRBBELAchC1pwcDQ6KzUBmcJhnEIxR8IvbUdAHUt1A_qNTtTpJ3ERTtphDDNMkqwmdfPr8WAtQJvR86iXwAXvwu61V00YdPvwteFIHStnZge6uR2EkngQFGG02f8JhnEmRlzTCDMBb7QCDylSaNxSjilv6mqrmdbCft_SNTpEvfTd3sYzXwl9tz1OuXi1benu3lC6OMCFm8pJrAp7MdPykJYRtOuV_ffykPZDhXw-tLw_I6C2Mkz_eZF9reisIVSvsmTWlar-KqRS6yBJv4U9dSgz21kCV4YTIhngrhOQle52bSFgQWkvQ70WY9zd6peU84rRTEYx6eqLOgK5ETbM1SgsnRGf1mO1-A3WadpS8ErLFGyw-lp-RtZVE19s99Ypv9gaOMDsUTz6ZJLlA-GFnMcZQZhtfTr6TTvkhg4AtH4tVKdROT3R4QavFVADjPNmtth_1wyPFGgzMllDaIvVEh25ZkX9ylEB4fzRoobMTPnWf88emdzSjMkl5_q7?></g></svg>